<svg xmlns="http://www.w3.org/2000/svg" width="654px" height="654px" viewBox="0 0 654.2459719999999 654.2459719999999" version="1.1" id="svg5" xml:space="preserve" data-square-offset-x="96.75468599999996" data-square-offset-y="120.52769599999996"><defs id="defs2" style="fill: rgb(255, 255, 255);"/><g id="layer1" style="fill: rgb(255, 255, 255);"><path style="fill: rgb(255, 255, 255);" d="m 318.013686 530.1686960000014 c -0.02,-2.384 0.253,-5.582 0.698,-8.291 0.786,-4.773 0.72,-6.213 -0.431,-9.45 -1.15,-3.232 -1.263,-4.017 -1,-6.976 0.229,-2.585 0.157,-3.077 -0.935,-6.397 -1.844,-5.612 -1.476,-8.409 1.667,-12.667 1.523,-2.064 1.758,-2.587 1.563,-3.489 -0.126,-0.584 -0.303,-1.855 -0.393,-2.825 -0.09,-0.97 -0.241,-2.125 -0.336,-2.566 -0.298,-1.384 -2.601,-3.551 -5.937,-5.588 -2.043,-1.247 -4.072,-2.869 -5.567,-4.45 l -2.354,-2.487 -1.703,0.254 c -3.96,0.591 -5.087,0.04 -10.503,-5.108 -3.397,-3.231 -4.067,-3.695 -8.04,-5.573 -5.917,-2.797 -6.253,-3.227 -6.791,-8.694 -0.326,-3.317 -1.577,-4.732 -6.18,-6.987 -2.664,-1.305 -3.273,-1.467 -5.468,-1.457 -1.358,0 -3.361,0.141 -4.45,0.3 -1.622,0.236 -2.396,0.15 -4.268,-0.473 -1.258,-0.418 -2.827,-1.17 -3.487,-1.67 -2.942,-2.229 -5.353,-2.701 -8.705,-1.706 -2.776,0.825 -4.554,2.406 -6.333,5.636 -2.311,4.194 -2.696,4.526 -4.953,4.264 l -1.857,-0.215 -1.025,1.616 c -0.564,0.889 -1.987,3.571 -3.163,5.961 -1.549,3.149 -2.494,4.631 -3.433,5.385 l -1.296,1.039 0.848,1.151 c 0.802,1.088 0.846,1.408 0.814,5.967 -0.02,3.371 -0.27,6.081 -0.821,9.026 -0.462,2.47 -0.696,4.701 -0.564,5.4 0.148,0.788 0.998,2.036 2.512,3.686 3.129,3.409 3.805,4.811 3.569,7.406 -0.245,2.71 -1.883,5.562 -5.519,9.614 -3.318,3.697 -3.883,4.755 -4.226,7.907 l -0.255,2.348 -0.285,-2.406 c -0.517,-4.353 0.493,-7.235 5.069,-14.473 2.994,-4.734 3.038,-5.213 0.732,-7.842 -2.828,-3.224 -2.998,-3.677 -2.834,-7.558 0.331,-7.82 0.275,-8.433 -1.025,-11.289 -0.889,-1.953 -1.258,-3.338 -1.408,-5.292 -0.233,-3.034 -1.169,-4.737 -2.99,-5.442 -0.766,-0.296 -4.051,-0.413 -10.972,-0.387 -12.64,0.05 -12.483,-0.03 -13.896,6.444 -1.395,6.394 -3.046,8.048 -8.916,8.931 -3.44,0.518 -5.641,1.58 -8.408,4.055 -1.262,1.129 -2.753,2.459 -3.314,2.957 -1.685,1.495 -0.584,-0.07 2.234,-3.177 3.493,-3.849 4.813,-4.738 8.938,-6.02 3.846,-1.195 5.631,-2.429 6.204,-4.291 0.191,-0.621 0.455,-2.399 0.586,-3.951 0.38,-4.483 1.376,-6.217 4.478,-7.797 1.957,-0.996 2.618,-1.03 5.782,-0.296 5.95,1.38 13.557,-0.05 19.082,-3.577 2.865,-1.831 6.752,-5.701 9.892,-9.85 1.469,-1.94 3.345,-4.242 4.171,-5.115 l 1.5,-1.588 -0.378,-2.024 c -0.487,-2.608 -0.04,-3.144 3.266,-3.949 2.305,-0.56 2.537,-0.558 4.185,0.03 2.123,0.754 2.333,0.625 4.091,-2.518 0.829,-1.482 2.251,-3.149 4.259,-4.994 3.087,-2.835 4.174,-4.641 3.766,-6.259 -0.103,-0.409 -1.564,-2.093 -3.248,-3.742 -1.683,-1.65 -3.889,-4.146 -4.903,-5.548 -1.312,-1.814 -2.635,-3.107 -4.592,-4.486 -4.053,-2.856 -6.159,-4.876 -9.235,-8.861 -3.168,-4.104 -5.08,-5.945 -7.151,-6.886 -1.911,-0.867 -2.823,-0.842 -7.45,0.207 -2.131,0.484 -4.943,0.879 -6.249,0.879 -3.132,0 -5.286,0.838 -10.003,3.892 -2.088,1.352 -4.081,2.458 -4.43,2.458 -0.348,0 -1.421,-0.169 -2.384,-0.375 -1.518,-0.326 -1.932,-0.283 -3.12,0.323 -0.754,0.384 -1.987,0.814 -2.74,0.956 -0.989,0.185 -2.002,0.844 -3.632,2.36 -2.396,2.23 -6.231,4.275 -10.115,5.394 -1.736,0.5 -2.392,0.536 -3.819,0.206 -4.102,-0.946 -7,-0.241 -11.819,2.878 -2.87,1.856 -5.556,3.275 -7.506,3.963 l -1.302,0.459 1.982,-2.001 c 1.091,-1.1 2.91,-3.076 4.044,-4.389 1.133,-1.313 2.879,-2.86 3.88,-3.438 1.817,-1.048 6.501,-2.686 10.04,-3.51 1.029,-0.239 2.617,-0.949 3.529,-1.576 2.727,-1.877 3.87,-2.345 5.512,-2.26 1.363,0.07 1.728,-0.09 3.25,-1.445 2.534,-2.253 4.746,-3.136 9.361,-3.738 5.174,-0.675 7.447,-1.271 11.556,-3.026 3.094,-1.322 3.533,-1.419 5.486,-1.211 6.121,0.652 7.17,0.642 9.607,-0.1 1.316,-0.399 3.108,-0.838 3.981,-0.975 2.385,-0.374 4.381,-1.346 6.194,-3.018 1.938,-1.785 3.072,-3.907 4.454,-8.327 0.978,-3.129 1.109,-3.339 3.036,-4.876 1.108,-0.883 3.919,-2.849 6.248,-4.367 5.877,-3.833 5.938,-3.901 7.198,-7.989 1.68,-5.45 2.832,-10.014 2.528,-10.014 -0.153,0 -0.877,0.913 -1.61,2.028 -1.648,2.511 -3.735,5.117 -3.936,4.915 -0.08,-0.08 0.357,-0.966 0.977,-1.963 0.619,-0.997 1.037,-1.902 0.928,-2.011 -0.109,-0.11 -1.058,0.675 -2.109,1.742 l -1.91,1.941 0.849,-3.062 c 0.466,-1.683 1.289,-4.49 1.828,-6.236 0.54,-1.746 1.083,-3.651 1.208,-4.233 l 0.228,-1.059 -1.222,1.363 c -0.672,0.75 -1.46,2.02 -1.752,2.823 l -0.532,1.459 0.07,-1.694 0.07,-1.693 -2.999,-1.176 c -1.649,-0.647 -3.871,-1.533 -4.939,-1.969 -1.574,-0.642 -3.004,-0.846 -7.584,-1.082 -3.105,-0.16 -6.677,-0.454 -7.938,-0.653 -3.721,-0.588 -5.939,-0.454 -8.922,0.54 -1.569,0.522 -3.104,0.827 -3.573,0.71 -0.452,-0.114 -1.834,-1.218 -3.071,-2.453 -2.502,-2.499 -3.949,-3.184 -10.01,-4.736 l -3.528,-0.904 -4.233,0.614 c -10.053,1.459 -12.334,1.63 -14.436,1.082 -4.268,-1.111 -10.689,-4.909 -19.069,-11.279 -4.901,-3.725 -6.966,-4.997 -9.202,-5.67 -1.436,-0.432 -1.773,-0.414 -3.269,0.176 -2.142,0.844 -2.897,0.598 -8.547,-2.78 -2.322,-1.389 -5.133,-2.987 -6.247,-3.551 -2.693,-1.364 -1.455,-1.372 2.822,-0.02 5.802,1.836 5.941,1.855 9.95,1.389 2.949,-0.342 4.083,-0.338 5.704,0.03 2.68,0.6 6.968,2.853 10.991,5.775 4.914,3.569 10.173,7.026 13.135,8.633 4.269,2.317 5.56,2.557 13.229,2.465 6.478,-0.08 6.868,-0.04 11.642,1.077 3.983,0.934 5.348,1.114 7.056,0.932 2.538,-0.271 4.967,0.514 7.295,2.357 l 1.497,1.185 6.187,0.02 c 5.995,0.02 6.293,0.06 9.611,1.154 2.139,0.708 4.695,1.254 6.809,1.454 3.149,0.298 3.707,0.478 8.035,2.594 l 4.652,2.274 1.14,-1.808 c 2.477,-3.928 2.913,-5.051 3.452,-8.889 0.29,-2.067 0.85,-4.841 1.244,-6.164 0.394,-1.323 0.745,-2.932 0.78,-3.576 0.114,-2.116 -0.07,-4.522 -0.355,-4.522 -0.151,0 -0.508,0.663 -0.794,1.474 -0.649,1.845 -1.075,1.993 -1.871,0.646 -0.655,-1.109 -1.529,-1.482 -1.149,-0.49 0.532,1.387 0.653,8.889 0.182,11.276 l -0.482,2.44 -0.251,-3.373 c -0.339,-4.559 -1.945,-8.599 -3.904,-9.823 -0.618,-0.386 -0.639,-0.305 -0.377,1.455 0.153,1.025 0.279,3.768 0.279,6.097 0,3.651 -0.11,4.471 -0.798,5.963 -0.439,0.952 -0.871,1.658 -0.96,1.569 -0.124,-0.124 -1.594,-11.099 -1.594,-11.904 0,-0.1 -0.168,-0.01 -0.374,0.195 -0.207,0.207 -0.472,2.183 -0.589,4.393 -0.21,3.936 -0.225,3.992 -0.73,2.782 -0.353,-0.843 -0.574,-3.126 -0.697,-7.197 -0.156,-5.188 -0.24,-5.848 -0.641,-5.083 -0.533,1.017 -1.891,7.421 -1.943,9.161 -0.03,1.098 -0.05,1.118 -0.31,0.297 -0.151,-0.485 -0.208,-1.835 -0.126,-2.999 l 0.149,-2.116 -0.74,1.764 c -0.552,1.317 -0.706,2.299 -0.606,3.88 l 0.133,2.117 -0.698,-1.588 c -1.119,-2.542 -1.176,-7.435 -0.139,-11.906 0.462,-1.989 0.747,-3.616 0.636,-3.615 -0.229,0 -1.789,2.443 -2.591,4.056 -0.75,1.51 -1.356,4.468 -1.625,7.937 l -0.232,2.999 -0.86,-2.117 c -0.901,-2.217 -1.156,-5.587 -0.641,-8.466 0.251,-1.4 0.246,-1.396 -0.628,0.482 -0.485,1.041 -1.063,3.063 -1.285,4.494 -0.223,1.43 -0.466,2.539 -0.542,2.464 -0.08,-0.08 -0.359,-1.383 -0.631,-2.907 -0.549,-3.077 -0.168,-7.911 0.767,-9.737 0.753,-1.468 0.334,-1.167 -1.044,0.752 -1.617,2.251 -2.351,3.699 -2.382,4.699 -0.02,0.613 -0.157,0.466 -0.567,-0.6 -0.382,-0.994 -0.557,-2.85 -0.593,-6.282 -0.04,-4.136 -0.114,-4.721 -0.474,-3.88 -0.524,1.223 -2.254,6.442 -3.309,9.986 -0.434,1.455 -0.906,2.78 -1.05,2.945 -0.506,0.58 -0.776,-6.314 -0.347,-8.856 0.393,-2.331 0.549,-2.615 2.861,-5.204 2.14,-2.397 2.797,-3.349 2.31,-3.349 -0.07,0 -1.221,1.266 -2.547,2.814 -3.093,3.61 -3.443,3.756 -3.181,1.333 0.168,-1.557 -0.05,-1.119 -1.342,2.732 -0.848,2.522 -1.558,4.219 -1.578,3.769 -0.02,-0.449 -0.374,-1.601 -0.787,-2.561 -0.686,-1.597 -0.714,-1.933 -0.322,-3.946 0.577,-2.97 2.084,-6.027 4.478,-9.087 1.162,-1.485 1.687,-2.381 1.264,-2.154 -1.285,0.687 -3.311,3.326 -4.579,5.961 -1.198,2.491 -1.457,3.713 -2.075,9.782 -0.18,1.775 -0.267,1.98 -0.535,1.269 -0.175,-0.465 -0.434,-2.655 -0.575,-4.865 l -0.256,-4.018 -1.564,2.149 c -1.372,1.887 -1.607,2.072 -1.927,1.514 -0.201,-0.349 -0.368,-1.517 -0.371,-2.595 -0.01,-2.94 1.7,-6.181 4.969,-9.417 1.42,-1.407 2.499,-2.558 2.396,-2.558 -0.185,0 -3.091,1.896 -4.698,3.065 l -0.841,0.612 0.63,-1.221 c 1.13,-2.188 5.178,-5.888 7.771,-7.101 2.012,-0.942 2.901,-1.137 5.818,-1.277 1.894,-0.09 4.199,-0.05 5.123,0.09 l 1.679,0.251 -2.614,0.875 c -1.437,0.481 -2.837,1.094 -3.11,1.361 -0.324,0.318 0.435,0.191 2.191,-0.366 1.478,-0.47 3.686,-0.991 4.906,-1.159 l 2.219,-0.306 -1.354,-0.603 c -2.203,-0.981 -5.085,-1.349 -9.532,-1.218 l -4.184,0.123 1.755,-0.796 c 2.21,-1.003 4.472,-1.418 6.157,-1.131 1.78,0.303 1.363,-0.177 -0.874,-1.005 -1.558,-0.576 -3.136,-0.713 -10.136,-0.88 -15.933,-0.38 -27.633,-3.188 -40.922,-9.822 -13.055,-6.518 -23.27,-14.56 -33.321,-26.231 -5.068,-5.886 -7.349,-8.927 -11.906,-15.875 -2.036,-3.105 -5.839,-8.899 -8.451,-12.877 -2.613,-3.977 -7.826,-11.518 -11.585,-16.756 -3.759,-5.239 -7.606,-10.635 -8.548,-11.992 l -1.714,-2.466 1.162,-0.964 c 1.446,-1.199 1.887,-1.206 4.592,-0.07 4.686,1.973 8.916,5.837 15.602,14.255 7.698,9.692 9.62,12.023 14.041,17.033 19.877,22.523 42.538,35.809 66.248,38.84 6.142,0.786 11.232,1.035 15.361,0.754 l 3.734,-0.255 -1.203,-1.11 c -0.662,-0.611 -1.891,-2.292 -2.731,-3.737 -1.837,-3.156 -2.775,-4.09 -5.203,-5.176 -1.014,-0.454 -2.999,-1.827 -4.409,-3.051 -1.411,-1.224 -3.711,-3.136 -5.112,-4.248 -3.109,-2.468 -5.012,-4.385 -5.429,-5.471 -0.173,-0.449 -0.314,-1.542 -0.314,-2.428 0,-1.326 -0.417,-2.368 -2.357,-5.886 -1.297,-2.351 -2.871,-4.992 -3.498,-5.869 -1.028,-1.436 -1.135,-1.82 -1.082,-3.88 0.05,-2.048 -0.06,-2.464 -1.092,-3.985 -0.632,-0.934 -1.799,-2.882 -2.594,-4.33 -1.047,-1.909 -1.884,-2.934 -3.045,-3.733 -1.413,-0.972 -1.862,-1.646 -3.81,-5.724 -3.207,-6.715 -6.144,-10.797 -7.767,-10.797 -0.421,0 -1.165,0.314 -1.653,0.699 -2.745,2.158 -3.984,1.492 -6.627,-3.561 -2.166,-4.141 -3.861,-6.134 -7.926,-9.323 -1.553,-1.218 -3.299,-2.719 -3.881,-3.335 l -1.058,-1.121 1.94,0.874 c 12.365,5.57 11.968,5.266 12.264,9.399 0.25,3.498 0.687,3.772 4.079,2.56 l 2.539,-0.907 1.954,0.895 c 2.619,1.199 5.243,3.948 7.009,7.341 1.283,2.467 1.717,2.962 3.823,4.369 1.306,0.873 2.566,1.901 2.8,2.286 0.233,0.384 1.223,1.133 2.2,1.665 1.41,0.767 1.934,1.315 2.541,2.66 0.421,0.932 0.949,1.764 1.173,1.85 0.704,0.27 9.75,-2.77 13.064,-4.391 l 3.175,-1.553 h 6.35 c 6.986,0 6.433,0.139 10.583,-2.651 3.419,-2.298 5.622,-3.359 9.24,-4.454 2.67,-0.808 3.694,-0.934 7.274,-0.896 l 4.167,0.04 0.366,-1.048 c 0.453,-1.3 1.245,-1.348 4.349,-0.265 2.186,0.763 2.265,0.767 2.964,0.134 0.396,-0.358 0.989,-1.358 1.319,-2.223 0.507,-1.328 0.543,-1.943 0.23,-3.968 -0.404,-2.609 0.09,-7.221 1.173,-10.954 0.805,-2.775 0.455,-4.397 -1.942,-8.984 -2.351,-4.501 -3.022,-6.966 -2.545,-9.36 l 0.315,-1.588 0.04,1.864 c 0.05,2.365 1.066,4.404 3.86,7.739 4.119,4.917 4.883,7.139 5.188,15.092 0.217,5.682 0.744,9.844 1.405,11.112 0.254,0.485 0.939,1.413 1.524,2.063 0.818,0.91 1.161,1.76 1.494,3.704 0.614,3.594 0.495,5.409 -0.534,8.145 -1.137,3.02 -1.142,4.691 -0.02,6.902 1.003,1.979 1.054,2.522 0.449,4.783 -0.383,1.434 -0.357,1.745 0.235,2.739 2.326,3.904 8.007,15.66 8.178,16.923 0.143,1.05 -0.01,2.052 -0.537,3.424 -0.778,2.04 -0.922,3.401 -0.441,4.158 0.225,0.356 0.909,0.225 3.152,-0.602 1.576,-0.581 4.948,-1.62 7.494,-2.31 5.1,-1.382 5.965,-1.755 8.81,-3.794 l 1.941,-1.392 -1.764,0.238 c -0.97,0.13 -2.32,0.381 -2.999,0.556 -0.679,0.176 -1.552,0.308 -1.94,0.294 -1.858,-0.07 8.384,-3.696 13.269,-4.697 6.788,-1.392 11.478,-1.494 15.962,-0.348 2.481,0.634 2.935,0.45 0.899,-0.365 -5.046,-2.019 -12.427,-2.404 -21.134,-1.102 -0.697,0.104 -0.146,-0.187 1.263,-0.667 8.795,-2.998 18.764,-3.016 25.636,-0.05 3.064,1.324 3.549,1.217 1.124,-0.248 -2.431,-1.468 -5.481,-2.663 -8.039,-3.148 -1.261,-0.239 -2.217,-0.56 -2.122,-0.712 0.305,-0.495 7.984,-0.306 10.112,0.248 3.156,0.822 6.197,2.545 8.427,4.775 1.126,1.126 2.145,1.889 2.264,1.697 0.119,-0.193 1.315,-0.854 2.658,-1.469 l 2.442,-1.119 -0.892,-1.304 c -1.109,-1.62 -1.122,-2.422 -0.06,-3.696 0.455,-0.548 0.94,-1.473 1.077,-2.055 0.137,-0.582 1.074,-2.487 2.082,-4.234 l 1.833,-3.175 0.04,-4.233 c 0.05,-5.439 0.92,-11.263 1.889,-12.592 0.396,-0.544 1.038,-1.427 1.425,-1.96 0.506,-0.696 0.761,-1.767 0.904,-3.792 0.11,-1.553 0.528,-4.224 0.93,-5.938 0.925,-3.947 0.744,-5.819 -0.958,-9.931 -1.748,-4.222 -1.632,-5.953 0.679,-10.192 1.851,-3.397 1.934,-4.12 1.063,-9.229 -0.768,-4.507 -0.498,-5.682 0.441,-1.921 0.413,1.654 1.401,4.45 2.195,6.214 0.795,1.764 1.717,4.248 2.051,5.52 l 0.606,2.312 -0.956,2.329 c -0.526,1.281 -0.956,2.632 -0.956,3.003 0,0.371 0.809,1.439 1.799,2.374 2.975,2.811 3.316,3.748 3.316,9.109 0,3.468 -0.2,5.521 -0.822,8.425 -0.719,3.36 -0.773,4.12 -0.431,6.082 0.215,1.233 0.476,2.522 0.58,2.863 0.104,0.342 -0.07,0.183 -0.376,-0.352 -0.536,-0.925 -1.618,-4.906 -2.107,-7.758 -0.125,-0.728 -0.357,-1.323 -0.516,-1.323 -0.553,0 -2.115,2.656 -2.452,4.17 -0.186,0.839 -0.591,1.804 -0.9,2.145 -0.308,0.341 -0.561,1.202 -0.561,1.913 0,1.101 -0.341,1.666 -2.284,3.783 -2.97,3.237 -3.325,4.358 -2.537,8.025 0.942,4.381 0.668,6.459 -1.037,7.859 -0.337,0.277 -1.046,1.186 -1.577,2.02 -0.853,1.339 -0.924,1.668 -0.613,2.822 0.194,0.718 0.47,1.43 0.613,1.582 0.143,0.151 1.194,0.03 2.335,-0.265 2.749,-0.716 10.401,-0.709 15.275,0.01 5.061,0.752 5.689,1.228 1.275,0.967 -3.563,-0.21 -8.275,0.09 -8.274,0.534 0,0.297 9.811,3.054 13.531,3.803 1.716,0.346 3.968,0.512 5.909,0.436 1.726,-0.07 3.137,-0.1 3.137,-0.07 0,0.03 -1.27,0.561 -2.822,1.186 -1.552,0.626 -2.822,1.248 -2.822,1.382 0,0.423 2.247,2.397 3.376,2.965 2.792,1.404 7.594,1.859 11.778,1.115 0.493,-0.09 -0.287,0.242 -1.735,0.732 -1.447,0.491 -2.715,0.976 -2.817,1.078 -0.102,0.102 1.566,0.07 3.706,-0.06 3.833,-0.243 10.29,0.248 11.92,0.905 0.71,0.286 0.698,0.308 -0.194,0.329 -0.524,0.01 -1.867,0.26 -2.984,0.551 -1.118,0.291 -3.383,0.529 -5.035,0.529 -2.765,0 -2.943,0.04 -2.25,0.528 1.484,1.039 6.018,2.615 11.046,3.84 2.813,0.685 5.909,1.577 6.879,1.983 0.97,0.405 1.367,0.642 0.882,0.526 -0.485,-0.116 -3.502,-0.355 -6.703,-0.531 -3.201,-0.175 -6.456,-0.481 -7.232,-0.678 -1.619,-0.412 -2.143,-0.461 -1.857,-0.175 0.391,0.391 4.027,1.194 7.815,1.726 4.634,0.65 8.253,1.494 13.546,3.16 22.114,6.959 43.291,7.952 60.297,2.829 9.351,-2.818 18.442,-7.15 27.091,-12.911 11.219,-7.474 21.225,-17.415 36.512,-36.28 8.089,-9.983 13.723,-15.108 18.623,-16.941 2.289,-0.857 6.597,-1.379 6.384,-0.775 -0.08,0.213 -2.446,3.373 -5.269,7.023 -8.334,10.776 -12.394,16.629 -20.327,29.306 -7.056,11.276 -11.326,17.183 -17.78,24.602 -6.499,7.471 -12.824,13.247 -20.26,18.502 -16.15,11.412 -32.612,16.78 -52.09,16.985 -9.584,0.101 -16.507,0.512 -16.981,1.008 -0.341,0.356 -0.199,0.397 0.71,0.206 0.625,-0.132 2.292,-0.07 3.704,0.141 1.413,0.209 4.083,0.534 5.934,0.721 3.489,0.353 5.861,1.011 7.388,2.05 l 0.888,0.604 -1.588,0.176 -1.587,0.177 1.794,1.234 c 2.016,1.388 7.173,5.43 7.068,5.54 -0.04,0.04 -0.856,-0.303 -1.819,-0.762 -0.963,-0.458 -2.199,-0.933 -2.746,-1.054 -0.858,-0.191 -0.633,0.135 1.629,2.369 1.953,1.927 2.947,3.263 3.884,5.216 1.339,2.795 2.232,6.801 1.852,8.315 -0.201,0.802 -0.488,0.394 -2.296,-3.268 -3.032,-6.14 -7.578,-11.091 -12.478,-13.591 -2.039,-1.04 -1.905,-0.588 0.268,0.909 3.05,2.1 7.508,6.973 8.689,9.497 1.246,2.663 1.608,4.964 1.009,6.409 -0.379,0.915 -0.46,0.962 -0.596,0.352 -0.09,-0.388 -0.357,-0.943 -0.6,-1.234 -0.243,-0.291 -1.014,-1.72 -1.713,-3.175 -0.698,-1.456 -1.675,-3.123 -2.169,-3.705 -0.803,-0.944 -0.768,-0.792 0.324,1.412 1.535,3.097 2.308,6.342 2.269,9.525 -0.03,2.646 -0.557,5.278 -0.633,3.175 -0.07,-2.017 -1.743,-8.562 -2.621,-10.275 -1.317,-2.567 -2.156,-3.508 -1.249,-1.4 0.41,0.952 1.279,3.85 1.931,6.44 l 1.186,4.709 -0.537,2.833 c -0.551,2.904 -1.148,4.84 -1.189,3.856 -0.109,-2.627 -1.23,-9.535 -1.791,-11.034 -0.686,-1.833 -2.085,-4.088 -1.612,-2.598 1.172,3.691 1.613,6.494 1.575,9.997 -0.07,6.223 -0.416,6.631 -1.153,1.352 -0.465,-3.334 -1.101,-5.934 -2.332,-9.525 -2.081,-6.075 -3.232,-8.705 -3.435,-7.846 -0.187,0.789 0.295,2.272 2.378,7.317 2.16,5.233 2.557,7.573 2.148,12.664 -0.346,4.296 -0.727,5.54 -0.76,2.476 -0.01,-1.051 -0.323,-3.022 -0.694,-4.38 -0.371,-1.359 -1.09,-4.375 -1.598,-6.703 -0.82,-3.766 -2.165,-7.811 -2.488,-7.488 -0.07,0.07 0.02,0.666 0.192,1.334 0.777,3.031 2.844,11.916 2.836,12.194 0,0.171 -0.393,-0.627 -0.864,-1.772 -0.809,-1.969 -3.057,-4.827 -3.277,-4.167 -0.06,0.168 0.21,1.326 0.59,2.572 l 0.692,2.266 -1.489,-1.669 c -1.054,-1.181 -1.5,-1.49 -1.528,-1.058 -0.02,0.336 -0.181,1.563 -0.357,2.727 l -0.318,2.116 -0.28,-1.411 c -0.336,-1.689 -1.259,-3.351 -1.861,-3.351 -0.327,0 -0.346,0.255 -0.07,1.033 0.198,0.569 0.309,1.482 0.246,2.029 -0.101,0.876 -0.269,0.678 -1.405,-1.651 -0.709,-1.455 -2,-3.642 -2.868,-4.86 l -1.579,-2.215 -0.02,1.479 c -0.01,0.814 0.388,2.903 0.887,4.642 0.891,3.109 0.898,3.21 0.364,5.918 -0.298,1.515 -0.915,3.572 -1.369,4.57 l -0.827,1.816 -0.07,-3.47 c -0.04,-2.064 -0.282,-4.042 -0.598,-4.881 -0.508,-1.353 -0.528,-1.187 -0.49,3.968 0.02,2.958 -0.07,5.485 -0.197,5.615 -0.129,0.129 -0.251,-0.783 -0.271,-2.028 -0.02,-1.245 -0.14,-2.638 -0.268,-3.095 -0.215,-0.766 -0.287,-0.71 -0.919,0.706 l -0.685,1.536 -0.409,-2.998 c -0.675,-4.955 -1.259,-7.35 -1.591,-6.527 -0.157,0.388 -0.935,2.373 -1.73,4.41 -0.794,2.037 -2.19,4.943 -3.1,6.457 -1.614,2.683 -1.663,2.728 -1.945,1.764 -0.159,-0.544 -0.187,-3.172 -0.06,-5.84 0.125,-2.668 0.14,-4.85 0.03,-4.85 -0.721,0 -2.853,6.815 -3.228,10.32 -0.238,2.225 -0.209,2.338 1.438,5.489 2.158,4.129 2.203,5.343 0.313,8.487 -3.014,5.013 -1.166,8.924 7.126,15.077 2.164,1.606 4.545,3.669 5.292,4.583 2.285,2.801 2.501,2.963 3.948,2.963 0.983,0 1.956,-0.387 3.532,-1.406 3.137,-2.027 4.826,-2.828 5.946,-2.819 1.21,0 3.574,1.055 5.217,2.309 0.856,0.653 2.064,1.082 3.977,1.414 6.742,1.17 9.411,2.619 11.856,6.434 2.502,3.904 4.502,5.226 10.016,6.625 4.826,1.224 5.98,1.147 8.831,-0.592 2.223,-1.356 2.486,-1.43 4.478,-1.271 2.709,0.217 7.901,1.978 9.559,3.243 0.706,0.538 1.598,1.512 1.982,2.164 0.633,1.071 0.858,1.186 2.341,1.197 3.725,0.03 6.959,1.807 14.199,7.82 6.196,5.145 8.069,6.219 13.724,7.87 2.425,0.707 5.044,1.563 5.82,1.9 l 1.412,0.614 h -2.999 c -1.649,0 -4.666,0.06 -6.703,0.136 -4.078,0.147 -5.278,-0.178 -9.187,-2.492 -1.059,-0.627 -3.162,-1.671 -4.673,-2.32 -2.913,-1.25 -4.875,-2.476 -7.987,-4.989 -1.316,-1.063 -2.136,-1.489 -2.623,-1.361 -0.39,0.102 -2.386,-0.357 -4.435,-1.019 -2.05,-0.662 -4.6,-1.463 -5.667,-1.78 -1.067,-0.318 -2.862,-1.135 -3.988,-1.817 -1.97,-1.192 -2.074,-1.215 -2.734,-0.618 -0.985,0.891 -0.863,1.45 0.909,4.185 0.869,1.342 1.575,2.691 1.569,2.999 0,0.456 -0.08,0.438 -0.391,-0.09 -0.209,-0.359 -1.196,-1.022 -2.194,-1.472 -0.998,-0.45 -2.687,-1.394 -3.754,-2.098 -1.44,-0.949 -2.168,-1.223 -2.823,-1.064 -2.585,0.63 -2.545,0.643 -6.879,-2.106 -4.12,-2.614 -5.626,-3.933 -8.398,-7.358 -1.527,-1.886 -2.567,-2.482 -7.701,-4.412 -2.011,-0.755 -4.803,-1.952 -6.205,-2.659 l -2.549,-1.284 h -8.276 c -4.552,0 -8.658,0.145 -9.125,0.322 -0.467,0.178 -1.59,0.965 -2.496,1.749 -1.945,1.683 -3.548,2.214 -5.415,1.793 -0.742,-0.167 -1.474,-0.167 -1.642,0 -0.166,0.166 -0.836,2.537 -1.489,5.269 -1.264,5.284 -1.908,6.845 -4.079,9.886 -1.843,2.583 -1.808,3.605 0.212,6.206 l 1.573,2.027 -0.586,1.279 c -0.329,0.718 -0.594,2.207 -0.604,3.395 -0.01,1.915 -0.16,2.316 -1.516,4.203 -1.176,1.636 -1.5,2.395 -1.5,3.52 0,1.358 0.202,1.631 3.793,5.146 2.327,2.277 4.182,4.44 4.802,5.595 0.991,1.85 0.998,1.908 0.424,3.182 -0.58,1.285 -0.573,1.326 0.631,3.937 0.669,1.452 2.024,3.971 3.012,5.6 1.539,2.539 1.766,3.141 1.593,4.233 -0.167,1.056 -0.02,1.514 0.883,2.684 2.083,2.709 2.866,4.07 4.512,7.842 1.349,3.094 2.033,4.177 3.676,5.828 1.769,1.778 2.188,2.029 3.394,2.029 0.757,0 2.088,-0.243 2.957,-0.539 1.406,-0.479 1.744,-0.48 3.072,-0.01 2.263,0.799 5.076,2.811 7.99,5.715 4.983,4.967 7.828,5.225 10.422,0.944 1.303,-2.15 1.952,-2.623 3.035,-2.214 1.032,0.39 1.976,1.86 2.938,4.572 0.447,1.262 1.172,3.008 1.612,3.881 1.002,1.987 4.456,5.313 7.98,7.682 3.068,2.064 3.468,2.626 5.768,8.119 2.051,4.898 3.623,7.071 8.222,11.367 2.002,1.87 3.972,4.063 4.467,4.974 0.488,0.896 1.381,3.833 1.985,6.527 1.251,5.585 1.583,6.494 3.45,9.461 1.277,2.03 3.41,6.832 3.149,7.093 -0.07,0.07 -0.554,-0.706 -1.084,-1.718 -0.53,-1.011 -1.613,-2.626 -2.408,-3.588 -1.943,-2.351 -2.949,-4.432 -3.85,-7.958 -0.988,-3.87 -1.365,-4.723 -3.453,-7.8 -2.002,-2.951 -3.363,-4.426 -7.188,-7.792 -3.09,-2.718 -4.068,-4.408 -5.257,-9.081 -1.13,-4.444 -2.01,-5.939 -4.573,-7.776 -5.545,-3.974 -6.308,-4.585 -7.209,-5.765 -0.527,-0.691 -1.416,-2.38 -1.974,-3.753 -1.674,-4.112 -1.695,-4.125 -3.418,-2.125 -1.766,2.051 -3.96,3.191 -6.137,3.191 -1.638,0 -2.347,-0.382 -7.528,-4.054 -2.276,-1.613 -5.034,-2.635 -7.812,-2.894 -2.97,-0.277 -3.799,0.267 -4.542,2.982 -0.859,3.139 -1.394,4.102 -2.8,5.039 -2.098,1.4 -3.282,4.26 -4.586,11.076 -0.926,4.837 -3.229,8.566 -6.239,10.102 -1.683,0.858 -2.275,0.851 -5.282,-0.06 -2.274,-0.691 -2.502,-0.703 -3.312,-0.172 -0.479,0.313 -0.963,1.005 -1.076,1.536 -0.41,1.915 -0.832,2.468 -2.685,3.513 -1.036,0.585 -2.591,1.838 -3.455,2.786 -0.865,0.947 -1.891,1.953 -2.281,2.236 -0.691,0.502 -0.69,0.488 0.02,-0.529 0.403,-0.574 1.878,-3.306 3.276,-6.072 3.45,-6.819 4.543,-7.616 9.334,-6.796 2.376,0.406 2.671,0.384 4.293,-0.324 2.864,-1.25 2.934,-1.419 4.222,-10.244 0.712,-4.872 1.702,-6.973 4.587,-9.734 2.144,-2.051 2.282,-2.279 2.282,-3.765 0,-1.438 -0.156,-1.729 -1.717,-3.189 -0.944,-0.883 -2.492,-2.001 -3.439,-2.485 -2.5,-1.275 -3.539,-2.565 -4.671,-5.799 -1.381,-3.945 -1.8,-4.494 -3.82,-5.002 -2.277,-0.572 -3.803,-1.805 -4.967,-4.012 -0.936,-1.775 -0.967,-2.019 -1.048,-8.18 l -0.08,-6.35 -1.99,-3.88 c -3.248,-6.335 -4.524,-7.586 -7.722,-7.578 -1.465,0 -2.214,0.277 -4.41,1.605 -1.915,1.159 -2.898,1.553 -3.558,1.426 -0.501,-0.1 -1.336,0.05 -1.854,0.314 -0.828,0.43 -1.184,0.406 -2.936,-0.197 -2.398,-0.825 -3.696,-0.863 -5.195,-0.152 -2.01,0.954 -3.681,2.614 -6.755,6.706 -3.463,4.61 -5.226,6.283 -8.35,7.921 -5.082,2.665 -5.793,3.818 -6.262,10.148 -0.212,2.855 -0.58,4.931 -1.183,6.659 l -0.875,2.51 0.945,1.723 c 0.519,0.948 1.643,2.713 2.498,3.923 l 1.554,2.199 -0.465,2.387 c -0.256,1.312 -0.607,2.662 -0.781,2.998 -0.174,0.337 -1.659,1.253 -3.3,2.036 -3.363,1.605 -3.725,2.068 -4.611,5.893 -0.728,3.139 -2.509,6.472 -5.175,9.678 -4.21,5.065 -7.844,7.523 -13.039,8.82 -1.608,0.402 -3.279,1.057 -3.714,1.456 -2.065,1.897 -2.999,7.463 -2.848,16.987 l 0.101,6.377 -1.332,3.704 c -1.638,4.555 -1.831,5.398 -2.517,10.978 -0.439,3.575 -1.621,8.861 -2.476,11.07 -0.07,0.194 -0.148,-1.393 -0.164,-3.527 z m 19.37,-124.246 c 0,-4.27 -0.299,-5.896 -0.84,-4.487 -0.281,0.732 -0.272,5.121 0.02,7.878 0.372,3.561 0.818,1.727 0.824,-3.391 z m 2.533,-0.527 c -0.185,-2.001 -0.579,-4.194 -0.875,-4.873 l -0.537,-1.235 -0.03,1.94 c -0.03,1.752 0.797,7.143 1.293,8.467 0.421,1.121 0.483,-0.686 0.148,-4.299 z m 4.878,1.277 c 0.469,-0.95 0.708,-2.141 0.707,-3.528 0,-1.734 -0.183,-2.366 -1.057,-3.681 -1.21,-1.819 -1.278,-1.619 -0.493,1.447 0.659,2.571 0.456,5.017 -0.585,7.057 -0.377,0.74 -0.683,1.471 -0.678,1.625 0.01,0.464 1.352,-1.392 2.106,-2.92 z m -18.913,-2.375 c -0.705,-0.409 -0.607,-0.906 0.453,-2.296 l 0.94,-1.232 -1.028,0.251 c -0.566,0.139 -1.337,0.554 -1.714,0.924 -0.678,0.666 -0.677,0.697 0.09,3.065 0.429,1.316 0.777,2.643 0.774,2.95 0,0.308 0.114,0.679 0.259,0.826 0.146,0.147 0.365,-0.739 0.488,-1.97 0.171,-1.712 0.109,-2.302 -0.265,-2.518 z m 7.307,2.282 c 0.31,-0.906 0.906,-2.521 1.325,-3.588 l 0.762,-1.94 -1.07,1.233 c -1.05,1.211 -1.47,2.308 -1.957,5.117 -0.312,1.794 0.199,1.348 0.94,-0.822 z m -3.712,-2.771 c 0.474,-1.869 0.771,-3.49 0.659,-3.602 -0.322,-0.321 -1.524,1.429 -1.914,2.785 -0.194,0.679 -0.35,2.187 -0.345,3.352 0.01,2.731 0.434,2.062 1.6,-2.535 z m -8.572,-2.381 c 0.716,-1.346 1.223,-2.525 1.127,-2.622 -0.26,-0.26 -2.617,2.098 -3.189,3.189 -0.272,0.518 -0.581,2.106 -0.688,3.528 l -0.194,2.584 0.821,-2.116 c 0.452,-1.164 1.407,-3.218 2.123,-4.563 z m 2.377,1.741 c 1.313,-3.277 1.057,-3.778 -0.921,-1.8 -1.377,1.377 -1.542,2.64 -0.617,4.721 l 0.583,1.312 0.265,-1.588 c 0.146,-0.873 0.457,-2.063 0.69,-2.645 z m -6.422,2.471 c 0.07,-1.844 1.412,-4.788 2.791,-6.121 1.061,-1.026 1.113,-1.148 0.396,-0.934 -2.207,0.66 -3.229,2.017 -3.653,4.848 -0.216,1.44 -0.04,3.44 0.307,3.44 0.06,0 0.134,-0.555 0.159,-1.233 z m -10.355,-1.281 c -0.649,-1.84 -0.653,-4.2 -0.01,-6.669 0.275,-1.061 0.42,-2.008 0.321,-2.106 -0.343,-0.339 -1.878,1.95 -2.103,3.137 -0.228,1.205 0.496,4.146 1.509,6.123 0.73,1.426 0.875,1.182 0.286,-0.485 z m 46.186,-4.044 c 0.03,-1.362 -0.126,-2.051 -0.571,-2.497 -1.029,-1.032 -1.358,-0.208 -0.943,2.362 0.329,2.043 0.27,3.369 -0.232,5.218 -0.09,0.326 0.258,-0.261 0.77,-1.305 0.617,-1.257 0.946,-2.531 0.976,-3.778 z m -21.522,3.801 c 0.671,-1.334 1.003,-2.888 0.616,-2.888 -0.18,0 -0.563,0.675 -0.852,1.5 -0.289,0.824 -0.648,1.803 -0.798,2.174 -0.416,1.025 0.455,0.363 1.034,-0.786 z m 23.75,-3.389 c 0.136,-2.455 0.06,-3.013 -0.583,-4.023 -0.777,-1.23 -1.641,-1.344 -1.544,-0.203 0.03,0.369 0.325,1.385 0.652,2.258 0.436,1.162 0.552,2.287 0.434,4.2 -0.154,2.475 -0.135,2.56 0.36,1.616 0.288,-0.549 0.594,-2.28 0.681,-3.848 z m -12.972,0.513 c -0.427,-0.991 -1.174,-2.115 -1.662,-2.499 -0.948,-0.746 -1.492,-0.665 -0.837,0.125 0.612,0.737 2.873,5.26 2.936,5.873 0.03,0.301 0.12,0.04 0.197,-0.575 0.08,-0.66 -0.179,-1.865 -0.634,-2.924 z m -33.498,1.752 c -0.167,-0.873 -0.224,-2.699 -0.127,-4.057 l 0.177,-2.469 -0.61,1.058 c -0.77,1.335 -0.749,3.769 0.05,5.747 0.754,1.87 0.906,1.788 0.51,-0.279 z m 41.417,-0.97 c 0.102,-0.534 0.287,-1.685 0.411,-2.558 0.205,-1.447 0.18,-1.525 -0.286,-0.882 -0.55,0.762 -1.033,4.41 -0.584,4.41 0.15,0 0.357,-0.436 0.459,-0.97 z m -36.072,-1.306 c -0.328,-0.865 -0.71,-1.685 -0.848,-1.823 -0.448,-0.448 -0.266,1.264 0.27,2.548 0.761,1.821 1.292,1.154 0.578,-0.725 z m 1.501,-2.185 c -0.595,-1.315 -0.62,-1.329 -0.746,-0.426 -0.07,0.514 0.146,1.546 0.485,2.293 0.594,1.314 0.619,1.329 0.745,0.426 0.07,-0.514 -0.146,-1.546 -0.484,-2.293 z m -9.667,-3.418 c 0.02,-0.533 -0.801,-0.03 -1.37,0.833 l -0.559,0.852 0.959,-0.695 c 0.527,-0.383 0.964,-0.828 0.97,-0.99 z m -16.273,-1.315 c 3.072,-2.748 6.889,-4.467 12.787,-5.76 1.462,-0.32 2.817,-1.611 3.714,-3.539 0.698,-1.498 0.835,-2.359 0.838,-5.249 0,-4.06 -0.211,-4.596 -3.27,-8.15 -2.991,-3.476 -3.918,-5.637 -3.703,-8.635 0.193,-2.698 1.103,-5 2.692,-6.81 1.454,-1.656 1.444,-2.178 -0.04,-1.866 -3.152,0.664 -4.562,2.162 -7.771,8.255 -1.271,2.413 -2.104,3.526 -3.386,4.524 -0.935,0.727 -2.161,1.683 -2.724,2.124 l -1.024,0.802 1.129,-0.537 c 1.359,-0.646 2.807,-0.66 5.397,-0.05 l 1.941,0.455 -2.253,0.258 c -3.724,0.426 -5.828,1.421 -8.458,3.999 -1.288,1.263 -1.945,2.04 -1.46,1.727 3.355,-2.165 5.753,-3.442 7.585,-4.039 2.164,-0.704 5.92,-1.215 5.643,-0.768 -0.08,0.137 -1.085,0.588 -2.223,1.003 -2.612,0.953 -6.032,3.143 -8.536,5.467 -2.332,2.165 -3.05,3.18 -1.309,1.852 1.215,-0.927 6.924,-3.532 7.179,-3.277 0.07,0.07 -1.342,0.984 -3.136,2.032 -3.048,1.78 -6.614,4.846 -6.614,5.686 0,0.204 0.625,-0.195 1.39,-0.885 1.731,-1.564 3.23,-2.354 4.466,-2.354 0.936,0 0.928,0.02 -0.423,1.006 -0.757,0.554 -1.694,1.375 -2.082,1.825 -0.743,0.862 -0.467,0.752 1.552,-0.613 2.207,-1.494 5.379,-2.222 9.51,-2.183 3.789,0.03 7.15,0.56 4.066,0.635 -3.067,0.07 -7.759,1.133 -10.27,2.318 -2.229,1.052 -6.352,4.278 -5.964,4.666 0.08,0.08 0.893,-0.369 1.814,-0.99 0.921,-0.622 2.805,-1.561 4.187,-2.089 5.663,-2.16 5.94,-1.614 0.614,1.208 -2.112,1.119 -4.374,2.496 -5.027,3.059 -0.779,0.673 -0.341,0.479 1.273,-0.562 2.958,-1.908 6.898,-3.464 10.193,-4.023 1.332,-0.227 2.485,-0.349 2.561,-0.273 0.08,0.08 -0.9,0.581 -2.171,1.122 -1.271,0.54 -2.259,1.033 -2.196,1.096 0.06,0.06 1.847,-0.429 3.963,-1.093 2.117,-0.665 3.906,-1.151 3.976,-1.081 0.272,0.272 -2.046,1.637 -5.616,3.309 -4.429,2.073 -7.246,3.942 -9.629,6.388 -2.253,2.312 -1.768,2.318 0.812,0.01 z m 30.84,-2.145 c 5.96,-0.399 14.101,-0.163 22.309,0.646 1.165,0.115 2.033,0.115 1.93,0 -0.337,-0.373 -13.096,-1.303 -17.869,-1.303 -4.39,0 -16.806,0.882 -17.574,1.248 -0.361,0.172 0.358,0.134 11.204,-0.593 z m 48.458,-1.932 c -1.335,-1.243 -3.573,-3.013 -4.973,-3.932 -4.31,-2.828 -4.014,-2.597 -3.008,-2.35 0.486,0.119 2.625,0.906 4.756,1.748 2.13,0.843 3.911,1.495 3.958,1.448 0.08,-0.09 -2.682,-4.176 -5.009,-7.406 -0.679,-0.943 -1.235,-1.868 -1.235,-2.056 0,-0.418 1.702,-0.08 3.88,0.768 0.874,0.341 1.905,0.743 2.294,0.895 0.549,0.215 0.47,0.02 -0.353,-0.875 -1.038,-1.129 -5.514,-4.336 -6.496,-4.655 -0.782,-0.254 2.077,-1.781 3.404,-1.818 0.633,-0.02 1.151,-0.121 1.151,-0.228 0,-0.107 -0.718,-0.648 -1.595,-1.201 -1.594,-1.008 -2.457,-2.055 -2.037,-2.475 0.411,-0.411 2.246,-0.228 3.33,0.333 1.683,0.87 1.575,0.332 -0.175,-0.873 -1.559,-1.072 -3.878,-3.559 -3.589,-3.848 0.08,-0.08 0.899,0.109 1.817,0.422 2.791,0.951 2.911,0.633 0.305,-0.813 -1.92,-1.065 -2.663,-1.714 -3.321,-2.905 -1.684,-3.043 -2.91,-4.55 -4.264,-5.241 -1.355,-0.691 -3.523,-0.96 -3.523,-0.436 0,0.147 0.719,1.139 1.598,2.205 2.511,3.045 3.491,5.333 3.461,8.087 -0.03,3.19 -0.74,4.565 -4.181,8.142 -3.312,3.442 -3.578,4.114 -3.239,8.157 0.248,2.955 1.602,5.677 3.414,6.86 0.898,0.587 2.127,0.907 4.46,1.162 1.771,0.194 3.82,0.603 4.552,0.909 0.733,0.306 1.409,0.479 1.504,0.384 0.238,-0.238 -2.636,-1.461 -6.648,-2.828 -3.503,-1.194 -4.921,-1.895 -4.921,-2.434 0,-0.544 3.566,0.07 6.88,1.188 3.232,1.088 6.885,3.277 8.794,5.27 0.567,0.592 1.122,0.982 1.233,0.867 0.111,-0.115 -0.89,-1.227 -2.224,-2.471 z m -21.498,-10.396 c 1.245,-0.603 5.258,-4.466 4.954,-4.769 -0.05,-0.05 -1.909,0.309 -4.139,0.791 -3.741,0.809 -4.142,0.835 -5.182,0.341 -0.825,-0.392 -1.242,-0.916 -1.552,-1.95 -0.791,-2.64 1.081,-5.887 4.718,-8.185 4.427,-2.798 6.252,-5.216 6.252,-8.286 0,-2.633 -0.211,-2.77 -2.117,-1.37 -2.274,1.669 -3.382,2.09 -8.455,3.215 l -4.338,0.962 -4.452,-0.621 c -3.681,-0.514 -4.968,-0.555 -7.44,-0.237 -1.644,0.212 -3.938,0.384 -5.097,0.384 -2.544,0 -7.32,-1.379 -10.174,-2.938 -2.36,-1.288 -3.064,-1.111 -3.575,0.9 -0.431,1.697 0.773,3.832 3.228,5.725 1.019,0.786 2.686,2.067 3.704,2.847 3.402,2.607 4.245,5.785 2.128,8.021 -0.931,0.984 -1.094,1.028 -3.1,0.835 -1.164,-0.112 -2.553,-0.305 -3.086,-0.429 -0.808,-0.188 -0.971,-0.109 -0.971,0.473 0,1.872 3.145,3.949 5.998,3.96 1.982,0 3.314,-0.78 5.304,-3.14 2.611,-3.097 3.108,-3.278 8.675,-3.159 l 4.801,0.103 1.168,-1.274 c 0.642,-0.701 1.258,-1.183 1.369,-1.072 0.111,0.111 0.202,0.975 0.202,1.92 0,0.951 0.242,2.087 0.542,2.545 1.089,1.661 6.762,5.118 8.431,5.137 0.375,0 1.367,-0.324 2.204,-0.729 z m -68.284,-13.551 c 2.329,-3.501 7.353,-8.752 11.013,-11.512 4.324,-3.26 9.051,-5.347 18.577,-8.204 5.674,-1.702 10.504,-5.383 12.54,-9.558 0.934,-1.916 1.05,-2.567 1.262,-7.056 0.128,-2.72 0.339,-5.421 0.47,-6.003 0.163,-0.729 0.133,-0.894 -0.1,-0.529 -0.184,0.291 -0.853,2.592 -1.486,5.115 -1.372,5.46 -2.64,8.052 -5.367,10.971 -2.504,2.68 -5.327,4.208 -11.025,5.966 -9.038,2.79 -13.576,5.226 -18.548,9.957 -3.859,3.673 -5.93,6.384 -7.951,10.405 -2.284,4.548 -2.17,4.632 0.613,0.448 z m 100.851,-1.221 c 0,-0.628 -5.138,-6.518 -7.928,-9.088 -6.479,-5.968 -11.446,-8.229 -20.647,-9.401 -5.312,-0.676 -7.762,-1.614 -10.171,-3.892 -1.044,-0.988 -2.201,-2.22 -2.57,-2.738 -0.584,-0.82 -0.373,-0.742 1.628,0.6 2.601,1.743 7.824,3.576 13.477,4.728 1.962,0.4 3.688,0.727 3.834,0.727 0.146,0 -0.68,-0.472 -1.836,-1.05 -4.655,-2.326 -9.161,-8.528 -10.9,-15.001 -0.879,-3.272 -1.032,-8.866 -0.378,-13.818 0.606,-4.59 0.714,-10.776 0.209,-11.935 -0.296,-0.681 -0.316,-0.677 -0.551,0.113 -0.196,0.653 -0.508,0.05 -1.548,-2.999 -0.717,-2.099 -2.134,-5.563 -3.15,-7.697 -2.294,-4.821 -2.86,-6.932 -2.86,-10.672 0,-3.681 0.686,-7.068 2.663,-13.141 2.146,-6.593 2.849,-10.932 2.306,-14.231 -0.42,-2.548 -2.505,-7.41 -5.037,-11.742 -1.427,-2.443 -3.454,-7.104 -4.549,-10.458 -0.428,-1.313 -0.839,-2.328 -0.912,-2.255 -0.552,0.553 -1.145,7.546 -1.33,15.686 -0.244,10.76 -0.639,13.809 -2.307,17.815 -1.109,2.663 -5.472,9.247 -7.06,10.653 -0.683,0.605 -0.619,0.353 0.447,-1.772 1.202,-2.395 3.287,-8.544 2.996,-8.835 -0.155,-0.155 -3.201,4.598 -6.007,9.373 -2.583,4.397 -9.946,19.352 -10.82,21.977 -0.414,1.244 -0.964,3.277 -1.222,4.518 l -0.47,2.256 -0.272,-2.798 c -0.149,-1.539 -0.193,-5.429 -0.1,-8.643 0.156,-5.215 0.123,-5.698 -0.302,-4.477 -1.388,3.981 -2.402,13.759 -1.891,18.237 0.227,1.985 0.795,3.981 1.924,6.759 1.769,4.349 2.439,5.426 1.909,3.068 -0.384,-1.711 -0.187,-3.9 0.795,-8.795 0.958,-4.78 2.143,-8.117 4.717,-13.288 2.612,-5.248 4.67,-8.07 10.759,-14.752 5.267,-5.781 6.41,-7.308 8.002,-10.695 2.623,-5.584 3.28,-11.96 2.058,-19.972 -0.294,-1.924 -0.485,-3.548 -0.424,-3.608 0.205,-0.205 4.882,10.247 5.779,12.915 0.719,2.139 0.852,3.057 0.681,4.707 -0.199,1.912 -0.581,3.013 -3.342,9.642 -1.522,3.653 -2.875,9.354 -2.875,12.117 0,3.718 1.131,7.283 4.633,14.602 4.76,9.952 4.985,10.639 4.797,14.682 -0.146,3.154 -0.835,8.707 -1.225,9.878 -0.251,0.752 -1.041,-2.838 -1.359,-6.173 l -0.269,-2.823 -0.476,2.999 c -0.826,5.203 -0.06,8.651 3.452,15.522 1.643,3.214 5.308,8.122 7.311,9.788 1.202,1 0.966,0.994 -1.798,-0.05 -4.977,-1.873 -7.703,-3.956 -10.195,-7.787 -3.324,-5.11 -3.539,-9.487 -0.875,-17.83 2.16,-6.764 2.818,-9.728 2.544,-11.453 -0.122,-0.769 -1.474,-3.944 -3.004,-7.055 -3.307,-6.727 -3.606,-7.707 -4.794,-15.703 -0.503,-3.391 -1.115,-7.201 -1.36,-8.467 -0.443,-2.29 -0.447,-2.296 -0.883,-1.243 -0.823,1.988 -1.267,9.347 -0.811,13.429 0.486,4.349 1.082,5.858 3.994,10.109 1.167,1.704 2.529,3.988 3.027,5.076 1.403,3.064 1.097,5.814 -1.498,13.444 l -2.065,6.073 -0.447,-1.664 c -0.246,-0.915 -0.632,-2.351 -0.857,-3.19 -0.496,-1.854 -0.237,-8.759 0.372,-9.897 0.833,-1.557 0.124,-1.576 -0.787,-0.02 -1.991,3.398 -2.174,4.295 -2.152,10.563 0.02,5.265 0.11,6.116 0.961,8.911 1.159,3.807 4.587,11.099 6.739,14.337 1.502,2.259 4.002,4.698 6.316,6.162 0.551,0.348 0.934,0.7 0.853,0.781 -0.325,0.325 -10.838,-0.94 -13.319,-1.603 -1.455,-0.388 -3.003,-0.709 -3.439,-0.712 -0.663,0 -0.792,-0.196 -0.779,-1.153 0,-0.63 0.154,-1.861 0.322,-2.734 0.169,-0.873 0.265,-1.63 0.213,-1.683 -0.05,-0.05 -0.6,0.934 -1.219,2.192 -0.619,1.258 -1.529,2.604 -2.022,2.991 -1.496,1.177 -6.374,2.863 -11.411,3.944 -2.625,0.564 -5.565,1.282 -6.536,1.597 -2.105,0.684 -7.402,3.373 -8.643,4.388 l -0.882,0.722 1.412,-0.687 c 1.293,-0.63 6.129,-2.178 8.318,-2.663 0.501,-0.11 3.153,-0.448 5.894,-0.751 2.741,-0.302 5.744,-0.785 6.674,-1.073 0.93,-0.287 3.855,-0.705 6.5,-0.927 4.278,-0.36 5.089,-0.336 7.363,0.216 1.989,0.484 4.44,0.646 11.067,0.732 13.856,0.181 20.231,1.714 27.561,6.629 2.054,1.377 9.702,8.836 9.702,9.462 0,0.171 0.08,0.311 0.176,0.311 0.1,0 0.176,-0.153 0.176,-0.339 z m -97.275,-9.911 c 3.681,-4.299 9.286,-8.378 16.137,-11.743 3.674,-1.805 3.731,-1.819 7.068,-1.819 3.221,0 3.452,-0.05 5.409,-1.235 1.123,-0.679 3.181,-2.316 4.572,-3.638 2.26,-2.147 2.358,-2.291 0.916,-1.349 -1.412,0.923 -5.051,2.165 -6.343,2.165 -0.245,0 0.519,-0.483 1.699,-1.072 2.811,-1.405 6.187,-4.989 7.568,-8.033 0.563,-1.243 0.967,-2.318 0.896,-2.389 -0.07,-0.07 -1.072,0.989 -2.226,2.354 -1.153,1.366 -2.772,3.028 -3.596,3.695 -0.825,0.666 -2.233,1.802 -3.129,2.523 l -1.63,1.312 1.63,-3.245 c 0.896,-1.785 1.629,-3.473 1.629,-3.751 0,-0.279 -1.759,1.266 -3.91,3.432 -3.667,3.694 -3.849,3.829 -2.93,2.175 0.54,-0.97 1.383,-2.303 1.874,-2.961 l 0.894,-1.197 -1.05,0.557 c -0.578,0.307 -2.293,1.603 -3.811,2.881 -1.519,1.277 -5.646,4.248 -9.173,6.602 -3.526,2.354 -7.285,4.951 -8.352,5.772 -1.944,1.496 -6.35,5.892 -6.35,6.337 0,0.13 0.992,-0.629 2.205,-1.688 1.213,-1.058 3.316,-2.628 4.674,-3.488 2.858,-1.808 7.938,-4.616 7.938,-4.387 0,0.09 -1.31,1.072 -2.911,2.191 -3.904,2.729 -9.948,8.819 -12.203,12.295 -1.001,1.544 -1.818,3.052 -1.816,3.352 0,0.3 0.461,-0.249 1.021,-1.219 0.56,-0.97 2.045,-2.963 3.3,-4.429 z m 64.698,-0.828 c 0.94,-0.854 1.626,-1.639 1.523,-1.744 -0.102,-0.105 -1.055,0.586 -2.117,1.537 -1.061,0.951 -1.747,1.736 -1.523,1.745 0.224,0 1.176,-0.684 2.117,-1.538 z m 26.212,-2.74 c -2.697,-4.048 -5.643,-7.822 -9.796,-12.547 -3.838,-4.367 -5.237,-6.249 -6.904,-9.289 -2.621,-4.781 -3.892,-10.053 -4.518,-18.74 -0.234,-3.238 -0.559,-5.804 -0.723,-5.702 -0.164,0.101 -0.547,0.805 -0.851,1.565 -0.304,0.76 -0.69,1.381 -0.857,1.381 -0.168,0 -0.585,-0.913 -0.929,-2.028 -0.478,-1.555 -0.617,-3.182 -0.596,-6.968 0.02,-4.266 0.207,-5.803 1.345,-11.289 0.724,-3.492 1.553,-7.28 1.841,-8.417 0.288,-1.137 0.453,-2.138 0.367,-2.224 -0.333,-0.334 -3.057,5.862 -3.902,8.878 -1.366,4.874 -1.714,8.333 -1.301,12.954 0.196,2.188 0.668,5.09 1.051,6.448 0.382,1.358 0.8,3.343 0.929,4.41 1.454,11.989 3.762,19.901 7.105,24.348 0.861,1.145 3.414,3.795 5.673,5.889 5.777,5.352 8.966,8.641 11.645,12.009 1.274,1.601 2.383,2.845 2.465,2.763 0.08,-0.08 -0.838,-1.63 -2.044,-3.441 z m -37.732,-0.475 c 0,-0.849 -0.239,-0.62 -1.206,1.152 l -0.914,1.676 1.06,-1.152 c 0.583,-0.634 1.06,-1.388 1.06,-1.676 z m 9.172,1.408 c 0,-0.381 -0.679,-0.122 -1.46,0.555 l -0.833,0.723 1.147,-0.555 c 0.631,-0.306 1.146,-0.631 1.146,-0.723 z m -28.402,0.06 c 0.639,-0.467 0.637,-0.495 -0.09,-0.882 -0.974,-0.521 -1.396,-0.509 -0.863,0.02 0.702,0.702 0.479,0.992 -0.481,0.627 -0.498,-0.19 -1.252,-0.332 -1.676,-0.318 -0.589,0.02 -0.48,0.139 0.464,0.503 1.606,0.618 1.854,0.623 2.642,0.05 z m 16.731,-1.457 c -0.02,-0.909 -0.06,-0.959 -0.323,-0.353 -0.167,0.388 -0.312,1.102 -0.323,1.587 -0.01,0.695 0.05,0.77 0.323,0.353 0.188,-0.291 0.333,-1.005 0.323,-1.587 z m 11.287,0.882 c 1.805,0 2.186,-0.601 0.573,-0.903 -1.472,-0.276 -2.949,0.04 -3.804,0.808 -0.987,0.89 -0.718,1.159 0.606,0.606 0.672,-0.281 1.854,-0.511 2.625,-0.511 z m -23.207,0.09 c -0.352,-0.653 -1.663,-1.917 -2.461,-2.372 -0.85,-0.484 0.178,1.06 1.377,2.069 1.281,1.078 1.541,1.151 1.084,0.303 z m 36.997,-0.09 c 0,-0.194 -0.168,-0.353 -0.374,-0.353 -0.205,0 -0.275,0.159 -0.155,0.353 0.12,0.194 0.288,0.352 0.373,0.352 0.09,0 0.156,-0.158 0.156,-0.352 z m -0.535,-8.203 c -3.968,-4.362 -5.355,-7.03 -6.722,-12.933 -0.992,-4.28 -3.772,-14.519 -3.907,-14.385 -0.301,0.301 0.653,13.871 1.107,15.734 1.258,5.169 4.081,9.138 8.593,12.084 1.437,0.938 2.685,1.705 2.774,1.705 0.09,0 -0.742,-0.992 -1.845,-2.205 z m -21.847,0.411 c -2.408,-2.114 -5.393,-7.42 -7.03,-12.493 -0.931,-2.885 -1.967,-7.988 -2.006,-9.878 l -0.04,-1.764 -0.583,1.235 c -0.452,0.957 -0.579,2.264 -0.567,5.821 0.01,3.903 0.134,4.887 0.811,6.609 1.592,4.046 5.087,8.393 8.492,10.56 2.057,1.31 2.469,1.27 0.92,-0.09 z m -39.707,-8.086 c 1.843,-1.02 4.066,-2.342 4.939,-2.939 4.293,-2.935 6.92,-7.149 7.953,-12.757 1.709,-9.285 3.115,-13.009 6.442,-17.067 4.388,-5.352 5.02,-6.212 5.862,-7.98 0.806,-1.693 2.505,-8.577 2.193,-8.888 -0.08,-0.08 -1,1.453 -2.038,3.414 -1.747,3.298 -5.158,8.322 -5.452,8.028 -0.169,-0.169 1.477,-7.88 1.998,-9.363 0.922,-2.623 -0.07,-1.146 -3.099,4.608 -3.943,7.493 -4.694,9.672 -6.646,19.279 -2.651,13.046 -4.094,15.551 -12.681,22.013 -4.869,3.664 -7.828,6.152 -8.071,6.785 -0.09,0.242 1.05,-0.396 2.54,-1.42 1.49,-1.023 4.217,-2.694 6.06,-3.713 z m 69.631,1.149 c -4.995,-5.593 -8.993,-12.526 -9.545,-16.549 -0.332,-2.423 -0.819,-2.172 -0.819,0.423 0,2.508 0.706,5.455 1.855,7.748 0.746,1.487 4.037,5.813 4.437,5.831 0.129,0 1.742,1.354 3.586,2.995 1.843,1.641 3.397,2.985 3.454,2.988 0.06,0 -1.279,-1.544 -2.968,-3.436 z m -71.042,-5.045 c 4.67,-3.182 5.842,-5.649 6.529,-13.74 0.123,-1.456 0.307,-2.964 0.408,-3.352 l 0.184,-0.705 -0.515,0.705 c -0.283,0.388 -0.941,2.191 -1.461,4.006 -2.008,7.008 -3.67,10.252 -6.917,13.499 -1.843,1.843 -1.381,1.735 1.772,-0.413 z m 0.126,-8.625 c 1.355,-1.876 4.298,-8.218 3.967,-8.549 -0.217,-0.216 -2.184,2.441 -3.586,4.845 -0.736,1.261 -2.668,4.357 -4.293,6.879 l -2.956,4.586 2.669,-2.822 c 1.468,-1.552 3.358,-3.775 4.199,-4.939 z m -6.808,2.679 c 1.633,-1.39 4.404,-4.764 5.321,-6.477 0.529,-0.988 -2.866,1.577 -4.743,3.584 -1.803,1.927 -3.888,5.032 -4.29,6.388 -0.206,0.694 -0.03,0.582 0.813,-0.53 0.59,-0.776 1.895,-2.11 2.899,-2.965 z m 23.203,1.779 c 5.142,-2.093 8.623,-5.98 10.466,-11.69 1.016,-3.145 3.548,-8.32 5.292,-10.815 0.892,-1.277 1.575,-2.363 1.517,-2.416 -0.235,-0.21 -7.808,8.203 -8.417,9.35 -0.361,0.68 -1.071,2.505 -1.579,4.057 -0.507,1.553 -1.325,3.515 -1.816,4.362 -1.09,1.877 -4.552,5.338 -6.965,6.963 -2.174,1.464 -1.76,1.516 1.502,0.189 z m 53.813,-0.137 c -0.145,-0.242 -1.147,-1.534 -2.226,-2.871 -1.079,-1.337 -2.438,-3.038 -3.02,-3.779 -1.556,-1.983 -1.745,-1.67 -0.5,0.83 0.689,1.383 1.894,2.96 3.236,4.233 2,1.896 3.116,2.602 2.51,1.587 z m 0.574,-3.448 c -1.067,-0.957 -2.694,-2.568 -3.616,-3.579 -1.923,-2.109 -2.308,-1.511 -0.435,0.676 1.182,1.381 5.278,4.694 5.762,4.66 0.126,0 -0.643,-0.799 -1.711,-1.757 z m -73.789,-8.512 c 2.134,-4.471 1.415,-3.965 -3.591,2.524 -1.422,1.843 -3.026,4.145 -3.564,5.115 -0.944,1.699 -0.851,1.634 2.529,-1.767 2.649,-2.666 3.783,-4.105 4.626,-5.872 z m 110.923,1.024 c -0.284,-1.6 -0.626,-4.259 -0.76,-5.909 -0.223,-2.729 -0.271,-2.877 -0.539,-1.644 -0.162,0.745 -0.216,2.412 -0.121,3.704 0.183,2.486 1.244,6.76 1.678,6.76 0.142,0 0.03,-1.31 -0.258,-2.911 z m -12.814,-5.027 c 2.429,-6.123 5.312,-15.456 6.395,-20.7 0.676,-3.277 0.733,-4.419 0.57,-11.402 -0.196,-8.374 -0.755,-12.097 -2.582,-17.196 -2.629,-7.336 -8.187,-13.463 -16.885,-18.613 l -1.411,-0.836 1.891,2.026 c 1.04,1.115 1.805,2.112 1.701,2.217 -0.105,0.105 -1.393,-0.439 -2.861,-1.209 -1.469,-0.769 -2.671,-1.266 -2.671,-1.105 0,0.162 0.357,0.486 0.794,0.719 1.517,0.81 9.168,8.613 11.196,11.419 5.512,7.626 7.571,13.894 7.994,24.341 0.163,3.996 0.07,6.242 -0.36,9.173 -0.713,4.804 -4.449,20.946 -5.67,24.491 -1.804,5.244 -0.808,3.498 1.899,-3.325 z m -24.702,0.882 c 1.373,-8.626 1.546,-10.482 1.561,-16.757 0.02,-6.799 -0.512,-10.924 -1.933,-15.078 -0.889,-2.602 -2.252,-5.414 -2.783,-5.741 -0.487,-0.302 -0.143,2.611 0.73,6.179 1.613,6.59 1.821,9.629 1.607,23.46 -0.111,7.179 -0.13,12.894 -0.04,12.7 0.09,-0.194 0.475,-2.337 0.861,-4.763 z m -67.826,-4.304 c -0.307,-1.61 -1.07,-5.468 -1.696,-8.572 -0.955,-4.737 -1.136,-6.41 -1.126,-10.407 0.01,-5.101 -0.04,-4.83 3.024,-14.817 0.686,-2.231 1.355,-5.009 1.487,-6.173 l 0.241,-2.117 -1.168,1.617 c -2.123,2.938 -4.833,9.068 -5.446,12.318 -0.867,4.6 -0.512,14.757 0.695,19.845 0.835,3.519 4.008,11.773 4.382,11.399 0.09,-0.09 -0.09,-1.483 -0.393,-3.093 z m 25.832,-5.36 c 1.844,-2.414 3.113,-5.027 3.745,-7.703 0.558,-2.37 0.729,-8.197 0.231,-7.889 -0.165,0.102 -0.669,1.501 -1.12,3.108 -1.888,6.731 -4.031,10.955 -8.103,15.975 -1.102,1.358 -2.381,3.104 -2.842,3.88 -0.706,1.189 -0.243,0.86 2.937,-2.079 2.077,-1.92 4.395,-4.301 5.152,-5.292 z m -59.229,4.859 c 0.01,-2.235 1.783,-7.995 4.734,-15.384 1.666,-4.174 3.93,-10.03 5.029,-13.014 l 1.999,-5.426 0.13,-4.939 c 0.119,-4.509 0.08,-4.862 -0.397,-4.057 -0.291,0.485 -0.534,1.209 -0.541,1.609 -0.04,2.578 -3.165,11.076 -6.524,17.764 -1.884,3.753 -3.5,8.28 -4.249,11.905 -0.684,3.313 -1.14,13.986 -0.562,13.172 0.207,-0.291 0.378,-1.025 0.381,-1.63 z m 24.923,-6.151 c 2.752,-8.415 2.824,-9.254 1.4,-16.258 -1.526,-7.508 -1.741,-7.502 -2.009,0.05 -0.128,3.59 -0.49,8.114 -0.805,10.055 -0.315,1.94 -0.658,5.115 -0.761,7.055 -0.104,1.94 -0.263,4.23 -0.355,5.087 -0.09,0.858 -0.09,1.484 0,1.391 0.09,-0.09 1.23,-3.414 2.527,-7.38 z m 88.376,6.413 c 1.96,-1.243 3.123,-3.032 3.123,-4.805 0,-1.056 -0.248,-1.562 -1.209,-2.469 -0.665,-0.627 -1.538,-1.226 -1.94,-1.331 -0.641,-0.168 -0.732,-0.03 -0.737,1.099 -0.01,2.438 -1.485,4.154 -1.879,2.185 -0.118,-0.589 -0.381,-1.072 -0.585,-1.072 -0.796,0 -3.528,3.153 -3.528,4.071 0,3.068 3.618,4.312 6.755,2.322 z m -93.884,0.13 c 1.173,-0.607 1.757,-1.513 1.757,-2.726 0,-0.887 -1.891,-4.15 -2.405,-4.15 -0.167,0 -0.485,0.397 -0.706,0.882 -0.221,0.485 -0.619,0.882 -0.884,0.882 -0.776,0 -1.663,-1.223 -1.887,-2.602 -0.239,-1.474 -0.136,-1.426 -1.686,-0.779 -1.421,0.594 -1.957,1.47 -1.957,3.199 0,3.872 4.538,6.964 7.768,5.294 z m 15.481,-2.852 c -0.519,-3.658 -0.24,-7.337 1.042,-13.759 0.578,-2.892 1.641,-8.274 2.362,-11.96 0.722,-3.687 1.68,-7.729 2.13,-8.983 0.45,-1.254 0.763,-2.335 0.696,-2.402 -0.07,-0.07 -0.436,0.324 -0.82,0.869 -2.579,3.655 -5.297,12.352 -6.593,21.099 -0.469,3.166 -0.471,3.169 -0.509,1.076 -0.03,-1.502 -0.146,-1.991 -0.418,-1.718 -0.6,0.599 -0.512,7.991 0.138,11.609 0.528,2.944 1.934,7.391 2.239,7.086 0.07,-0.07 -0.05,-1.383 -0.267,-2.917 z m 91.273,-8.387 c 0.831,-4.088 0.529,-10.566 -0.719,-15.392 -2.389,-9.237 -4.812,-15.843 -8.006,-21.828 -2.832,-5.306 -4.978,-8.193 -8.672,-11.667 l -3.462,-3.256 2.24,1.112 c 1.232,0.612 2.308,1.046 2.39,0.963 0.168,-0.167 -2.7,-2.673 -5.351,-4.674 -0.962,-0.727 -2.772,-2.211 -4.022,-3.299 l -2.274,-1.978 4.147,-0.227 c 2.281,-0.124 4.246,-0.325 4.366,-0.446 0.536,-0.536 -0.754,-0.953 -4.513,-1.457 -4.866,-0.653 -7.202,-1.679 -12.877,-5.652 -3.986,-2.79 -5.759,-3.844 -6.023,-3.579 -0.33,0.329 3.109,4.11 6.784,7.459 6.611,6.024 17.576,17.483 18.755,19.601 1.764,3.169 2.533,6.312 2.909,11.9 0.359,5.326 1.122,8.396 3.015,12.13 2.33,4.598 3.902,10.362 4.102,15.039 0.06,1.405 0.206,2.556 0.324,2.557 0.297,0 0.668,-3.818 0.668,-6.883 0,-3.525 -0.807,-7.81 -2.435,-12.939 -1.322,-4.163 -2.604,-9.474 -2.349,-9.729 0.07,-0.07 0.563,1.039 1.104,2.457 0.541,1.418 1.687,4.086 2.547,5.929 3.799,8.144 5.36,13.483 5.364,18.345 0,1.65 -0.315,5.777 -0.703,9.172 -0.388,3.395 -0.697,6.57 -0.687,7.055 0.03,1.172 2.66,-7.185 3.378,-10.713 z m -158.323,6.724 c 1.38,-2.123 2.263,-3.772 2.02,-3.772 -0.772,0 -3.344,3.99 -3.865,5.997 -0.262,1.01 -0.232,0.974 1.845,-2.225 z m 206.604,-2.087 c -0.513,-1.784 -1.169,-3.648 -1.457,-4.14 -0.298,-0.509 -0.434,-0.605 -0.315,-0.223 0.601,1.935 1.936,6.914 2.184,8.146 0.252,1.255 0.297,1.304 0.403,0.437 0.07,-0.536 -0.301,-2.435 -0.815,-4.22 z m -214.226,1.226 c 3.033,-4.593 3.118,-4.834 0.893,-2.524 -1.781,1.848 -2.684,3.284 -3.253,5.169 -0.132,0.437 -0.166,0.794 -0.08,0.794 0.09,0 1.186,-1.548 2.436,-3.439 z m 137.657,-10.134 c 0.105,-4.551 0.05,-7.582 -0.138,-7.39 -0.654,0.674 -1.429,4.765 -1.429,7.539 0,2.53 0.902,8.053 1.257,7.698 0.07,-0.07 0.212,-3.603 0.31,-7.847 z m 7.056,2.99 c 0.328,-1.649 1.303,-5.929 2.167,-9.511 3.115,-12.91 3.459,-17.457 1.901,-25.106 -1.345,-6.6 -3.37,-10.258 -8.672,-15.664 -2.436,-2.484 -11.125,-9.759 -11.367,-9.517 -0.469,0.469 5.303,7.192 9.54,11.112 4.423,4.092 7.497,8.726 8.881,13.385 0.845,2.846 0.638,3.37 -0.288,0.729 -1.764,-5.031 -4.56,-9.208 -7.838,-11.708 -1.136,-0.866 -4.288,-3.054 -7.004,-4.861 -2.717,-1.808 -6.122,-4.336 -7.567,-5.618 -3.066,-2.719 -2.96,-2.418 0.669,1.902 6.45,7.678 8.499,11.757 11.867,23.622 0.714,2.515 1.972,6.166 2.796,8.114 0.824,1.948 1.695,4.177 1.936,4.953 0.456,1.468 1.299,2.721 0.95,1.411 -0.104,-0.388 -0.294,-1.976 -0.422,-3.528 -0.357,-4.299 -1.241,-8.704 -4.059,-20.223 -0.276,-1.128 -0.262,-1.15 0.371,-0.578 1.149,1.04 4.23,5.736 5.261,8.017 2.591,5.739 2.905,11.997 1.119,22.354 -0.772,4.476 -1.103,7.536 -1.103,10.201 0,2.093 0.06,3.74 0.133,3.66 0.07,-0.08 0.402,-1.497 0.729,-3.146 z m 3.046,-31.603 c 0.02,-0.411 0.101,-0.495 0.213,-0.213 0.102,0.254 0.09,0.559 -0.03,0.676 -0.118,0.117 -0.201,-0.09 -0.186,-0.463 z m -14.149,32.453 c -0.782,-2.367 -0.248,-6.81 1.436,-11.963 1.36,-4.16 1.515,-4.998 1.664,-9.023 0.124,-3.334 0.01,-5.221 -0.45,-7.585 -1.517,-7.769 -5.983,-16.716 -13.456,-26.96 -3.363,-4.609 -10.317,-12.85 -10.603,-12.564 -0.535,0.534 3.45,6.667 9.179,14.128 2.448,3.189 5.115,7.648 6.817,11.398 1.494,3.291 1.502,3.299 -3.069,-2.907 -2.001,-2.717 -4.267,-5.733 -5.035,-6.703 -1.271,-1.604 -1.374,-1.668 -1.139,-0.706 0.143,0.582 1.279,3.242 2.525,5.91 3.091,6.618 3.822,9.323 3.838,14.199 0.02,4.657 -0.284,5.69 -3.763,12.977 -1.37,2.868 -2.429,5.277 -2.354,5.351 0.145,0.146 2.943,-3.099 5.717,-6.633 2.059,-2.622 4.747,-7.918 5.336,-10.511 l 0.428,-1.89 0.573,2.646 c 1.408,6.506 1.61,9.984 0.943,16.228 -0.939,8.805 -0.803,11.325 0.795,14.725 0.853,1.816 1.232,1.744 0.618,-0.117 z m -13.256,-2.173 c 0.307,-2.636 1.739,-8.297 3.054,-12.069 0.572,-1.642 1.04,-3.15 1.039,-3.352 0,-0.854 -2.881,4.052 -3.544,6.042 -1.048,3.143 -1.838,11.407 -1.09,11.407 0.168,0 0.411,-0.912 0.541,-2.028 z m 8.223,-1.941 c 0.08,-3.445 1.352,-14.324 1.893,-16.26 0.676,-2.417 0.112,-1.731 -1.183,1.438 -1.753,4.291 -2.013,5.459 -2.015,9.061 0,3.375 0.691,8.674 1.134,8.672 0.05,0 0.131,-1.31 0.171,-2.911 z m 48.528,0.353 c -1.186,-2.854 -1.481,-7.559 -0.671,-10.671 1.003,-3.851 1.04,-5.713 0.229,-11.465 -0.424,-3.008 -1.075,-6.856 -1.446,-8.551 -0.371,-1.696 -0.675,-3.187 -0.675,-3.313 0,-0.408 4.236,4.92 5.72,7.195 0.793,1.216 1.51,2.143 1.592,2.061 0.193,-0.193 -1.835,-4.849 -3.013,-6.917 -3.636,-6.384 -10.467,-14.496 -14.529,-17.255 -1.843,-1.252 -7.964,-4.618 -8.397,-4.618 -0.113,0 1.576,1.685 3.752,3.743 4.608,4.358 6.568,6.793 8.709,10.816 4.477,8.417 6.28,16.951 5.53,26.187 -0.466,5.747 -0.194,7.453 1.864,11.684 1.81,3.72 2.742,4.491 1.335,1.104 z m -8.721,-4.249 c 0.378,-6.653 -1.132,-15.43 -3.669,-21.326 -0.866,-2.013 -4.994,-9.371 -4.987,-8.89 0,0.09 0.959,3.412 2.128,7.39 3.472,11.808 5.56,21.932 5.661,27.446 0.05,3.004 0.599,0.104 0.867,-4.62 z m -121.216,2.927 c 0.44,-1.068 1.796,-3.766 3.014,-5.998 4.141,-7.587 6.443,-12.514 8.142,-17.427 2.002,-5.79 3.761,-9.313 6.765,-13.553 2.923,-4.125 6.083,-7.325 13.437,-13.605 3.362,-2.871 6.037,-5.295 5.946,-5.386 -0.09,-0.09 -1.652,0.578 -3.467,1.489 -8.13,4.081 -14.971,11.451 -20.771,22.377 -1.597,3.007 -3.684,6.85 -4.638,8.539 -4.085,7.232 -6.485,13.266 -8.568,21.548 -1.197,4.759 -1.167,5.189 0.14,2.016 z m 70.345,-2.734 c -0.194,-5.626 0.05,-7.53 2.332,-17.904 0.954,-4.348 1.876,-13.021 1.331,-12.524 -0.106,0.1 -0.825,1.844 -1.598,3.881 -3.736,9.855 -4.641,16.198 -3.423,23.989 0.735,4.699 1.298,7.761 1.427,7.761 0.06,0 0.03,-2.342 -0.07,-5.203 z m -84.063,0.793 c -0.292,-3.339 0.117,-8.15 0.894,-10.495 0.305,-0.921 0.623,-1.676 0.705,-1.676 0.08,0 0.05,1.566 -0.08,3.479 -0.216,3.292 0.284,9.425 0.904,11.102 0.143,0.388 0.272,-1.186 0.286,-3.498 0.04,-6.791 1.494,-11.096 5.958,-17.635 2.143,-3.138 4.198,-7.532 3.917,-8.374 -0.105,-0.316 -4.65,4.732 -7.261,8.065 -0.536,0.684 -0.728,0.799 -0.562,0.335 0.139,-0.388 0.859,-2.695 1.6,-5.126 1.496,-4.907 2.691,-7.723 4.442,-10.467 1.589,-2.491 1.472,-2.688 -0.301,-0.508 -0.81,0.995 -1.543,1.738 -1.63,1.651 -0.255,-0.254 1.654,-3.357 3.516,-5.716 0.943,-1.197 3.022,-3.366 4.619,-4.821 1.598,-1.455 2.796,-2.754 2.665,-2.886 -0.595,-0.597 -10.375,5.575 -13.975,8.82 -4.633,4.176 -8.343,11.591 -9.44,18.865 -0.479,3.178 -0.713,9.503 -0.337,9.128 0.1,-0.1 0.417,-1.591 0.714,-3.322 0.782,-4.554 2.186,-9.838 3.359,-12.637 1.067,-2.546 4.68,-8.839 5.292,-9.217 0.195,-0.121 -0.351,0.943 -1.214,2.364 -0.862,1.421 -1.966,3.774 -2.452,5.229 -0.881,2.636 -1.858,8.366 -1.49,8.734 0.267,0.267 1.163,-1.955 2.313,-5.735 0.984,-3.233 2.31,-6.484 1.943,-4.763 -1.307,6.129 -2.455,10.319 -3.451,12.588 -1.982,4.516 -2.485,6.628 -2.51,10.519 -0.01,1.94 0.166,4.083 0.394,4.763 0.229,0.679 0.594,1.925 0.812,2.769 0.218,0.844 0.445,1.479 0.506,1.411 0.06,-0.07 0,-1.393 -0.138,-2.946 z m 119.265,-2.507 c -0.256,-3.853 -0.541,-5.538 -1.332,-7.879 -0.553,-1.638 -1.184,-3.034 -1.403,-3.102 -0.629,-0.196 -0.805,1.65 -0.324,3.41 1.351,4.945 2.344,8.905 2.687,10.724 0.214,1.131 0.458,1.987 0.543,1.902 0.09,-0.08 0,-2.36 -0.171,-5.055 z m -91.79,-3.49 c 1.213,-3.692 4.02,-9.324 5.504,-11.044 0.72,-0.835 2.784,-2.692 4.585,-4.125 4.594,-3.658 5.528,-5.029 7.593,-11.147 2.106,-6.236 4.12,-9.599 9.49,-15.841 1.586,-1.843 4.293,-5.177 6.016,-7.408 1.722,-2.232 3.575,-4.613 4.116,-5.292 l 0.983,-1.235 -1.405,1.03 c -6.041,4.425 -12.578,10.707 -16.334,15.697 -1.413,1.876 -3.38,5.302 -5.366,9.345 -2.943,5.989 -3.336,6.599 -6.36,9.866 -4.705,5.082 -6.898,8.691 -9.034,14.862 -0.967,2.795 -1.895,8.299 -1.843,10.937 l 0.04,1.763 0.605,-2.469 c 0.332,-1.358 0.969,-3.581 1.415,-4.939 z m 25.961,0.02 c 1.324,-2.121 3.386,-6.011 4.584,-8.643 1.197,-2.632 2.694,-5.817 3.325,-7.079 l 1.147,-2.293 -2.341,2.293 c -1.288,1.262 -2.962,3.246 -3.72,4.41 -1.59,2.44 -3.629,7.515 -4.621,11.5 -0.377,1.516 -0.788,3.041 -0.913,3.389 -0.363,1.009 -0.01,0.519 2.539,-3.577 z m -26.986,-11.005 c 1.873,-4.95 5.096,-11.093 7.747,-14.765 2.157,-2.988 9.71,-11.706 13.529,-15.616 1.184,-1.213 2.027,-2.205 1.872,-2.205 -0.155,0 -1.182,0.679 -2.283,1.508 -1.101,0.83 -2.954,2.123 -4.118,2.875 -3.221,2.079 -5.16,3.808 -7.847,6.997 -4.552,5.401 -8.399,11.95 -9.895,16.842 -1.168,3.824 -2.959,14.289 -2.873,16.797 0.01,0.366 0.561,-1.419 1.22,-3.966 0.658,-2.548 1.85,-6.358 2.648,-8.467 z m -64.139,9.788 c 2.947,-0.998 3.431,-1.452 1.551,-1.452 -1.229,0 -6.009,2.217 -7.625,3.535 -0.741,0.605 -0.544,0.57 1.235,-0.22 1.164,-0.518 3.342,-1.356 4.839,-1.863 z m 47.151,1.457 c 1.424,-2.791 3.27,-7.812 4.25,-11.559 2.525,-9.656 4.822,-12.966 12.638,-18.208 3.289,-2.206 5.74,-4.387 9.224,-8.206 1.435,-1.573 3.776,-4.07 5.204,-5.549 1.427,-1.479 2.595,-2.799 2.595,-2.934 0,-0.134 -0.675,0.296 -1.499,0.957 -0.825,0.661 -2.156,1.664 -2.957,2.229 -4.116,2.898 -14.422,11.202 -16.975,13.677 -4.173,4.044 -3.885,3.135 1.287,-4.064 0.466,-0.648 -0.533,0.171 -2.221,1.82 -4.25,4.155 -7.223,8.865 -9.161,14.518 -0.666,1.942 -1.119,4.518 -1.615,9.172 -0.379,3.56 -0.929,7.148 -1.221,7.972 -0.658,1.854 -0.447,1.936 0.451,0.175 z m 31.978,-6.084 c 1.341,-9.521 3.183,-13.945 9.061,-21.758 1.434,-1.906 3.695,-5.053 5.024,-6.993 3.249,-4.742 3.326,-4.781 1.402,-0.706 -4.463,9.45 -6.652,15.235 -7.345,19.403 l -0.235,1.411 0.7,-0.882 c 1.136,-1.431 6.522,-11.149 8.506,-15.346 1.009,-2.134 2.838,-6.261 4.064,-9.171 1.637,-3.882 2.298,-5.116 2.482,-4.635 0.46,1.198 -0.146,9.797 -0.898,12.748 -0.956,3.752 -2.781,7.386 -4.732,9.421 -0.875,0.914 -2.91,2.52 -4.522,3.571 -1.612,1.051 -3.525,2.532 -4.252,3.292 -1.231,1.286 -1.337,1.571 -1.556,4.158 -0.174,2.066 -0.13,2.712 0.175,2.524 0.225,-0.14 0.409,-0.49 0.409,-0.779 0,-0.742 0.969,-2.548 2.223,-4.143 0.588,-0.748 2.511,-2.308 4.274,-3.468 4.316,-2.839 8.012,-6.52 9.196,-9.159 1.751,-3.902 2.022,-6.023 2.197,-17.235 0.09,-5.724 0.109,-11.042 0.04,-11.818 l -0.119,-1.411 -1.741,3.269 c -1.78,3.341 -5.709,8.82 -9.041,12.606 -4.106,4.666 -9.887,13.07 -11.561,16.808 -2.362,5.274 -4.101,12.788 -4.44,19.175 -0.249,4.707 -0.07,4.477 0.685,-0.882 z m 140.28,4.127 c -0.636,-0.767 -5.393,-2.999 -7.629,-3.58 -2.242,-0.583 -6.205,-0.754 -5.641,-0.244 0.185,0.167 1.5,0.488 2.924,0.714 2.723,0.433 6.719,1.705 8.848,2.817 1.547,0.809 1.999,0.897 1.498,0.293 z m -15.757,-4.674 c 1.187,-0.281 4.054,-0.513 6.527,-0.528 5.119,-0.03 4.836,-0.627 -0.452,-0.951 -3.448,-0.211 -6.735,0.453 -8.569,1.733 -0.629,0.438 -0.757,0.628 -0.328,0.483 0.388,-0.13 1.658,-0.462 2.822,-0.737 z m -173.722,-9.52 c 1.471,-4.183 3.647,-8.48 6.842,-13.508 3.2,-5.036 5.725,-8.045 8.39,-9.996 1.113,-0.815 1.964,-1.54 1.893,-1.612 -0.279,-0.279 -6.173,3.469 -7.905,5.026 -3.656,3.287 -6.838,9.103 -8.849,16.174 -2.253,7.922 -2.428,9.764 -0.371,3.916 z m 30.314,-4.044 c 0.549,-1.649 1.112,-3.709 1.251,-4.578 0.235,-1.463 0.209,-1.542 -0.349,-1.079 -1.643,1.363 -3.488,6.637 -3.831,10.949 l -0.182,2.293 1.056,-2.293 c 0.581,-1.261 1.505,-3.643 2.055,-5.292 z m 166.06,-2.618 c 1.981,-0.295 4.172,-0.774 4.869,-1.065 1.196,-0.5 1.254,-0.598 1.034,-1.772 -0.377,-2.009 -0.08,-2.385 1.405,-1.765 2.719,1.136 6.442,0.304 10.366,-2.316 2.538,-1.695 3.193,-2.86 2.179,-3.875 -0.915,-0.914 -2.913,-0.913 -9.696,0 -14.468,1.959 -27.547,0.288 -47.006,-6.005 -3.541,-1.145 -7.725,-2.326 -9.3,-2.625 -3.185,-0.604 -5.96,-0.71 -5.96,-0.227 0,0.174 1.469,0.9 3.264,1.613 3.602,1.433 7.558,3.475 8.378,4.325 0.474,0.492 0.455,0.523 -0.176,0.296 -1.722,-0.617 -4.794,-1.228 -7.232,-1.438 l -2.646,-0.228 2.822,2.574 c 1.552,1.415 4.172,3.862 5.821,5.436 1.649,1.575 3.475,3.188 4.057,3.584 2.695,1.834 9.258,3.397 16.757,3.99 5.182,0.41 16.767,0.13 21.064,-0.508 z m -216.679,-1.073 c 8.351,-0.914 15.242,-2.712 19.189,-5.008 1.719,-0.999 6.74,-5.642 6.74,-6.232 0,-0.191 -0.278,-0.113 -0.618,0.174 -1.139,0.962 -5.667,2.737 -7.915,3.102 -3.133,0.508 -3.568,0.415 -1.503,-0.32 2.282,-0.812 3.36,-1.37 8.095,-4.184 2.135,-1.269 5.23,-3.006 6.88,-3.862 2.231,-1.157 2.682,-1.497 1.763,-1.326 -0.679,0.126 -3.698,0.359 -6.71,0.519 -4.809,0.254 -6.228,0.485 -11.642,1.892 -15.364,3.994 -23.17,5.165 -36.152,5.422 -8.96,0.177 -10.306,0.126 -14.485,-0.554 -5.563,-0.904 -6.267,-0.916 -9.021,-0.15 -2.347,0.653 -2.113,1.094 0.605,1.141 0.792,0.01 1.546,0.129 1.674,0.258 0.273,0.272 -1.765,1.719 -3.396,2.41 -0.779,0.33 -0.965,0.536 -0.6,0.663 0.929,0.324 8.203,2.423 10.708,3.091 2.816,0.751 3.725,0.622 9.156,-1.295 5.372,-1.897 6.372,-1.66 3.945,0.935 -0.871,0.931 -1.584,1.852 -1.584,2.047 0,1.535 15.323,2.322 24.871,1.277 z m 44.039,-5.04 c 3.509,-4.301 7.471,-8.144 12.225,-11.858 1.581,-1.235 2.974,-1.955 4.971,-2.568 1.525,-0.469 3.782,-1.305 5.014,-1.858 1.233,-0.553 3.738,-1.603 5.567,-2.334 3.834,-1.532 3.685,-1.446 9.499,-5.499 2.425,-1.691 5.091,-3.346 5.923,-3.678 0.833,-0.332 1.447,-0.671 1.364,-0.754 -0.393,-0.393 -6.471,1.558 -11.228,3.604 -2.914,1.254 -5.438,2.279 -5.609,2.279 -0.172,0 0.518,-1.06 1.532,-2.355 4.315,-5.511 5.41,-6.636 7.487,-7.699 1.822,-0.933 2.426,-1.059 5.091,-1.059 1.664,0 3.474,0.126 4.024,0.279 1.754,0.489 0.694,-0.363 -1.268,-1.019 -2.188,-0.732 -5.531,-0.801 -7.468,-0.155 -4.033,1.346 -7.553,4.37 -13.57,11.655 -2.003,2.425 -4.14,4.865 -4.75,5.42 -2.04,1.861 -6.573,5.121 -8.691,6.25 -4.835,2.577 -10.81,8.544 -12.904,12.885 -2.028,4.207 -1.787,4.074 2.791,-1.536 z m -43.158,-10.311 c 2.426,-0.369 7.426,-1.308 11.113,-2.087 9.012,-1.904 10.343,-2.083 17.197,-2.319 8.245,-0.283 15.863,-1.912 19.873,-4.248 2.543,-1.482 2.559,-2.04 0.03,-0.903 -6.467,2.902 -11.084,3.694 -18.788,3.225 -2.931,-0.179 -6.027,-0.236 -6.879,-0.127 -0.853,0.109 -1.471,0.111 -1.374,0 0.284,-0.314 11.94,-3.358 14.64,-3.823 1.359,-0.234 2.613,-0.551 2.787,-0.704 0.182,-0.159 0.07,-0.657 -0.267,-1.168 -0.5,-0.764 -0.712,-0.842 -1.486,-0.547 -1.411,0.536 -1.854,0.376 -0.681,-0.247 0.582,-0.309 1.109,-0.604 1.17,-0.656 0.06,-0.05 -0.385,-1.076 -0.99,-2.276 -0.606,-1.2 -1.191,-3.002 -1.3,-4.004 -0.108,-1.003 -0.515,-2.378 -0.903,-3.057 -0.388,-0.68 -0.993,-2.663 -1.344,-4.408 -0.508,-2.528 -0.804,-3.281 -1.457,-3.704 -2.339,-1.517 -3.532,-3.655 -4.492,-8.052 -0.806,-3.696 -1.559,-5.309 -3.705,-7.944 -2.311,-2.837 -2.677,-3.738 -2.677,-6.578 0,-4.696 -1.013,-5.708 -6.39,-6.382 -3.335,-0.418 -7.496,0.04 -10.472,1.154 -2.001,0.748 -4.212,2.678 -6.848,5.977 -2.589,3.24 -5.765,3.837 -11.921,2.244 -3.856,-0.999 -6.532,-1.11 -8.356,-0.348 -0.703,0.293 -2.643,1.51 -4.31,2.703 -3.064,2.192 -5.077,3.229 -8.362,4.308 -4.053,1.331 -4.349,3.126 -1.569,9.532 2.532,5.836 2.724,6.18 4.436,7.97 0.871,0.91 1.925,2.563 2.47,3.872 1.415,3.4 2.641,4.957 6.068,7.703 4.122,3.303 6.383,5.694 8.403,8.886 0.922,1.455 2.562,3.658 3.646,4.895 l 1.972,2.249 3.181,-0.234 c 1.749,-0.129 5.165,-0.537 7.59,-0.905 z m 108.877,-2.682 c -0.46,-1.343 -1.576,-4.081 -2.481,-6.086 -1.642,-3.639 -2.653,-6.818 -2.708,-8.512 -0.03,-0.827 -0.07,-0.802 -0.573,0.339 -1.309,2.967 1.128,10.548 4.849,15.079 0.836,1.018 1.571,1.798 1.634,1.735 0.06,-0.06 -0.261,-1.213 -0.721,-2.555 z m -66.396,0.08 c 1.148,-0.536 5.382,-1.827 9.407,-2.87 6.886,-1.784 9.048,-2.556 10.731,-3.832 0.651,-0.494 0.598,-0.511 -0.706,-0.212 -1.657,0.378 -3.758,0.431 -4.582,0.115 -0.409,-0.157 0.09,-0.508 1.675,-1.176 2.881,-1.216 5.117,-2.758 6.838,-4.717 1.587,-1.808 3.154,-4.466 2.632,-4.466 -0.198,0 -1.678,0.992 -3.289,2.204 -5.283,3.979 -7.471,5.444 -10.12,6.776 -3.561,1.791 -17.162,10.211 -15.026,9.302 0.194,-0.08 1.292,-0.588 2.44,-1.124 z m 77.51,-4.723 c -1.163,-1.31 -2.455,-2.778 -2.871,-3.263 -1.122,-1.308 -0.428,-0.07 0.986,1.764 1.056,1.368 3.557,3.859 3.89,3.875 0.06,0 -0.841,-1.066 -2.005,-2.376 z m 46.873,2.056 c -0.291,-0.167 -2.434,-0.805 -4.762,-1.416 -5.894,-1.548 -18.983,-5.886 -21.468,-7.115 -1.135,-0.562 -2.147,-1.022 -2.248,-1.022 -0.38,0 0.827,1.199 1.844,1.831 l 1.058,0.657 -1.588,-0.24 c -3.423,-0.519 -5.83,-1.99 -10.936,-6.681 -6.494,-5.967 -9.932,-7.559 -14.755,-6.835 -4.421,0.665 -8.43,2.358 -9.262,3.913 -0.36,0.673 -0.337,0.677 0.706,0.138 1.768,-0.914 6.309,-1.707 8.381,-1.464 3.952,0.465 6.05,1.635 11.932,6.654 4.152,3.543 6.889,4.785 12.286,5.573 3.277,0.479 4.93,0.909 6.465,1.683 4.607,2.324 14.391,4.469 20.936,4.592 1.245,0.02 1.751,-0.07 1.411,-0.268 z m -116.835,-6.428 c 2.295,-0.424 4.543,-1.499 8.003,-3.827 1.359,-0.914 4.893,-3.059 7.854,-4.767 2.962,-1.708 5.314,-3.176 5.228,-3.262 -0.286,-0.286 -3.702,0.597 -6.534,1.689 -1.588,0.613 -4.733,2.365 -7.293,4.064 -2.476,1.643 -5.067,3.137 -5.759,3.32 -0.691,0.183 -3.003,0.503 -5.137,0.712 -2.135,0.209 -4.383,0.469 -4.997,0.578 -1.073,0.192 -1.102,0.242 -0.743,1.271 l 0.373,1.072 3.513,-0.242 c 1.932,-0.133 4.403,-0.407 5.492,-0.608 z m 68.336,-2.127 c -3.475,-3.245 -7.152,-6.029 -7.697,-5.826 -0.991,0.369 8.637,8.356 10.074,8.356 0.183,0 -0.887,-1.139 -2.377,-2.53 z m 25.728,-1.648 c -0.185,-0.164 -1.288,-0.666 -2.452,-1.117 -3.233,-1.251 -5.404,-2.391 -8.139,-4.275 -1.371,-0.945 -2.616,-1.719 -2.766,-1.719 -0.151,0 0.373,0.772 1.163,1.716 1.775,2.12 4.706,4.174 7.171,5.026 1.878,0.648 5.649,0.926 5.023,0.369 z m 53.844,81.584 c 0.02,-0.411 0.1,-0.495 0.213,-0.214 0.102,0.255 0.09,0.559 -0.03,0.677 -0.117,0.117 -0.201,-0.09 -0.185,-0.463 z m -4.686,-2.705 c -1.284,-1.986 -1.847,-3.148 -2.603,-5.38 -0.463,-1.366 -0.459,-1.384 0.121,-0.56 0.651,0.924 4.002,7.792 3.803,7.792 -0.07,0 -0.662,-0.833 -1.321,-1.852 z m 36.584,-1.485 c -1.164,-0.256 -3.48,-0.881 -5.146,-1.39 -1.666,-0.509 -4.206,-1.062 -5.644,-1.228 -2.711,-0.315 -2.345,-0.391 2.553,-0.533 2.241,-0.06 3.049,-0.262 4.762,-1.165 7.399,-3.896 7.677,-4.009 11.561,-4.707 2.118,-0.381 4.605,-0.693 5.524,-0.693 2.477,0 5.74,1.154 7.921,2.8 1.06,0.8 2.144,1.538 2.409,1.64 0.625,0.24 2.116,-1.544 3.387,-4.051 1.805,-3.563 3.683,-4.621 8.674,-4.891 4.108,-0.222 6.033,0.213 10.854,2.453 3.676,1.708 4.096,1.823 6.582,1.795 1.46,-0.02 3.365,-0.195 4.233,-0.397 2.395,-0.558 2.106,-0.223 -0.585,0.677 -3.826,1.28 -5.879,1.113 -10.695,-0.869 -4.784,-1.97 -6.911,-2.305 -9.172,-1.444 -0.873,0.332 -2.69,0.986 -4.037,1.453 -3.017,1.045 -3.407,1.39 -4.233,3.732 -1.022,2.9 -2.244,5.154 -3.02,5.57 -0.577,0.308 -1.242,0.114 -3.584,-1.046 -2.329,-1.153 -3.252,-1.424 -4.849,-1.422 -2.17,0 -8.265,1.58 -11.321,2.93 -2.694,1.19 -3.737,1.322 -6.174,0.786 z m -57.679,-78.673 c 0,-0.77 5.762,-9.464 7.598,-11.465 2.167,-2.36 2.222,-2.469 2.442,-4.829 0.395,-4.24 1.715,-5.866 5.118,-6.304 0.879,-0.113 1.944,-0.276 2.366,-0.363 1.224,-0.25 2.888,-1.861 4.404,-4.261 0.773,-1.224 1.872,-2.618 2.442,-3.098 0.57,-0.479 1.698,-1.873 2.505,-3.096 0.808,-1.224 1.997,-2.923 2.643,-3.775 0.701,-0.926 1.174,-1.961 1.174,-2.569 0,-3.368 2.896,-6.039 9.256,-8.535 4.133,-1.623 5.306,-2.607 6.868,-5.768 1.654,-3.348 1.739,-5.287 0.378,-8.632 -0.528,-1.298 -1.132,-3.441 -1.342,-4.763 -0.285,-1.786 -0.773,-3.037 -1.9,-4.872 -2.467,-4.017 -4.147,-7.91 -4.339,-10.054 -0.142,-1.579 0.06,-2.671 1.099,-5.86 0.699,-2.156 1.513,-5.633 1.807,-7.728 0.64,-4.562 0.695,-4.815 1.875,-8.637 0.803,-2.6 0.937,-2.835 1.011,-1.764 0.05,0.679 0.27,2.986 0.496,5.128 0.518,4.92 -0.02,7.909 -2.302,12.806 -2.127,4.563 -2.299,5.803 -1.154,8.305 0.494,1.078 1.359,2.64 1.922,3.471 1.894,2.791 4.738,9.027 4.484,9.829 -0.15,0.47 0.113,1.517 0.719,2.869 1.497,3.335 1.832,6.03 1.111,8.95 -0.76,3.079 -1.965,4.895 -4.04,6.085 -0.903,0.518 -2.281,1.585 -3.063,2.372 -0.782,0.787 -2.023,1.883 -2.759,2.435 -0.737,0.552 -1.292,1.243 -1.235,1.535 0.06,0.291 0.9,0.801 1.873,1.131 0.974,0.331 2.685,1.118 3.804,1.749 2.119,1.196 2.126,1.197 10.478,1.478 0.679,0.02 2.235,-0.338 3.458,-0.802 l 2.223,-0.843 1.746,0.97 c 0.96,0.534 2.125,0.971 2.588,0.971 0.464,0 2.386,0.317 4.272,0.705 1.886,0.388 4.503,0.706 5.815,0.706 1.658,0 2.898,0.226 4.062,0.741 2.13,0.942 2.569,0.73 5.908,-2.852 1.36,-1.458 3.268,-3.207 4.241,-3.887 1.521,-1.061 2.036,-1.763 3.68,-5.011 2.301,-4.545 2.765,-4.893 8.09,-6.075 4.853,-1.078 5.281,-1.248 8.933,-3.557 2.745,-1.736 6.341,-3.528 5.485,-2.733 -0.194,0.18 -1.861,1.364 -3.704,2.631 -3.569,2.453 -6.007,3.783 -8.286,4.522 -2.122,0.688 -4.615,2.346 -5.827,3.876 -0.595,0.752 -1.733,2.765 -2.529,4.474 -1.817,3.904 -3.775,6.831 -7.258,10.849 -1.763,2.034 -3.315,3.453 -4.368,3.995 -1.537,0.79 -1.763,0.814 -3.813,0.411 -1.653,-0.325 -2.502,-0.331 -3.522,-0.03 -2.058,0.617 -3.046,0.497 -5.774,-0.7 -2.5,-1.097 -7.099,-2.294 -10.128,-2.636 -0.874,-0.1 -3.493,-0.21 -5.821,-0.249 -3.397,-0.06 -4.756,-0.24 -6.879,-0.931 -1.823,-0.592 -3.488,-0.867 -5.352,-0.881 -3.367,-0.03 -4.207,0.506 -5.937,3.759 -2.064,3.882 -3.333,4.814 -7.842,5.761 -3.04,0.638 -5.246,1.644 -6.96,3.174 -1.052,0.94 -1.621,1.149 -3.605,1.328 -4.621,0.418 -5.818,1.522 -6.339,5.85 -0.467,3.882 -1.344,5.319 -5.622,9.203 -4.055,3.683 -6.674,5.836 -6.674,5.487 z" id="path170"/></g></svg>