<?xml version='1.0' encoding='utf-8'?>
<svg xmlns="http://www.w3.org/2000/svg" width="496.84058mm" height="443.27423mm" viewBox="0 0 496.84058 443.27423" version="1.1" id="svg5" xml:space="preserve"><defs id="defs2" /><g id="layer1"><path style="fill:#000000" d="m 255.27000000000044 439.22500000000036 c -0.09,-8.139 -1.854,-14.298 -7.231,-25.182 -6.109,-12.367 -11.132,-25.57 -14.022,-36.854 -0.691,-2.698 -0.688,-1.402 0,4.018 0.906,7.039 1.78,11.253 3.853,18.569 0.953,3.361 2.3,8.255 2.993,10.874 0.694,2.619 1.503,5.551 1.798,6.515 0.771,2.514 0.1,1.578 -1.521,-2.109 -0.767,-1.749 -2.854,-6.095 -4.638,-9.66 -7.069,-14.121 -9.63,-20.438 -11.538,-28.449 -1.003,-4.214 -1.004,-4.241 -0.981,-15.945 0.01,-6.449 -0.01,-11.687 -0.06,-11.642 -0.208,0.208 -2.708,11.068 -3.349,14.546 -2.567,13.929 -0.177,28.086 7.538,44.663 1.812,3.892 9.303,17.896 11.115,20.778 1.162,1.848 1.174,1.898 0.249,1.058 -0.534,-0.485 -3.797,-4.262 -7.252,-8.393 -9.628,-11.514 -13.855,-18.287 -16.564,-26.538 -1.444,-4.4 -2.988,-10.807 -3.857,-16.005 -0.385,-2.306 -0.785,-4.278 -0.888,-4.38 -0.196,-0.196 -0.303,5.175 -0.199,9.985 0.05,2.337 0.672,7.223 1.952,15.345 0.233,1.48 0.02,1.09 -1.582,-2.858 -0.597,-1.475 -1.311,-2.983 -1.587,-3.351 -0.433,-0.579 -0.434,-0.41 0,1.246 0.274,1.054 0.585,3.038 0.691,4.41 0.188,2.419 0.153,2.34 -1.193,-2.622 -1.697,-6.253 -3.605,-11.656 -7.539,-21.343 -5.15,-12.681 -6.468,-17.17 -7.338,-24.995 -0.459,-4.124 -0.05,-10.781 0.915,-14.935 0.261,-1.125 0.423,-2.096 0.359,-2.16 -0.218,-0.219 -1.581,3.804 -2.452,7.244 -1.363,5.378 -1.724,8.813 -1.527,14.515 0.22,6.344 1.291,11.399 3.971,18.744 4.22,11.565 5.575,18.054 6.522,31.221 0.195,2.716 0.336,5.653 0.314,6.526 l -0.04,1.588 -0.286,-1.412 c -0.157,-0.776 -0.53,-2.924 -0.827,-4.774 -1.8,-11.197 -7.038,-23.542 -17.108,-40.325 -3.125,-5.208 -6.423,-10.844 -7.329,-12.524 -2.317,-4.297 -7.901,-14.167 -8.015,-14.167 -0.05,0 0.268,1.613 0.711,3.584 2.901,12.908 3.75,22.798 2.358,27.488 -0.821,2.77 -2.748,6.315 -4.49,8.263 l -1.261,1.411 0.876,-1.94 c 1.58,-3.499 1.323,-4.884 -2.813,-15.17 -4.54,-11.287 -5.713,-16.724 -5.366,-24.855 0.389,-9.097 1.805,-14.742 5.91,-23.553 2.979,-6.394 4.274,-10.014 5.214,-14.573 0.746,-3.624 1.553,-9.369 1.344,-9.578 -0.07,-0.06 -0.474,1.193 -0.91,2.795 -1.82,6.704 -5.882,14.946 -10.891,22.101 -2.868,4.098 -3.918,6.01 -4.768,8.681 -0.584,1.839 -1.415,5.833 -1.822,8.764 -0.13,0.939 -0.294,1.65 -0.365,1.58 -0.293,-0.294 0.56,-11.553 1.004,-13.254 0.267,-1.019 0.452,-1.852 0.411,-1.852 -0.04,0 -0.711,0.913 -1.491,2.028 -4.279,6.122 -7.943,17.148 -8.511,25.611 l -0.264,3.934 -0.292,-3.483 c -0.564,-6.733 0.362,-14.18 3.126,-25.15 2.175,-8.63 3.299,-11.758 6.195,-17.246 1.369,-2.594 3.032,-6.122 3.696,-7.841 1.566,-4.055 2.717,-9.723 2.584,-12.724 l -0.103,-2.332 -2.501,3.52 c -8.396,11.818 -12.617,22.66 -12.061,30.98 l 0.169,2.526 -1.157,-2.469 c -5.222,-11.146 -2.558,-23.925 8.676,-41.628 4.068,-6.411 6.378,-11.747 7.407,-17.11 0.743,-3.875 1.285,-10.668 0.661,-8.29 -1.444,5.504 -3.402,10.164 -5.745,13.669 -0.681,1.019 -4.133,4.711 -7.669,8.203 -3.537,3.493 -6.271,6.112 -6.075,5.821 0.196,-0.291 1.863,-2.513 3.705,-4.939 4.16,-5.476 4.274,-5.662 2.934,-4.778 -5.704,3.767 -9.584,5.141 -15.768,5.584 -2.679,0.192 -2.932,-0.24 -0.362,-0.62 6.03,-0.89 14.074,-6.651 17.684,-12.664 1.724,-2.872 3.783,-8.076 4.778,-12.081 0.805,-3.234 1.803,-9.947 1.522,-10.228 -0.07,-0.07 -0.814,1.104 -1.659,2.604 -0.844,1.499 -2.31,3.891 -3.257,5.315 -2.146,3.226 -6.015,10.015 -7.573,13.286 -1.173,2.462 -1.201,2.249 -0.236,-1.763 0.926,-3.849 1.964,-6.658 3.88,-10.496 1.041,-2.085 1.827,-3.792 1.747,-3.792 -0.08,0 -1.038,1.23 -2.129,2.734 -1.091,1.504 -2.22,3.052 -2.508,3.44 -0.736,0.99 0.689,-2.68 1.985,-5.116 0.569,-1.067 2.239,-3.448 3.712,-5.291 3.344,-4.185 4.224,-5.678 5.356,-9.099 0.818,-2.469 0.915,-3.382 1.054,-9.907 0.163,-7.681 -0.186,-9.024 -0.955,-3.676 -0.906,6.296 -2.999,14.169 -4.435,16.684 -0.65,1.138 -0.651,1.147 0.163,-3.364 0.38,-2.11 0.639,-3.889 0.575,-3.953 -0.178,-0.177 -1.564,3.372 -2.676,6.852 l -0.995,3.111 -0.03,-2.116 c -0.06,-4.004 0.949,-8.941 3.133,-15.346 1.868,-5.476 3.179,-10.08 3.167,-11.113 -0.02,-1.425 -3.92,9.871 -6.093,17.639 l -0.493,1.764 0.142,-2.999 c 0.187,-3.949 0.781,-11.165 1.014,-12.316 0.359,-1.776 -1.713,2.608 -3.737,7.907 -3.065,8.022 -3.889,10.91 -4.18,14.64 l -0.261,3.351 -0.333,-2.116 c -0.526,-3.355 -0.414,-21.824 0.149,-24.342 0.26,-1.164 1.252,-4.541 2.203,-7.504 1.471,-4.577 2.657,-9.851 2.297,-10.211 -0.06,-0.06 -0.445,1.28 -0.862,2.97 -1.259,5.1 -4.746,11.436 -8.022,14.577 l -1.279,1.226 0.562,-1.323 c 1.377,-3.235 1.8,-4.211 3.558,-8.202 3.116,-7.071 4.227,-11.507 4.639,-18.52 0.264,-4.491 -0.09,-4.361 -1.448,0.529 -1.082,3.906 -3.349,10.454 -4.145,11.972 -0.466,0.89 -0.499,0.561 -0.366,-3.645 0.08,-2.543 0.06,-4.623 -0.05,-4.623 -0.108,0 -0.516,0.624 -0.905,1.387 -0.805,1.578 -1.605,2.309 -1.11,1.014 0.171,-0.447 0.802,-2.084 1.402,-3.638 0.601,-1.553 1.419,-4.093 1.82,-5.644 0.717,-2.776 2.485,-13.79 2.435,-15.168 -0.01,-0.388 -0.631,1.676 -1.371,4.586 -0.739,2.911 -2.638,9.181 -4.219,13.935 -4.279,12.867 -5.08,16.568 -5.073,23.46 v 3.88 l -0.515,-1.94 c -0.579,-2.181 -0.798,-11.289 -0.327,-13.582 0.273,-1.329 0.168,-1.233 -1.804,1.641 -2.137,3.118 -4.395,5.973 -4.578,5.79 -0.06,-0.06 0.938,-2.148 2.21,-4.648 2.558,-5.029 3.353,-8.045 3.353,-12.724 0,-3.106 -1.023,-8.44 -2.288,-11.931 -0.492,-1.358 -0.817,-2.055 -0.721,-1.549 0.572,3.018 0.871,9.478 0.555,11.999 -0.735,5.861 -1.954,9.059 -5.833,15.303 -2.768,4.457 -3.314,5.161 -2.463,3.175 0.333,-0.776 1.006,-2.602 1.497,-4.057 1.026,-3.043 1.112,-5.701 0.624,-19.403 -0.297,-8.364 -0.112,-11 1.244,-17.722 0.932,-4.618 2.241,-8.018 3.781,-9.817 1.694,-1.979 0.349,-1.264 -1.6,0.85 -4.225,4.583 -5.445,10.852 -5.297,27.218 0.09,10.392 -0.179,12.306 -3.115,21.81 -0.469,1.517 -0.873,3.635 -0.898,4.707 -0.03,1.221 -0.157,1.771 -0.345,1.474 -0.564,-0.891 -0.326,-8.586 0.416,-13.397 1.457,-9.45 2.082,-15.025 2.092,-18.651 0.02,-8.195 0.966,-14.377 2.838,-18.57 1.896,-4.248 6.823,-9.794 11.372,-12.803 1.3,-0.859 2.309,-1.617 2.243,-1.684 -0.274,-0.273 -5.949,1.976 -7.817,3.098 -3.84,2.307 -7.402,6.981 -9.196,12.065 -0.976,2.764 -1.556,6.746 -2.073,14.229 -0.294,4.247 -0.688,9.389 -0.875,11.426 -0.188,2.038 -0.592,6.483 -0.898,9.878 -0.307,3.396 -0.605,6.332 -0.663,6.527 -0.06,0.194 -0.199,-1.87 -0.314,-4.587 -0.284,-6.692 -1.323,-10.715 -3.98,-15.408 -1.085,-1.915 -2.517,-4.629 -3.184,-6.031 -1.591,-3.347 -1.29,-1.524 0.627,3.801 1.258,3.493 3.909,13.247 3.667,13.489 -0.05,0.05 -0.59,-1.134 -1.191,-2.639 -0.601,-1.505 -1.885,-4.661 -2.851,-7.012 -0.967,-2.352 -2.011,-5.527 -2.32,-7.056 -1.112,-5.506 -2.315,-13.82 -2.32,-16.038 -0.01,-4.107 -0.936,-3.866 -2.438,0.635 -0.93,2.786 -0.95,6.393 -0.06,10.154 0.368,1.552 1.019,4.568 1.446,6.703 0.428,2.134 1.235,5.15 1.793,6.702 1.306,3.626 0.427,2.604 -2.125,-2.469 -2.013,-4.005 -2.62,-6.472 -3.167,-12.876 -0.207,-2.426 -0.534,-4.953 -0.726,-5.617 -0.193,-0.664 -0.457,-2.847 -0.587,-4.851 -0.129,-2.004 -0.359,-3.644 -0.509,-3.644 -0.706,0 -1.485,3.941 -1.64,8.297 -0.137,3.824 -0.04,5.11 0.57,7.682 0.884,3.725 2.592,7.969 5.211,12.949 1.072,2.038 1.869,3.625 1.771,3.528 -0.1,-0.1 -0.906,-1.117 -1.797,-2.267 -0.891,-1.149 -1.621,-1.996 -1.621,-1.881 0,0.115 0.337,0.976 0.749,1.914 1.238,2.817 2.383,5.762 2.241,5.762 -0.07,0 -1.249,-2.104 -2.613,-4.675 -2.446,-4.611 -2.983,-5.269 -1.982,-2.431 0.852,2.415 1.317,6.935 1.034,10.049 l -0.262,2.878 -0.577,-2.47 c -0.318,-1.358 -1.318,-4.692 -2.223,-7.408 -2.851,-8.556 -5.976,-22.985 -6.48,-29.915 -0.253,-3.488 -0.628,-3.587 -1.385,-0.367 -0.995,4.225 -0.432,8.658 2.098,16.524 1.537,4.782 2.706,9.241 2.674,10.208 -0.02,0.719 -0.03,0.719 -0.327,0.02 -0.166,-0.388 -1.726,-3.96 -3.465,-7.937 -1.739,-3.978 -3.57,-8.373 -4.068,-9.768 -1.681,-4.709 -2.604,-11.933 -1.886,-14.75 0.24,-0.943 0.171,-0.897 -0.629,0.414 -0.494,0.81 -1.059,2.318 -1.255,3.351 -0.388,2.045 -0.347,2.512 0.92,10.346 0.921,5.693 1.147,11.405 0.684,17.284 -0.393,4.987 -0.748,3.356 -0.999,-4.584 -0.211,-6.685 -0.775,-11.707 -1.804,-16.052 -0.761,-3.216 -0.686,-5.185 0.316,-8.36 0.479,-1.514 1.431,-5.1 2.118,-7.969 1.518,-6.346 2.385,-8.165 4.753,-9.971 0.982,-0.749 1.785,-1.418 1.785,-1.487 0,-0.07 -0.777,0.297 -1.728,0.814 -2.692,1.465 -4.141,3.208 -5.727,6.887 -0.786,1.823 -2.199,4.342 -3.139,5.598 -3.697,4.936 -5.267,12.71 -4.102,20.31 0.297,1.941 0.64,3.846 0.762,4.234 0.479,1.527 -0.992,-1.443 -1.622,-3.274 -1.388,-4.037 -2.175,-9.466 -2.016,-13.923 0.08,-2.292 0.04,-3.965 -0.09,-3.717 -0.133,0.248 -0.678,2.277 -1.211,4.508 -1.321,5.532 -1.315,9.554 0.03,14.993 0.1,0.388 -0.216,-0.02 -0.692,-0.904 -1.088,-2.024 -1.987,-5.423 -2.28,-8.621 l -0.227,-2.469 -1.655,2.646 c -2.29,3.658 -3.505,6.42 -4.189,9.525 l -0.583,2.646 -0.271,-2.062 c -0.543,-4.14 0.442,-7.934 3.294,-12.685 2.62,-4.365 3.559,-6.4 4.31,-9.333 1.179,-4.612 0.929,-4.907 -1.272,-1.497 -3.944,6.11 -5.663,10.061 -6.873,15.799 l -0.648,3.075 -0.02,-3.77 c -0.01,-2.073 0.204,-4.851 0.484,-6.173 0.548,-2.593 3.554,-10.228 5.043,-12.811 0.503,-0.874 1.145,-1.985 1.426,-2.47 0.282,-0.485 -0.145,-0.167 -0.947,0.706 -2.826,3.073 -5.642,7.062 -7.239,10.252 l -1.614,3.225 v -1.549 c 0,-6.024 4.445,-13.021 11.994,-18.878 9.805,-7.608 21.095,-12.271 34.043,-14.06 3.269,-0.452 5.801,-0.542 11.113,-0.396 7.325,0.201 10.245,0.647 17.303,2.641 2.047,0.578 4.905,1.241 6.35,1.473 2.559,0.41 2.707,0.393 5.569,-0.655 3.676,-1.345 6.471,-2.903 10.218,-5.697 3.977,-2.965 10.693,-9.483 12.092,-11.734 4.81,-7.745 8.655,-12.257 13.732,-16.113 3.706,-2.816 9.309,-5.993 9.765,-5.537 0.07,0.07 -0.468,0.583 -1.201,1.135 -3.215,2.419 -12.124,9.63 -14.319,11.59 -2.257,2.014 -6.899,7.261 -6.426,7.261 0.119,0 1.043,-0.608 2.053,-1.351 1.011,-0.743 3.742,-2.638 6.071,-4.211 2.328,-1.572 5.662,-3.907 7.408,-5.188 8.354,-6.129 12.313,-8.636 18.697,-11.843 3.687,-1.851 9.481,-5.015 12.877,-7.03 7.215,-4.283 11.496,-6.376 15.169,-7.419 3.402,-0.966 9.031,-1.291 12.542,-0.725 1.476,0.238 2.766,0.352 2.864,0.253 0.355,-0.354 -6.459,-2.27 -8.883,-2.497 -6.79,-0.637 -17.496,2.059 -25.236,6.354 -3.736,2.073 -6.428,3.251 -14.801,6.476 -1.649,0.635 -5.225,2.297 -7.947,3.693 -11.858,6.082 -16.306,10.222 -24.976,23.24 -5.004,7.513 -8.478,11.425 -11.928,13.429 -2.294,1.333 -5.783,1.984 -10.359,1.933 l -3.88,-0.04 3.351,-0.28 c 5.015,-0.419 5.975,-0.982 1.722,-1.01 -8.175,-0.05 -21.753,-3.818 -32.578,-9.031 -4.957,-2.386 -11.812,-6.477 -15.887,-9.479 -3.361,-2.476 -15.432,-13.637 -17.968,-16.614 -3.675,-4.315 -8.247,-11.357 -19.236,-29.633 -11.046,-18.371 -11.812,-19.541 -17.094,-26.106 -3.919,-4.87 -13.519,-14.449 -17.139,-17.1 -5.115,-3.747 -10.497,-6.545 -14.924,-7.761 -0.933,-0.256 -1.568,-0.593 -1.412,-0.748 0.657,-0.655 4.713,-1.378 7.732,-1.378 5.422,0 13.709,1.713 19.892,4.112 4.75,1.844 12.372,5.84 16.952,8.888 9.953,6.624 19.843,16.13 29.967,28.804 12.775,15.991 16.146,19.794 20.847,23.52 6.246,4.951 17.066,9.488 31.012,13.005 10.391,2.62 12.98,2.968 22.049,2.965 7.667,0 8.302,-0.05 11.526,-0.934 1.876,-0.512 4.54,-1.554 5.919,-2.315 l 2.508,-1.385 -3.497,-0.229 c -4.02,-0.264 -10.325,-1.758 -14.169,-3.358 -2.422,-1.009 -8.108,-4.117 -8.108,-4.433 0,-0.07 1.072,0.315 2.381,0.863 4.833,2.021 10.891,2.759 17.403,2.12 11.684,-1.145 25.679,-4.667 40.718,-10.246 6.464,-2.399 8.95,-3.207 13.758,-4.474 1.784,-0.47 -3.774,-0.556 -7.594,-0.117 -3.579,0.41 -5.402,0.834 -18.159,4.217 -6.71,1.779 -17.988,4.319 -18.832,4.24 -0.12,-0.01 1.006,-0.48 2.501,-1.043 1.496,-0.562 5.86,-2.476 9.698,-4.251 10.422,-4.822 12.459,-5.551 18.231,-6.528 4.715,-0.797 14.508,-0.549 20.524,0.521 3.675,0.654 10.979,2.562 12.975,3.39 0.602,0.25 -1.915,-3.144 -6.869,-9.263 -1.138,-1.405 -2.068,-2.643 -2.068,-2.751 0,-0.565 3.765,2.498 6.733,5.478 l 3.381,3.394 -0.85,-2.489 c -0.649,-1.9 -0.882,-3.449 -0.987,-6.546 -0.113,-3.365 -0.07,-3.786 0.227,-2.469 0.2,0.873 0.599,2.619 0.887,3.88 0.863,3.79 3.288,8.343 5.929,11.134 l 2.315,2.448 -1.405,-2.998 c -4.598,-9.806 -3.518,-17.915 3.214,-24.148 2.258,-2.09 4.539,-3.567 6.279,-4.066 0.598,-0.172 1.088,-0.271 1.088,-0.22 0,0.05 -0.785,0.601 -1.744,1.223 -0.959,0.621 -2.223,1.735 -2.809,2.474 -1.464,1.849 -3.443,5.853 -3.943,7.98 -0.607,2.58 -0.522,8.073 0.166,10.734 0.678,2.623 2.605,6.719 3.282,6.979 0.255,0.1 1.895,-0.803 3.645,-2.001 6.158,-4.218 14.087,-7.422 18.365,-7.422 3.163,0 6.487,1.534 7.329,3.381 0.554,1.216 0.546,1.222 -0.705,0.598 -3.204,-1.599 -9.214,-0.665 -15.414,2.394 -4.012,1.979 -4.729,2.728 -0.989,1.032 1.296,-0.588 3.362,-1.302 4.591,-1.587 2.781,-0.645 10.364,-1.119 17.33,-1.083 5.008,0.03 5.423,0.08 7.744,1.05 1.348,0.563 4.762,2.294 7.585,3.848 19.347,10.651 34.042,15.043 45.77,13.68 4.209,-0.489 7.614,-1.4 10.427,-2.789 1.116,-0.55 2.028,-0.956 2.028,-0.902 0,0.305 -3.663,2.539 -6.297,3.841 -5.778,2.856 -13.62,4.754 -19.677,4.762 h -2.424 l 1.519,0.91 c 2.302,1.38 6.786,2.905 10.406,3.538 2.54,0.445 4.623,0.525 9.594,0.368 6.72,-0.212 9.913,-0.638 17.342,-2.313 13.051,-2.943 24.144,-7.015 30.672,-11.258 4.405,-2.864 11.712,-10.555 19.842,-20.885 11.297,-14.355 15.386,-19.026 21.384,-24.43 10.732,-9.67 21.253,-15.916 33.769,-20.048 7.827,-2.585 17.184,-3.534 21.871,-2.219 1.129,0.317 2.051,0.674 2.05,0.794 0,0.12 -1.144,0.493 -2.538,0.83 -5.297,1.278 -13.977,6.353 -20.216,11.82 -5.708,5.002 -12.793,13.343 -18.058,21.258 -1.355,2.038 -4.737,7.673 -7.516,12.524 -9.521,16.622 -17.778,30.057 -20.791,33.831 -2.852,3.571 -13.559,13.799 -18.368,17.545 -4.247,3.308 -9.595,6.705 -14.617,9.283 -10.243,5.259 -24.33,9.668 -34.817,10.897 l -4.012,0.471 2.733,1.331 2.734,1.332 8.379,-1.104 c 14.685,-1.934 19.127,-2.17 27.077,-1.438 20.828,1.918 41.345,13.757 46.507,26.835 0.906,2.295 1.808,6.823 1.585,7.957 -0.06,0.321 -0.942,-1.066 -1.954,-3.083 -1.886,-3.761 -3.988,-6.777 -7.104,-10.195 l -1.769,-1.94 3.286,6.555 c 3.647,7.274 4.358,9.604 4.604,15.085 0.134,2.981 0.11,3.172 -0.189,1.525 -0.82,-4.504 -2.935,-9.366 -6.087,-13.993 -0.793,-1.164 -1.82,-2.751 -2.282,-3.527 l -0.839,-1.411 0.231,2.469 c 0.287,3.07 1.132,5.207 4.378,11.067 1.406,2.536 2.856,5.402 3.222,6.367 0.626,1.646 1.384,8.495 0.941,8.495 -0.11,0 -0.473,-0.833 -0.807,-1.852 -0.984,-3 -3.105,-6.948 -5.32,-9.899 l -2.067,-2.755 -0.243,3.589 c -0.133,1.974 -0.579,4.699 -0.991,6.056 -0.836,2.751 -1.158,3.044 -0.691,0.628 0.478,-2.478 0.389,-7.056 -0.198,-10.152 -0.539,-2.843 -1.795,-7.1 -2.229,-7.557 -0.129,-0.136 -0.239,2.245 -0.246,5.291 -0.01,5.376 -0.06,5.705 -1.511,11.206 -0.826,3.117 -1.73,6.847 -2.009,8.29 l -0.509,2.623 0.158,-2.669 c 0.09,-1.468 0.395,-3.69 0.683,-4.939 1.806,-7.809 0.382,-16.827 -3.627,-22.968 -0.936,-1.435 -2.296,-4.141 -3.022,-6.014 -1.078,-2.783 -1.625,-3.691 -2.989,-4.967 -1.657,-1.55 -3.148,-2.547 -3.412,-2.283 -0.08,0.08 0.549,0.711 1.389,1.413 0.839,0.701 1.797,1.846 2.128,2.544 0.92,1.938 3.736,15.458 3.739,17.949 0,3.229 -0.724,12.475 -1.158,14.702 l -0.377,1.941 -0.314,-1.588 c -0.328,-1.662 -0.1,-11.841 0.367,-16.005 0.147,-1.333 0.178,-3.159 0.07,-4.057 -0.181,-1.485 -0.222,-1.36 -0.448,1.365 -0.31,3.738 -1.398,7.956 -4.096,15.875 -1.156,3.395 -2.535,7.804 -3.065,9.796 -0.529,1.993 -1.017,3.568 -1.084,3.501 -0.07,-0.07 0.109,-1.855 0.391,-3.975 0.282,-2.12 0.668,-5.442 0.857,-7.382 0.19,-1.94 0.609,-5.433 0.931,-7.761 0.691,-5.002 0.536,-9.046 -0.416,-10.794 l -0.653,-1.2 -0.216,3.704 c -0.119,2.037 -0.542,5.609 -0.941,7.937 -0.398,2.329 -0.829,5.98 -0.957,8.114 -0.217,3.624 -0.421,4.441 -3.08,12.347 -2.105,6.259 -2.907,9.157 -3.075,11.113 l -0.226,2.646 -0.426,-1.411 c -0.727,-2.409 -0.533,-7.461 0.427,-11.158 0.471,-1.814 0.792,-3.363 0.713,-3.442 -0.08,-0.08 -0.764,1.205 -1.522,2.854 -1.183,2.572 -4.204,7.381 -3.39,5.396 0.159,-0.389 0.721,-2.373 1.249,-4.41 0.528,-2.037 1.069,-4.022 1.202,-4.41 0.544,-1.586 -1.594,1.489 -3.171,4.56 -1.79,3.486 -1.785,3.021 0.01,-1.385 1.706,-4.179 3.559,-10.16 4.264,-13.758 0.782,-3.999 0.875,-11.178 0.164,-12.7 -0.492,-1.055 -0.496,-1.048 -0.994,1.764 -2.306,13.033 -3.557,17.608 -6.607,24.165 -1.218,2.619 -2.496,5.52 -2.839,6.446 -0.343,0.926 -0.694,1.613 -0.781,1.527 -0.402,-0.402 0.801,-5.788 2.254,-10.09 2.015,-5.97 3.243,-11.297 3.497,-15.169 0.173,-2.647 -0.138,-4.421 -0.678,-3.871 -0.09,0.09 -0.569,2.9 -1.066,6.242 -0.69,4.637 -1.205,6.85 -2.174,9.348 -3.526,9.095 -3.743,9.839 -3.992,13.681 l -0.239,3.704 -0.747,-2.646 c -0.732,-2.592 -0.755,-2.625 -1.154,-1.618 -0.736,1.857 -1.193,7.924 -0.847,11.231 0.362,3.459 0.145,3.586 -0.716,0.418 -1.125,-4.138 -0.422,-13.598 1.362,-18.321 0.513,-1.358 1.876,-4.335 3.029,-6.615 2.107,-4.167 4.432,-10.38 4.033,-10.779 -0.118,-0.118 -0.308,0.144 -0.422,0.581 -0.371,1.418 -2.574,5.755 -4.86,9.564 -1.227,2.046 -2.687,4.912 -3.243,6.367 l -1.01,2.646 v 11.171 c 0,6.145 -0.06,11.112 -0.133,11.039 -0.368,-0.369 -2.289,-13.214 -2.847,-19.035 -0.4,-4.179 -0.103,-9.021 0.909,-14.817 0.738,-4.227 0.722,-9.613 -0.04,-12.524 -1.83,-7.016 -7.326,-13.131 -14.254,-15.859 -2.684,-1.057 -2.895,-0.75 -0.579,0.845 3.311,2.28 7.81,7.878 9.945,12.372 0.971,2.046 1.319,3.353 1.626,6.122 0.355,3.199 0.318,3.867 -0.405,7.34 -0.438,2.101 -1.026,5.408 -1.307,7.349 -0.28,1.94 -0.838,4.797 -1.239,6.35 -1.105,4.276 -1.232,8.186 -0.388,11.994 0.386,1.746 0.654,3.227 0.594,3.29 -0.06,0.06 -0.682,-1.049 -1.381,-2.47 -2.144,-4.356 -2.955,-10.884 -2.36,-18.98 0.192,-2.615 0.293,-4.81 0.224,-4.879 -0.14,-0.14 -1.67,4.888 -2.233,7.34 -1.412,6.142 -0.601,12.319 2.502,19.05 1.174,2.547 2.423,5.85 2.056,5.439 -0.229,-0.257 -4.073,-5.477 -7.251,-9.848 -0.46,-0.634 -0.472,-0.561 -0.114,0.705 0.565,1.996 0.521,8.163 -0.09,12.524 l -0.518,3.704 -0.228,-6.35 c -0.256,-7.081 -0.737,-9.925 -2.595,-15.346 -0.699,-2.037 -2.534,-8.516 -4.078,-14.398 -1.545,-5.881 -3.052,-11.12 -3.35,-11.641 -0.365,-0.64 -0.485,-0.719 -0.369,-0.243 0.346,1.41 1.249,6.774 1.63,9.677 0.538,4.097 2.146,10.283 3.64,14.003 0.687,1.711 1.197,3.162 1.133,3.225 -0.06,0.06 -0.59,-0.531 -1.171,-1.321 l -1.057,-1.437 0.136,4.86 0.136,4.86 -0.654,-1.411 c -1.022,-2.204 -3.911,-10.524 -4.631,-13.336 -0.545,-2.124 -0.689,-2.39 -0.885,-1.627 -0.371,1.441 0.48,9.254 1.404,12.898 0.463,1.825 1.978,5.973 3.366,9.218 1.388,3.245 2.599,6.138 2.69,6.429 0.09,0.291 -0.721,-0.424 -1.804,-1.588 -2.89,-3.106 -5.891,-9.21 -7.112,-14.464 l -0.491,-2.116 0.209,2.116 c 0.115,1.164 0.766,3.943 1.448,6.174 2.266,7.42 2.501,8.378 3.121,12.736 0.512,3.602 0.573,5.608 0.364,11.936 -0.138,4.184 -0.365,8.48 -0.503,9.547 l -0.253,1.941 -0.43,-3.175 c -0.956,-7.052 -3.452,-14.862 -6.426,-20.109 -1.61,-2.839 -1.677,-2.616 -0.702,2.33 0.392,1.989 0.794,5.294 0.894,7.346 l 0.181,3.73 -1.927,-6.312 c -1.992,-6.526 -4.439,-13.394 -4.684,-13.148 -0.284,0.284 1.711,7.964 3.26,12.551 1.555,4.602 2.3,8.398 2.807,14.303 0.212,2.468 0.177,2.755 -0.286,2.37 -0.29,-0.24 -1.286,-2.733 -2.214,-5.54 -0.928,-2.807 -1.743,-5.047 -1.812,-4.978 -0.07,0.07 0.116,1.617 0.411,3.439 0.296,1.821 0.531,3.788 0.524,4.37 -0.01,0.909 -0.14,0.759 -0.905,-1.058 -1.242,-2.947 -2.043,-6.201 -3.314,-13.47 -0.602,-3.446 -1.151,-6.321 -1.22,-6.39 -0.273,-0.274 -0.688,5.61 -0.632,8.964 0.07,4.144 0.772,7.898 1.961,10.483 0.461,1.003 2.217,3.486 3.901,5.516 2.162,2.607 3.63,4.829 4.995,7.56 1.063,2.127 1.932,4.117 1.932,4.422 0,0.305 -0.87,-0.875 -1.932,-2.621 -2.379,-3.913 -3.931,-5.864 -2.379,-2.991 1.686,3.122 3.132,6.748 4.246,10.648 1.683,5.893 1.719,6.493 0.22,3.632 -3.839,-7.329 -11.815,-20.285 -12.487,-20.285 -0.477,0 1.037,8.05 2.295,12.201 2.224,7.335 5.772,13.243 9.953,16.569 3.119,2.482 9.16,5.295 13.138,6.118 l 3.351,0.693 -2.749,0.02 c -5.734,0.05 -13.068,-2.382 -17.8,-5.908 -2.002,-1.491 -1.867,-1.257 4.477,7.762 1.445,2.054 1.272,1.921 -2.224,-1.721 -4.809,-5.009 -7.523,-8.25 -9.147,-10.923 -1.746,-2.874 -3.977,-7.797 -4.878,-10.762 -0.409,-1.347 -0.804,-2.389 -0.878,-2.316 -0.228,0.229 0.571,5.907 1.327,9.429 1.279,5.959 3.477,10.955 7.978,18.135 10.56,16.846 12.837,27.275 8.595,39.368 l -1.052,2.998 -0.03,-2.335 c -0.06,-5.469 -1.759,-11.91 -4.66,-17.691 -2.208,-4.398 -9.117,-15.948 -10.061,-16.817 -0.119,-0.109 -0.128,1.786 -0.02,4.211 0.269,6.078 1.215,9.155 5.371,17.463 4.505,9.005 8.062,20.191 9.494,29.855 0.573,3.866 0.712,12.59 0.248,15.477 -0.214,1.328 -0.293,0.924 -0.483,-2.47 -0.436,-7.792 -3.143,-16.707 -7.163,-23.595 -1.704,-2.92 -3.25,-4.997 -2.787,-3.745 0.728,1.97 1.199,5.421 1.37,10.042 l 0.19,5.127 -0.653,-4.057 c -1.193,-7.414 -2.679,-10.947 -7.12,-16.933 -5.365,-7.228 -8.626,-13.736 -11.403,-22.754 l -0.544,-1.764 0.191,1.94 c 0.275,2.811 1.826,9.627 2.846,12.51 0.483,1.366 2.208,5.262 3.833,8.657 5.266,11.004 6.976,17.943 6.996,28.399 0.02,9.484 -0.823,12.741 -7.367,28.509 -1.764,4.249 -1.919,6.136 -0.749,9.061 l 0.918,2.294 -1.058,-1.235 c -1.669,-1.95 -4.112,-7.11 -4.774,-10.088 -0.908,-4.081 -0.55,-10.043 1.215,-20.251 0.789,-4.56 1.535,-8.687 1.658,-9.172 0.216,-0.849 0.205,-0.855 -0.289,-0.177 -0.283,0.388 -2.127,3.761 -4.099,7.496 -1.971,3.734 -5.352,9.767 -7.513,13.405 -11.26,18.959 -13.608,23.866 -17.769,37.131 -1.638,5.224 -2.277,8.2 -2.649,12.347 -0.235,2.621 -0.268,1.851 -0.152,-3.527 0.232,-10.669 2.092,-20.941 5.623,-31.045 3.687,-10.551 4.612,-15.715 4.297,-23.989 -0.13,-3.401 -0.482,-6.766 -0.934,-8.905 -0.739,-3.499 -2.791,-10.3 -3.035,-10.057 -0.07,0.07 0.194,1.791 0.594,3.816 0.867,4.385 1.046,13.678 0.35,18.145 -0.655,4.202 -2.303,10.872 -3.574,14.464 -1.515,4.281 -8.425,21.558 -9.976,24.944 -3.214,7.015 -6.918,12.133 -20.661,28.546 -5.914,7.064 -6.5,7.717 -5.502,6.129 4.66,-7.406 13.289,-24.072 16.037,-30.974 4.632,-11.633 6.188,-21.725 4.935,-32.006 -0.324,-2.653 -3.325,-15.439 -3.716,-15.83 -0.08,-0.08 -0.115,5.152 -0.07,11.636 0.08,11.251 0.05,11.957 -0.745,15.492 -1.13,5.048 -3.029,10.334 -7.162,19.932 -1.922,4.463 -4.877,11.329 -6.567,15.259 -1.69,3.929 -3.114,7.019 -3.165,6.866 -0.05,-0.153 0.643,-2.812 1.542,-5.91 7.063,-24.334 7.763,-34.853 3.646,-54.741 -1.521,-7.347 -1.517,-7.374 -0.649,4.483 0.967,13.204 -0.622,23.699 -6.033,39.864 -3.99,11.919 -3.888,11.359 -4.287,23.636 -0.192,5.918 -0.549,11.871 -0.793,13.229 l -0.443,2.47 z m -3.752,-68.263 c -0.626,-19.603 -0.636,-21.488 -0.127,-24.617 0.599,-3.676 0.245,-3.614 -0.73,0.128 -1.745,6.695 -1.822,11.949 -0.371,25.296 1.009,9.276 1.538,8.928 1.228,-0.807 z m -11.637,-21.784 c 0.02,-3.153 0.299,-7.631 0.617,-9.951 0.983,-7.149 0.53,-6.749 -1.015,0.896 -0.775,3.835 -0.922,5.337 -0.774,7.909 0.148,2.577 0.821,6.879 1.076,6.879 0.03,0 0.08,-2.58 0.1,-5.733 z m -20.276,-29.963 c -0.697,-2.935 -3.302,-8.996 -4.444,-10.341 l -0.599,-0.706 0.237,0.706 c 0.13,0.388 0.786,2.372 1.459,4.409 1.829,5.541 3.814,10.364 3.939,9.571 0.06,-0.38 -0.207,-2.017 -0.592,-3.639 z m 3.666,0.506 c -0.325,-2.639 -1.642,-6.391 -3.043,-8.668 -1.248,-2.028 -5.902,-8.353 -6.146,-8.353 -0.286,0 1.27,3.668 2.469,5.821 0.649,1.164 2.069,3.704 3.155,5.644 1.086,1.94 2.33,4.441 2.764,5.556 0.434,1.116 0.848,2.029 0.92,2.029 0.07,0 0.02,-0.913 -0.119,-2.029 z m 55.399,-0.529 c 0.72,-2.199 2.076,-4.99 4.413,-9.084 2.586,-4.528 4.899,-10.238 5.692,-14.049 0.604,-2.901 0.682,-4.26 0.52,-9.058 -0.104,-3.104 -0.35,-6.041 -0.545,-6.526 -0.341,-0.848 -0.356,-0.835 -0.394,0.353 l -0.04,1.234 -1.021,-1.94 c -0.562,-1.067 -1.434,-2.416 -1.939,-2.998 l -0.918,-1.059 0.181,1.059 c 0.459,2.694 0.985,14.053 0.814,17.585 -0.224,4.645 -0.799,6.664 -3.981,13.978 -1.237,2.845 -2.482,6.065 -2.766,7.156 -0.634,2.433 -1.065,5.201 -0.811,5.201 0.104,0 0.461,-0.833 0.795,-1.852 z m 6.373,-5.825 c 2.157,-4.206 4.072,-9.388 4.528,-12.255 0.195,-1.226 0.129,-1.144 -0.505,0.625 -0.401,1.12 -1.983,4.454 -3.515,7.408 -2.325,4.483 -4.26,9.352 -4.255,10.703 0,0.515 1.388,-1.882 3.747,-6.481 z m -25.596,0.988 c 0.389,-1.26 0.923,-4.437 1.187,-7.061 0.571,-5.675 1.249,-7.776 3.956,-12.25 2.497,-4.128 3.273,-6.324 3.288,-9.309 0.01,-2.434 -0.987,-7.01 -1.897,-8.688 -0.532,-0.979 -0.533,-0.977 -0.547,0.918 0,1.045 -0.168,2.87 -0.356,4.057 -0.188,1.186 -0.488,3.348 -0.667,4.803 -0.288,2.344 -1.682,6.952 -2.004,6.629 -0.07,-0.07 0.186,-1.298 0.563,-2.734 0.804,-3.061 0.887,-6.995 0.197,-9.287 -0.535,-1.78 -3.156,-5.931 -4.596,-7.281 -1.017,-0.954 -1.09,-0.874 -0.519,0.567 1.4,3.535 2.205,9.142 1.853,12.912 -0.123,1.316 -0.292,2.324 -0.377,2.239 -0.08,-0.08 -0.272,-0.923 -0.415,-1.864 l -0.261,-1.71 -0.773,3.218 c -0.97,4.04 -0.974,6.897 -0.02,12.48 0.958,5.595 1.045,12.161 0.191,14.464 -0.49,1.323 -0.499,1.471 -0.05,0.887 0.295,-0.385 0.855,-1.731 1.244,-2.99 z m -24.248,-0.102 c -1.096,-3.7 -2.046,-5.845 -5.269,-11.906 -2.022,-3.803 -3.559,-7.187 -4.004,-8.812 -0.873,-3.189 -0.963,-8.43 -0.194,-11.296 0.753,-2.804 0.658,-3.1 -0.499,-1.552 -0.566,0.756 -1.447,1.852 -1.958,2.434 -0.906,1.031 -0.923,1.036 -0.695,0.176 0.349,-1.311 2.917,-6.36 3.891,-7.649 0.467,-0.618 0.849,-1.205 0.849,-1.305 0,-0.488 -2.258,0.7 -3.636,1.913 -1.951,1.716 -2.727,4.193 -2.981,9.515 -0.353,7.358 0.877,10.815 6.273,17.634 3.442,4.35 6.491,8.777 7.715,11.201 0.416,0.825 0.825,1.499 0.907,1.499 0.08,0 -0.1,-0.833 -0.399,-1.852 z m 4.444,-1.859 c -1.183,-4.969 -1.162,-4.92 -4.522,-10.356 -2.072,-3.352 -2.592,-4.277 -2.402,-4.277 0.133,0 3.988,4.485 5.003,5.821 0.295,0.388 -0.04,-0.644 -0.745,-2.293 -2.079,-4.863 -3.351,-9.149 -3.508,-11.816 l -0.145,-2.472 0.585,1.411 c 1.609,3.881 10.343,20.051 10.344,19.152 0,-0.139 -0.326,-1.08 -0.725,-2.092 -0.399,-1.012 -0.966,-2.883 -1.259,-4.158 -0.294,-1.275 -0.999,-3.045 -1.567,-3.934 -2.394,-3.749 -3.344,-8.631 -3.031,-15.582 0.121,-2.668 0.109,-4.851 -0.03,-4.851 -0.134,0 -0.607,0.437 -1.05,0.97 l -0.805,0.97 0.203,-1.587 0.203,-1.588 -0.778,1.162 c -0.96,1.434 -1.303,1.247 -0.513,-0.28 0.319,-0.618 0.516,-1.189 0.436,-1.269 -0.08,-0.08 -1.124,0.874 -2.319,2.119 -2.297,2.392 -2.627,2.31 -1.834,-0.455 0.319,-1.109 0.301,-1.151 -0.264,-0.639 -1.155,1.047 -2.998,4.506 -3.471,6.515 -0.884,3.758 -0.517,7.017 1.213,10.783 l 0.947,2.061 0.05,-2.943 c 0.07,-4.633 0.649,-5.159 0.705,-0.647 0.06,4.466 0.527,6.77 1.986,9.699 0.97,1.949 7.658,13.229 7.843,13.229 0.04,0 -0.204,-1.194 -0.552,-2.653 z m 33.099,-2.727 c 5.184,-7.367 7.612,-12.105 9.058,-17.669 1.127,-4.339 1.704,-10.074 1.227,-12.198 -0.518,-2.302 -0.825,-2.515 -1.062,-0.736 -0.208,1.565 -0.212,1.557 -0.27,-0.529 -0.07,-2.592 -0.721,-2.005 -0.781,0.705 l -0.04,1.764 -1.09,-2.381 c -1.036,-2.265 -1.686,-2.851 -2.215,-1.996 -0.131,0.213 -0.287,3.348 -0.346,6.968 -0.144,8.807 -0.594,10.922 -4.597,21.574 -1.697,4.517 -3,8.467 -2.793,8.467 0.06,0 1.373,-1.786 2.908,-3.969 z m -6.203,-3.968 c 1.752,-3.924 1.946,-3.558 0.482,0.911 -0.439,1.342 -0.758,2.44 -0.707,2.44 0.339,0 4.707,-7.276 5.495,-9.155 2.03,-4.834 2.593,-7.822 2.6,-13.776 0,-4.901 -0.08,-5.676 -0.807,-7.482 -0.448,-1.107 -1.091,-2.356 -1.429,-2.774 -0.593,-0.733 -0.61,-0.636 -0.465,2.68 0.176,4.029 -0.07,4.105 -1.858,0.583 -1.709,-3.361 -2.478,-4.273 -1.582,-1.876 0.388,1.04 0.875,3.618 1.082,5.729 0.511,5.203 0.1,7.337 -2.703,13.918 -2.741,6.445 -3.292,8.469 -3.553,13.035 l -0.201,3.528 0.957,-1.941 c 0.526,-1.067 1.736,-3.686 2.689,-5.82 z m -45.782,2.734 c -1.32,-4.782 -2.5,-10.745 -3.153,-15.923 -0.775,-6.153 -0.348,-9.942 1.772,-15.739 0.427,-1.169 -1.671,1.537 -2.711,3.495 -0.899,1.694 -0.954,1.736 -0.962,0.738 0,-0.582 0.132,-1.662 0.303,-2.4 0.226,-0.969 0.2,-1.304 -0.09,-1.206 -0.686,0.229 -1.76,2.392 -2.554,5.146 l -0.759,2.63 -0.241,-1.611 c -0.133,-0.885 -0.145,-2.459 -0.03,-3.496 0.185,-1.627 0.151,-1.788 -0.244,-1.18 -0.62,0.957 -0.823,8.843 -0.333,12.991 0.658,5.577 1.6,7.632 7.451,16.259 1.261,1.86 2.318,3.381 2.348,3.382 0.03,0 -0.329,-1.389 -0.797,-3.086 z m -10.217,-1.36 c -1.609,-4.792 -2.016,-8.443 -1.784,-16.015 0.116,-3.783 0.3,-7.514 0.408,-8.29 0.134,-0.954 0.09,-1.24 -0.134,-0.882 -0.436,0.696 -2.406,10.475 -2.699,13.406 -0.445,4.436 1.052,9.879 3.559,12.938 0.704,0.86 1.328,1.516 1.386,1.457 0.06,-0.06 -0.273,-1.236 -0.736,-2.614 z m 43.539,-9.047 c 2.993,-5.976 4.73,-14.954 3.57,-18.458 -0.252,-0.763 -0.526,-1.185 -0.608,-0.939 -0.08,0.246 -0.541,-0.336 -1.018,-1.294 -0.477,-0.958 -1.121,-1.951 -1.429,-2.207 -0.509,-0.422 -0.537,-0.201 -0.301,2.352 0.144,1.55 0.175,2.735 0.07,2.633 -0.105,-0.102 -0.639,-1.042 -1.186,-2.089 -0.546,-1.046 -1.206,-1.973 -1.465,-2.06 -0.371,-0.123 -0.389,0 -0.08,0.566 0.213,0.398 0.384,1.409 0.38,2.246 v 1.523 l -0.737,-1.588 c -0.405,-0.873 -0.853,-1.984 -0.994,-2.469 -0.244,-0.836 -0.298,-0.795 -1.028,0.793 -0.424,0.922 -0.831,1.676 -0.904,1.676 -0.07,0 -0.474,-0.579 -0.892,-1.287 -1.376,-2.332 -1.616,-1.252 -1.49,6.685 0.108,6.775 0.164,7.278 1.143,10.222 0.566,1.703 1.342,3.687 1.723,4.41 l 0.694,1.313 0.05,-4.41 c 0.05,-4.361 0.06,-4.392 0.556,-2.822 0.277,0.873 0.769,3.215 1.093,5.204 0.324,1.988 0.694,3.616 0.822,3.616 0.128,0 1.047,-1.628 2.044,-3.616 z m -10.072,0.06 c 0.292,-1.56 0.09,-10.302 -0.272,-11.967 -0.107,-0.485 0.205,-0.09 0.694,0.882 l 0.888,1.764 -0.179,-1.764 c -0.1,-0.97 -0.34,-3.737 -0.537,-6.15 -0.198,-2.412 -0.426,-4.452 -0.507,-4.533 -0.08,-0.08 -0.335,0.543 -0.566,1.387 -0.401,1.475 -0.431,1.5 -0.758,0.653 -0.186,-0.485 -0.267,-1.669 -0.178,-2.632 l 0.161,-1.749 -0.857,1.044 c -0.472,0.574 -1.278,1.838 -1.793,2.808 -0.838,1.581 -0.932,2.129 -0.912,5.292 0.03,4.143 0.725,10.651 1.372,12.804 0.53,1.762 2.161,4.051 2.747,3.855 0.222,-0.07 0.536,-0.836 0.697,-1.694 z m -55.743,-15.948 c 0.467,-1.012 1.561,-2.713 2.432,-3.78 1.394,-1.708 2.755,-3.652 5.36,-7.651 0.403,-0.619 0.77,-1.088 0.815,-1.043 0.04,0.05 -0.239,1.107 -0.63,2.359 -0.747,2.39 -1.729,6.715 -1.729,7.614 0,0.944 0.656,0.162 3.715,-4.43 2.973,-4.463 4.842,-6.72 4.257,-5.139 -1.14,3.08 -2.641,9.701 -2.199,9.701 0.1,0 0.688,-0.912 1.318,-2.028 3.935,-6.962 8.2,-11.383 14.163,-14.681 1.31,-0.724 2.382,-1.366 2.382,-1.426 0,-0.06 -1.628,0.339 -3.616,0.887 -1.989,0.547 -3.754,1.001 -3.922,1.008 -0.168,0 0.286,-0.643 1.01,-1.444 2.344,-2.594 2.758,-4.028 2.463,-8.535 -0.288,-4.406 -0.106,-4.096 -4.316,-7.398 -3.88,-3.043 -5.802,-7.16 -5.799,-12.42 0,-4.728 1.745,-8.43 5.444,-11.567 2.18,-1.849 3.914,-2.775 6.806,-3.634 2.68,-0.796 9.208,-0.81 13.924,-0.03 13.554,2.243 20.925,2.377 31.241,0.567 8.961,-1.572 14.24,-1.241 19.416,1.216 3.222,1.531 5.135,3.267 6.172,5.6 0.7,1.577 0.819,2.422 0.813,5.73 -0.01,6.191 -0.979,8.747 -5.068,13.406 -3.189,3.632 -3.538,4.459 -3.538,8.378 0,3.987 0.751,5.792 3.175,7.635 l 1.588,1.206 -1.411,-0.25 c -0.777,-0.137 -2.046,-0.347 -2.821,-0.466 l -1.41,-0.215 1.972,1.733 c 3.872,3.405 8.751,9.125 12.319,14.443 1.386,2.066 2.573,3.703 2.637,3.638 0.36,-0.364 -2.396,-9.309 -3.622,-11.755 -1.226,-2.447 -0.521,-1.784 4.562,4.294 5.848,6.993 5.983,7.024 3.472,0.816 -0.968,-2.395 -1.721,-4.392 -1.674,-4.439 0.196,-0.191 8.583,9.662 9.553,11.223 0.578,0.929 1.095,1.645 1.15,1.591 0.05,-0.05 -0.128,-1.921 -0.405,-4.149 -0.6,-4.824 -0.593,-4.672 -0.185,-4.42 0.474,0.293 2.02,5.116 3.005,9.376 l 0.854,3.694 0.03,-3.175 c 0.01,-1.746 0.131,-5.227 0.259,-7.735 0.185,-3.621 0.308,-4.383 0.601,-3.704 1.147,2.666 0.38,-7.3 -1.059,-13.757 -1.571,-7.046 -4.061,-13.16 -8.167,-20.048 -1.185,-1.988 -1.994,-3.616 -1.798,-3.616 0.197,0 0.264,-0.357 0.15,-0.793 -0.191,-0.733 -0.173,-0.744 0.241,-0.145 2.254,3.266 5.21,7.334 5.21,7.169 0,-0.636 -3.665,-7.884 -4.926,-9.74 -2.09,-3.078 -7.969,-10.045 -10.484,-12.423 -2.373,-2.245 -6.205,-4.81 -8.555,-5.728 -0.86,-0.336 -4.194,-1.001 -7.408,-1.479 -10.846,-1.611 -22.847,-4.25 -27.893,-6.133 l -1.941,-0.724 1.059,0.895 c 3.358,2.84 10.022,5.103 17.815,6.052 l 2.293,0.279 -3.175,0.254 c -5.426,0.435 -11.5,-0.17 -15.462,-1.541 l -2.057,-0.712 -2.782,0.92 c -1.53,0.505 -3.303,0.911 -3.94,0.902 l -1.159,-0.02 1.764,-0.913 c 1.792,-0.929 3.69,-2.344 4.115,-3.07 0.129,-0.22 -1.141,0.278 -2.822,1.106 -5.34,2.632 -10.133,3.391 -23.518,3.728 -6.421,0.161 -5.978,-0.03 3.036,-1.35 12.128,-1.77 18.114,-3.721 20.801,-6.782 0.941,-1.072 2.798,-4.319 2.798,-4.894 0,-0.13 -0.754,0.467 -1.676,1.327 -4.156,3.875 -13.199,7.311 -26.723,10.153 -15.405,3.236 -18.002,4.794 -24.299,14.574 -1.093,1.698 -1.932,3.087 -1.865,3.087 0.07,0 1.184,-1.341 2.484,-2.981 3.677,-4.641 7.167,-7.943 10.296,-9.742 2.736,-1.574 4.741,-2.552 4.741,-2.311 0,0.07 -1.151,1.006 -2.558,2.088 -3.418,2.632 -7.222,6.598 -11.12,11.596 -4.238,5.434 -5.488,7.382 -6.637,10.346 -0.526,1.358 -1.092,2.62 -1.257,2.805 -0.165,0.184 -0.299,0.501 -0.297,0.705 0,0.204 0.941,-1.058 2.088,-2.804 1.147,-1.747 2.505,-3.57 3.019,-4.052 l 0.933,-0.877 -0.351,0.923 c -0.193,0.507 -1.076,2.367 -1.963,4.132 -4.393,8.748 -7.044,17.897 -8.293,28.625 -0.215,1.843 -0.468,3.814 -0.562,4.378 -0.165,0.992 -0.148,1.007 0.503,0.417 0.659,-0.595 0.68,-0.534 0.9,2.501 0.123,1.711 0.416,4.857 0.651,6.991 0.327,2.981 0.447,3.472 0.514,2.117 0.232,-4.627 0.856,-8.782 1.626,-10.824 l 0.84,-2.229 0.164,7.938 c 0.173,8.34 0.589,11.175 1.048,7.131 0.138,-1.22 0.633,-3.046 1.099,-4.057 z m 23.468,-68.579 c 0.254,-0.102 0.558,-0.09 0.676,0.03 0.117,0.117 -0.09,0.2 -0.463,0.185 -0.411,-0.02 -0.495,-0.1 -0.213,-0.213 z m 64.185,67.357 c -0.184,-3.095 -1.001,-5.886 -1.814,-6.198 -0.308,-0.118 -0.256,0.363 0.177,1.649 0.337,0.998 0.818,3.125 1.069,4.725 0.251,1.601 0.524,2.911 0.605,2.911 0.08,0 0.06,-1.389 -0.04,-3.087 z m -62.544,-11.324 c 15.293,-10.228 52.575,-10.205 67.922,0.04 0.873,0.583 2.602,2.031 3.841,3.217 l 2.255,2.156 -1.088,-1.622 c -2.311,-3.447 -7.164,-6.99 -12.478,-9.111 -12.864,-5.134 -36.438,-5.643 -50.378,-1.088 -6.931,2.265 -11.493,5.312 -15.057,10.057 -1.833,2.44 -1.685,2.549 0.382,0.281 1.097,-1.204 3.168,-2.973 4.601,-3.932 z m 12.321,-14.817 c 2.951,-1.305 6.207,-4.924 8.855,-9.842 0.548,-1.019 1.122,-1.853 1.275,-1.853 0.153,0 0.326,0.813 0.385,1.805 l 0.107,1.805 1.782,-1.786 1.783,-1.786 0.03,1.172 c 0.04,1.427 0.71,2.775 1.222,2.459 0.206,-0.127 0.706,-0.965 1.11,-1.862 l 0.736,-1.63 0.262,1.411 c 0.145,0.776 0.272,2.651 0.283,4.166 0.01,1.683 0.154,2.673 0.363,2.543 0.489,-0.302 2.125,-5.651 2.138,-6.992 0.02,-1.747 0.531,-0.517 1.224,2.929 0.332,1.649 0.72,3.211 0.862,3.47 0.15,0.274 0.609,-1.105 1.092,-3.28 l 0.832,-3.752 0.547,1.399 c 0.775,1.981 1.019,2.078 0.83,0.328 -0.09,-0.834 -0.01,-1.913 0.175,-2.399 0.324,-0.842 0.359,-0.811 0.771,0.706 0.237,0.873 0.609,1.905 0.825,2.293 0.342,0.612 0.445,0.425 0.777,-1.411 l 0.383,-2.117 1.392,2.256 c 0.765,1.24 1.748,2.669 2.184,3.175 l 0.793,0.919 -0.528,-1.311 c -0.598,-1.485 -0.734,-5.384 -0.175,-5.039 0.194,0.12 0.352,0.505 0.352,0.856 0,1.327 2.638,5.881 4.469,7.714 4.598,4.603 11.463,5.622 14.395,2.138 0.938,-1.115 1.172,-2.555 0.485,-2.98 -0.224,-0.139 -1.798,-0.531 -3.497,-0.872 -3.888,-0.78 -5.237,-1.421 -6.991,-3.325 -2.164,-2.346 -2.69,-5.196 -1.567,-8.489 0.84,-2.466 3.138,-4.543 7.547,-6.821 5.549,-2.868 6.994,-4.135 6.497,-5.7 -0.489,-1.539 -2.076,-1.926 -7.756,-1.888 -5.017,0.03 -5.53,0.104 -9.878,1.362 -8.166,2.362 -9.472,2.674 -12.936,3.084 -4.56,0.54 -9.357,0 -15.114,-1.687 -8.826,-2.594 -9.381,-2.698 -14.636,-2.748 -4.286,-0.04 -5.067,0.04 -5.909,0.611 -0.805,0.547 -0.97,0.915 -0.97,2.174 0,1.938 0.799,2.639 6.097,5.349 6.257,3.2 7.991,5.254 8.007,9.477 0,1.603 -0.221,2.594 -0.909,3.974 -1.04,2.088 -2.204,2.904 -6.669,4.676 -1.552,0.616 -3.114,1.397 -3.472,1.736 -0.608,0.577 -0.613,0.687 -0.08,1.715 1.375,2.658 6.37,3.571 10.219,1.868 z m -11.441,-10.969 c -3.471,-3.697 -5.641,-9.858 -5.102,-14.484 0.203,-1.743 0.175,-1.868 -0.277,-1.235 -1.671,2.342 -1.721,7.182 -0.108,10.351 1.115,2.191 3.249,4.621 5.497,6.26 0.871,0.635 1.621,1.116 1.668,1.07 0.05,-0.05 -0.708,-0.93 -1.678,-1.962 z m 67.289,-2.547 c 2.568,-2.634 3.754,-5.363 3.724,-8.565 -0.02,-2.663 -0.325,-3.725 -1.731,-6.134 -1.155,-1.978 -1.402,-1.705 -0.435,0.48 0.638,1.443 0.727,2.15 0.57,4.553 -0.289,4.449 -2.16,8.394 -5.85,12.333 l -1.288,1.376 1.588,-1.08 c 0.873,-0.595 2.413,-1.928 3.422,-2.963 z m 27.341,-8.674 c -2.295,-5.472 -8.163,-13.037 -13.291,-17.136 -1.56,-1.246 -1.592,-1.299 2.31,3.832 1.47,1.933 3.657,4.983 4.86,6.778 1.203,1.795 2.265,3.263 2.36,3.263 0.1,0 -0.234,-0.833 -0.732,-1.852 l -0.906,-1.852 1.081,1.235 c 0.595,0.679 1.81,2.385 2.7,3.792 1.593,2.516 2.128,3.158 1.618,1.94 z m -121.759,-3.796 c 1.873,-2.876 7.105,-9.942 9.598,-12.961 0.76,-0.921 1.237,-1.675 1.059,-1.675 -0.547,0 -5.511,5.331 -7.226,7.761 -1.403,1.987 -6.052,10.369 -5.476,9.874 0.115,-0.1 1.035,-1.449 2.045,-2.999 z m 167.223,-13.8 c -0.794,-3.89 -4.305,-16.431 -4.536,-16.2 -0.371,0.37 1.214,7.86 2.576,12.177 0.829,2.626 1.693,5.465 1.919,6.309 0.742,2.758 0.768,1.278 0.04,-2.286 z m -208.675,-12.813 c 0.462,-2.221 0.788,-4.09 0.725,-4.153 -0.06,-0.06 -0.921,2.231 -1.906,5.097 -1.716,4.992 -2.949,9.752 -3.406,13.149 -0.361,2.686 3.684,-9.742 4.587,-14.093 z m 140.885,10.792 c -0.392,-0.339 -22.001,-7.459 -26.889,-8.86 -3.067,-0.879 -6.058,-1.848 -6.647,-2.153 -1.283,-0.663 -1.706,-0.412 -0.867,0.515 1.807,1.997 6.607,3.706 18.91,6.734 4.754,1.17 9.913,2.513 11.466,2.985 2.505,0.761 4.441,1.136 4.027,0.779 z m -78.533,-1.945 c 3.142,-0.946 7.778,-2.323 10.3,-3.061 8.671,-2.537 16.748,-6.245 19.269,-8.847 l 1.138,-1.174 -2.266,1.2 c -2.57,1.361 -4.054,1.939 -15.142,5.897 -4.366,1.558 -10.478,3.865 -13.582,5.125 -7.959,3.231 -7.927,3.329 0.283,0.86 z m -30.974,-8.125 c 4.275,-5.655 7.248,-11.956 8.421,-17.849 0.309,-1.553 0.889,-6.395 1.289,-10.76 0.401,-4.366 0.969,-9.105 1.263,-10.532 0.294,-1.427 0.468,-2.662 0.387,-2.743 -0.265,-0.264 -2.641,6.333 -4.096,11.368 -0.779,2.698 -2.231,8.239 -3.225,12.314 -2.404,9.847 -4.578,15.537 -8.381,21.945 -0.6,1.01 -1.352,2.28 -1.672,2.822 -0.938,1.589 3.568,-3.331 6.014,-6.565 z m 19.402,2.601 c 2.845,-2.27 6.277,-5.549 11.289,-10.788 1.94,-2.028 5.073,-5.004 6.961,-6.613 7.882,-6.715 10.343,-10.832 13.639,-22.805 2.635,-9.572 4.916,-27.346 5.004,-38.982 l 0.03,-4.057 1.714,3.51 c 6.972,14.281 7.769,32.368 2.108,47.878 -1.299,3.559 -5.186,11.028 -7.231,13.894 -3.523,4.938 -8.512,9.368 -13.698,12.165 -1.488,0.803 -2.706,1.517 -2.706,1.587 0,0.256 4.122,-1.701 6.173,-2.932 4.098,-2.457 7.451,-5.155 11.667,-9.386 9.352,-9.388 16.105,-19.735 18.66,-28.594 1.025,-3.553 1.247,-3.977 1.247,-2.381 0,0.61 0.621,3.534 1.381,6.497 1.988,7.758 2.636,12.258 2.627,18.263 -0.01,7.4 -1.005,10.806 -4.774,16.35 -0.771,1.134 -1.341,2.123 -1.266,2.197 0.388,0.388 4.969,-5.549 6.232,-8.075 1.911,-3.823 2.33,-5.623 3.568,-15.332 0.576,-4.516 1.617,-11.102 2.314,-14.635 1.278,-6.487 1.934,-12.292 1.631,-14.438 -0.105,-0.746 -1.277,-2.676 -3.243,-5.341 -6.653,-9.022 -8.433,-12.986 -9.706,-21.625 -1.363,-9.241 -2.624,-13.44 -5.855,-19.489 -1.578,-2.956 -4.815,-8.108 -5.68,-9.041 -0.377,-0.407 -0.4,-0.469 2.674,7.15 3.102,7.688 4.44,12.133 6.559,21.778 0.98,4.463 2.661,11.13 3.736,14.817 4.043,13.865 4.428,15.352 4.894,18.921 0.263,2.011 0.437,3.701 0.387,3.756 -0.05,0.05 -0.597,-1.375 -1.215,-3.175 -0.618,-1.801 -3.165,-7.402 -5.661,-12.447 -6.28,-12.692 -8.795,-18.632 -12.473,-29.457 -1.196,-3.519 -3.567,-12.54 -4.498,-17.109 -0.237,-1.165 -0.482,-1.958 -0.544,-1.764 -0.06,0.194 -0.365,2.575 -0.672,5.291 -0.368,3.249 -0.67,10.855 -0.885,22.225 -0.18,9.508 -0.432,19.271 -0.561,21.696 l -0.235,4.41 -0.651,-3.704 c -0.358,-2.037 -0.881,-4.498 -1.161,-5.468 l -0.51,-1.764 0.24,2.117 c 0.132,1.164 0.219,4.259 0.194,6.879 -0.05,5.63 -0.976,9.724 -4.01,17.815 -3.823,10.195 -6.457,14.602 -12.859,21.519 -3.411,3.686 -5.517,6.298 -7.724,9.578 -1.844,2.742 -7.526,8.761 -10.586,11.213 -1.678,1.345 -3.052,2.506 -3.052,2.58 0,0.215 3.836,-2.538 6.527,-4.684 z m 133.249,-0.183 c -0.923,-2.195 -0.958,-2.505 -0.958,-8.714 0,-3.541 -0.03,-6.438 -0.06,-6.438 -0.03,0 -0.414,1.517 -0.842,3.372 -1.305,5.645 -0.749,9.599 1.871,13.317 1.056,1.499 1.053,0.987 0,-1.537 z m -37.083,-5.186 c -3.933,-7.856 -5.695,-16.302 -5.611,-26.9 0.04,-5.171 -0.809,-8.691 -3.645,-15.102 -2.674,-6.047 -3.2,-8.007 -4.897,-18.235 -0.772,-4.657 -1.884,-10.347 -2.472,-12.645 -2.067,-8.085 -5.363,-16.018 -9.688,-23.319 -0.913,-1.541 -2.492,-4.558 -3.508,-6.703 -1.147,-2.421 -2.906,-5.304 -4.64,-7.604 -3.961,-5.256 -6.86,-9.96 -9.875,-16.023 -1.44,-2.895 -2.618,-5.071 -2.618,-4.835 0,0.834 2.59,7.355 5.202,13.097 3.3,7.256 4.549,10.848 5.2,14.954 0.554,3.49 1.11,11.504 0.799,11.504 -0.106,0 -1.987,-2.976 -4.181,-6.614 -2.194,-3.638 -5.408,-8.758 -7.144,-11.377 -1.736,-2.62 -3.85,-6.192 -4.699,-7.938 -1.857,-3.821 -1.704,-2.833 0.682,4.41 1.42,4.313 2.872,7.586 6.871,15.498 7.374,14.587 8.2,16.702 12.064,30.916 1.164,4.282 2.908,9.935 3.875,12.564 2.188,5.946 2.498,8.265 2.498,18.684 0,10.958 -0.839,22.092 -1.977,26.231 -0.392,1.426 1.328,-1.727 2.721,-4.988 2.391,-5.596 3.995,-12.981 4.886,-22.502 0.614,-6.556 -0.01,-8.936 -4.744,-18.018 -4.485,-8.612 -5.995,-13.554 -6.386,-20.904 -0.146,-2.732 -0.1,-3.643 0.174,-3.262 0.207,0.291 0.38,1.006 0.385,1.588 0.01,1.806 2.26,7.695 4.323,11.338 1.083,1.913 3.508,5.78 5.389,8.594 3.413,5.105 6.885,11.77 8.914,17.11 1.802,4.744 2.536,8.289 2.901,14.016 0.398,6.263 1.123,9.472 3.513,15.559 2.307,5.874 6.608,14.345 7.284,14.345 0.07,0 -0.649,-1.547 -1.596,-3.439 z m -91.099,-3.341 c 2.442,-4.251 6.169,-12.026 8.023,-16.742 1.995,-5.072 3,-9.35 3.042,-12.947 0.04,-3.391 -0.501,-5.446 -2.979,-11.332 -0.981,-2.328 -2.478,-6.218 -3.327,-8.643 -1.229,-3.512 -1.498,-4.051 -1.32,-2.646 0.123,0.97 1.412,5.336 2.864,9.701 3.085,9.274 3.455,12.021 2.419,17.959 -1.119,6.415 -5.494,17.91 -9.696,25.476 -1.01,1.82 -1.602,3.07 -1.315,2.779 0.287,-0.291 1.317,-1.913 2.289,-3.605 z m 130.922,-0.794 c 4.183,-6.925 5.277,-10.937 6.352,-23.294 0.586,-6.739 1.646,-14.418 2.874,-20.814 1.379,-7.181 1.701,-13.685 0.857,-17.276 -1.213,-5.162 -3.673,-8.917 -11.954,-18.243 -2.449,-2.759 -5.564,-6.809 -7.546,-9.813 -1.858,-2.813 -4.23,-6.181 -5.272,-7.483 -2.73,-3.413 -8.206,-8.222 -16.038,-14.084 -3.761,-2.815 -8.881,-6.814 -11.379,-8.887 -7.588,-6.298 -11.639,-8.384 -17.609,-9.071 -3.492,-0.402 -6.602,-0.436 -6.598,-0.07 0,0.146 1.586,0.643 3.519,1.106 3.94,0.942 8.303,2.76 11.471,4.78 4.754,3.03 10.404,10.105 13.682,17.133 3.73,7.994 10.084,19.261 15.42,27.34 10.814,16.373 14.379,25.804 15.872,41.981 0.197,2.134 0.358,4.237 0.358,4.674 0,0.437 0.159,0.794 0.353,0.794 0.228,0 0.363,-4.399 0.381,-12.436 0.01,-6.839 0.09,-12.276 0.163,-12.082 0.07,0.194 0.47,3.686 0.88,7.761 1.005,9.987 1.019,18.405 0.04,23.812 -1.553,8.59 -4.593,17.016 -7.509,20.814 -1.881,2.451 -1.932,2.828 -0.12,0.882 5.405,-5.802 9.221,-13.64 10.736,-22.053 1.719,-9.545 3.542,-25.451 3.542,-30.897 0,-3.913 -0.752,-8.102 -2.133,-11.886 -1.234,-3.383 -2.372,-5.447 -6.058,-10.989 -2.972,-4.467 -4.361,-7.014 -5.93,-10.866 -1.168,-2.869 -0.802,-2.79 0.868,0.188 0.675,1.204 3.305,4.793 5.845,7.975 7.115,8.916 10.849,14.8 12.561,19.791 0.511,1.49 0.663,2.922 0.653,6.173 -0.01,3.72 -0.19,4.983 -1.482,10.407 -2.175,9.133 -2.227,9.552 -2.547,20.461 -0.252,8.585 -0.406,10.462 -1.054,12.84 -0.835,3.064 -3.888,11.541 -4.769,13.246 -1.09,2.106 -0.208,1.034 1.57,-1.91 z m -5.035,-68.735 c -0.877,-1.659 -2.501,-3.7 -10.333,-12.982 -1.911,-2.265 -9.76,-12.377 -14.749,-19.002 -0.769,-1.021 3.529,2.261 5.722,4.37 1.229,1.181 3.608,4.052 5.287,6.38 1.679,2.329 4.671,6.257 6.648,8.73 1.977,2.473 4.322,5.663 5.211,7.089 1.501,2.408 3.562,6.866 3.297,7.131 -0.06,0.06 -0.551,-0.709 -1.083,-1.716 z m -163.78,68.52 c -2.649,-7.718 -5.128,-18.455 -5.97,-25.86 -0.284,-2.5 -0.587,-4.617 -0.674,-4.703 -0.09,-0.09 -0.448,1.086 -0.803,2.605 -1.322,5.652 -0.629,10.478 2.728,18.99 1.984,5.031 5.21,11.991 5.448,11.753 0.09,-0.09 -0.235,-1.346 -0.729,-2.785 z m 27.696,-7.989 c 0.591,-1.262 2.291,-4.3 3.779,-6.752 3.185,-5.249 4.231,-7.469 5.734,-12.179 1.652,-5.174 2.425,-10.452 2.828,-19.308 0.621,-13.644 0.72,-14.884 1.438,-17.887 0.843,-3.53 2.548,-7.324 4.831,-10.754 l 1.689,-2.537 0.09,1.411 c 0.344,5.645 1.188,11.041 3.467,22.162 l 2.614,12.763 -0.201,-4.057 c -0.111,-2.232 -0.22,-7.232 -0.244,-11.113 -0.06,-9.698 0.615,-13.343 5.044,-27.33 1.183,-3.735 2.846,-9.432 3.697,-12.661 0.851,-3.228 2.123,-7.537 2.827,-9.574 1.312,-3.797 6.216,-14.289 7.63,-16.325 l 0.79,-1.138 -0.817,0.706 c -4.009,3.462 -12.572,15.997 -16.507,24.165 -2.304,4.782 -3.252,6.222 -6.602,10.03 -5.341,6.069 -7.43,9.027 -9.986,14.136 -4.07,8.134 -5.714,16.599 -5.726,29.483 -0.01,12.322 -1.118,19.977 -3.738,25.838 -2.45,5.481 -3.622,8.899 -4.497,13.117 -1.379,6.646 -1.523,8.927 -0.26,4.107 0.577,-2.204 1.533,-5.04 2.124,-6.303 z m -80.359,-3.296 c -0.213,-1.507 -0.631,-3.27 -0.928,-3.916 l -0.541,-1.175 0.153,1.235 c 0.08,0.679 0.356,3.06 0.603,5.291 0.411,3.709 0.478,3.939 0.775,2.682 0.21,-0.886 0.188,-2.351 -0.06,-4.117 z m 66.603,3.178 c -1.977,-3.352 -4.204,-8.025 -5.072,-10.644 -2.24,-6.752 -2.789,-16.872 -1.315,-24.26 2.089,-10.475 8.109,-24.556 14.78,-34.572 2.528,-3.795 9.355,-11.289 10.284,-11.289 0.191,0 -0.735,1.786 -2.058,3.969 -6.881,11.353 -12.491,23.927 -14.449,32.39 -1.639,7.084 -1.679,12.168 -0.135,17.217 l 0.608,1.987 0.226,-4.41 c 0.586,-11.433 4.395,-21.183 13.014,-33.312 3.721,-5.237 9.849,-13.064 14.617,-18.669 1.955,-2.299 4.716,-5.553 6.135,-7.232 1.419,-1.679 3.792,-4.957 5.274,-7.286 1.482,-2.328 3.414,-5.185 4.294,-6.35 2.487,-3.291 6.997,-8.209 8.924,-9.732 0.96,-0.759 1.579,-1.38 1.375,-1.38 -0.915,0 -4.452,1.583 -7.117,3.184 -4.548,2.734 -6.388,4.323 -10.257,8.861 -6.349,7.445 -9.585,10.067 -20.406,16.534 -2.998,1.792 -6.489,3.65 -7.759,4.129 -2.625,0.99 -7.659,2.05 -6.594,1.388 5.535,-3.44 8.331,-5.696 15.222,-12.285 6.493,-6.207 10.03,-9.322 13.935,-12.271 1.649,-1.245 3.792,-2.927 4.763,-3.738 2.531,-2.114 7.765,-5.559 10.61,-6.982 4.192,-2.098 7.12,-2.808 10.843,-2.63 3.171,0.152 3.21,0.144 2.003,-0.399 -0.907,-0.408 -2.299,-0.544 -5.288,-0.518 -5.033,0.04 -7.67,0.781 -16.108,4.505 -3.267,1.442 -8.56,3.763 -11.762,5.158 -15.247,6.642 -20.161,9.9 -30.558,20.262 -7.481,7.456 -12.675,14.683 -17.588,24.475 -3.869,7.71 -4.947,12.03 -4.947,19.824 0,3.756 0.175,5.863 0.659,7.929 0.683,2.913 2.51,7.377 2.17,5.3 -0.813,-4.965 -0.453,-15.477 0.725,-21.146 1.577,-7.586 4.913,-14.325 10.063,-20.324 8.42,-9.807 19.415,-18.934 30.657,-25.446 3.44,-1.993 11.957,-6.514 11.641,-6.18 -0.1,0.103 -1.864,1.515 -3.928,3.138 -2.063,1.623 -6.032,5.122 -8.819,7.777 -7.007,6.673 -8.29,7.555 -13.173,9.061 -3.488,1.076 -5.217,2.201 -8.681,5.647 -3.685,3.668 -6.133,7.249 -8.805,12.881 -2.899,6.114 -4.703,12.09 -6.29,20.834 -0.655,3.61 -1.237,10.305 -0.863,9.931 0.09,-0.09 0.44,-1.09 0.776,-2.22 l 0.61,-2.055 0.448,7.05 c 0.246,3.877 0.594,8.796 0.773,10.93 0.348,4.153 1.741,13.697 1.967,13.472 0.279,-0.28 2.234,-17.615 2.773,-24.584 0.552,-7.154 1.721,-16.639 2.261,-18.345 0.153,-0.485 0.262,6.897 0.242,16.404 -0.04,19.574 -0.129,18.818 2.867,24.632 1.733,3.362 7.107,11.689 7.373,11.423 0.09,-0.09 -0.334,-1.004 -0.94,-2.033 z m 98.969,-2.115 c 0.459,-2.188 3.161,-11.794 3.935,-13.988 0.421,-1.193 -0.507,0.01 -1.411,1.837 -1.346,2.712 -2.332,6.019 -2.893,9.701 -0.855,5.607 -0.62,7.165 0.369,2.45 z m 32.881,-13.386 c -0.169,-9.1 -0.195,-9.251 -3.611,-20.637 -0.699,-2.329 -1.808,-7.409 -2.466,-11.289 -1.39,-8.206 -2.447,-12.47 -4.347,-17.526 -1.407,-3.747 -2.604,-6.25 -4.013,-8.399 l -0.807,-1.231 2.265,1.583 c 5.963,4.168 13.68,14.22 16.953,22.08 2.11,5.069 2.833,8.78 2.804,14.386 -0.01,2.74 -0.144,5.815 -0.289,6.834 -0.145,1.018 -0.155,1.852 -0.02,1.852 0.414,0 2.002,-3.998 2.391,-6.019 1.027,-5.335 0.788,-10 -0.826,-16.12 -1.139,-4.323 -3.641,-10.395 -6.025,-14.623 -1.812,-3.215 -3.246,-5.307 -10.229,-14.92 -1.551,-2.134 -3.834,-5.468 -5.074,-7.408 -1.24,-1.941 -3.118,-4.878 -4.173,-6.527 -2.263,-3.538 -4.158,-5.88 -7.801,-9.64 -8.833,-9.116 -17.656,-14.009 -29.96,-16.615 -2.162,-0.457 -3.845,-0.693 -3.74,-0.523 0.398,0.643 5.146,3.229 7.973,4.343 4.154,1.636 6.156,2.708 10.087,5.4 1.892,1.296 5.49,3.745 7.996,5.443 5.709,3.868 8.899,6.711 11.599,10.34 2.239,3.009 4.714,7.701 4.159,7.886 -1.043,0.348 -8.248,-4.51 -13.105,-8.836 -1.831,-1.631 -5.472,-5.232 -8.092,-8.004 -4.156,-4.397 -7.774,-7.69 -9.525,-8.669 -0.291,-0.163 0.677,0.882 2.15,2.322 1.474,1.44 4.02,4.444 5.659,6.675 9.71,13.223 13.292,18.874 17.779,28.046 3.349,6.847 5.362,12.528 6.688,18.874 1.358,6.501 1.327,6.415 4.802,13.617 1.765,3.66 3.737,7.928 4.382,9.486 1.349,3.258 3.517,10.234 4.223,13.586 0.573,2.726 1.574,11.087 1.625,13.582 l 0.03,1.764 0.344,-1.411 c 0.197,-0.811 0.278,-4.94 0.19,-9.702 z m -13.294,-2.646 c -0.206,-2.328 -0.529,-7.011 -0.718,-10.407 -1.218,-21.906 -2.353,-27.75 -7.298,-37.57 -3.073,-6.103 -6.026,-10.216 -11.468,-15.971 -4.862,-5.141 -6.252,-7.224 -11.489,-17.207 -1.736,-3.308 -3.761,-6.88 -4.5,-7.938 -1.565,-2.237 -4.267,-5.159 -5.283,-5.712 -0.388,-0.211 0.17,0.564 1.24,1.722 2.457,2.657 3.669,5.142 6.17,12.65 2.72,8.164 4.599,12.517 8.164,18.913 8.862,15.898 12.255,23.977 16.351,38.928 1.007,3.679 2.551,8.521 3.431,10.76 3.301,8.403 4.366,12.437 5.269,19.946 l 0.297,2.47 0.105,-3.175 c 0.06,-1.747 -0.06,-5.08 -0.271,-7.409 z m -188.153,7.872 c -0.112,-0.282 -0.196,-0.198 -0.213,0.213 -0.01,0.372 0.07,0.58 0.185,0.463 0.118,-0.117 0.13,-0.422 0.03,-0.676 z m 2.791,-4.456 c -1.922,-7.767 -2.448,-13.272 -1.641,-17.174 0.278,-1.343 0.294,-1.304 0.333,0.814 0.04,2.227 0.617,5.284 1.097,5.822 0.14,0.157 0.344,-2.383 0.451,-5.645 0.218,-6.591 0.738,-9.191 2.369,-11.839 1.367,-2.217 0.876,-2.133 -0.788,0.135 -1.171,1.597 -3.089,6.497 -3.089,7.893 0,0.273 -0.387,1.066 -0.861,1.764 -2.572,3.791 -1.895,12.997 1.503,20.439 1.62,3.547 1.849,2.737 0.626,-2.209 z m -3.537,0.931 c -0.848,-2.912 -3.829,-10.889 -4.004,-10.715 -0.371,0.371 1.188,5.987 2.693,9.703 1.631,4.025 2.351,4.581 1.311,1.012 z m 268.818,-2.735 c 1.06,-4.073 0.301,-9.73 -1.922,-14.312 -1.239,-2.555 -3.794,-6.069 -4.152,-5.71 -0.08,0.08 0.385,0.929 1.032,1.89 3.141,4.669 4.467,13.815 3.237,22.341 -0.162,1.124 -0.111,1.077 0.561,-0.519 0.407,-0.965 0.966,-2.626 1.244,-3.69 z m -57.15,2.452 c -0.353,-3.582 -1.686,-8.744 -3.526,-13.659 -0.886,-2.367 -2.239,-6.784 -3.006,-9.816 -2.123,-8.395 -6.299,-20.498 -6.862,-19.891 -0.07,0.08 0.08,1.414 0.348,2.966 0.264,1.552 0.791,5.067 1.17,7.811 0.901,6.519 2.547,11.465 5.717,17.185 3.012,5.433 3.856,7.651 5.091,13.369 0.535,2.474 1.048,4.498 1.141,4.498 0.09,0 0.06,-1.109 -0.07,-2.463 z m 67.166,-1.75 c 1.843,-3.657 2.835,-7.499 2.835,-10.975 0,-1.736 -0.135,-3.157 -0.301,-3.157 -0.166,0 -0.483,1.1 -0.705,2.443 -0.465,2.821 -3.123,12.916 -3.676,13.961 -0.339,0.643 -0.317,0.661 0.243,0.198 0.339,-0.28 1.061,-1.391 1.604,-2.47 z m 19.785,-3.953 c 0.955,-1.843 2.079,-6.043 2.442,-9.12 0.752,-6.391 -2.13,-15.062 -6.567,-19.752 -1.977,-2.09 -4.84,-4.16 -6.651,-4.809 -0.388,-0.139 0.09,0.409 1.058,1.217 5.512,4.592 9.061,11.832 10.057,20.521 0.189,1.65 0.346,3.303 0.347,3.675 0,1.219 -0.345,0.361 -0.722,-1.765 -0.48,-2.715 -2.203,-7.905 -2.367,-7.133 -0.07,0.329 0.04,1.202 0.254,1.94 0.598,2.111 1.177,14.481 0.764,16.341 -0.322,1.451 -0.307,1.524 0.183,0.877 0.294,-0.388 0.835,-1.285 1.202,-1.992 z m -19.243,-10.884 c 0,-4.084 -0.118,-5.105 -0.83,-7.166 -0.937,-2.715 -3.314,-6.44 -4.638,-7.269 -0.753,-0.471 -0.707,-0.349 0.315,0.837 2.508,2.912 3.083,5.319 4.128,17.283 0.18,2.063 0.278,2.342 0.62,1.764 0.251,-0.426 0.405,-2.495 0.405,-5.449 z m -298.276,2.91 c 0.414,-1.116 1.357,-2.981 2.094,-4.145 1.203,-1.899 2.786,-6.353 2.396,-6.743 -0.09,-0.08 -0.514,0.843 -0.955,2.06 -0.44,1.218 -1.217,3.007 -1.726,3.977 l -0.925,1.764 -0.106,-1.465 c -0.234,-3.204 2.276,-9.653 5.349,-13.741 1.565,-2.081 4.202,-4.726 6.575,-6.596 l 1.235,-0.972 -1.693,0.71 c -6.165,2.588 -11.084,9.311 -12.603,17.226 -0.605,3.152 -0.978,9.954 -0.546,9.954 0.08,0 0.49,-0.913 0.905,-2.029 z m 265.635,-39.819 c -4.821,-2.982 -8.297,-6.099 -16.081,-14.42 -2.691,-2.878 -6.961,-6.881 -10.228,-9.591 -3.085,-2.558 -6.005,-4.992 -6.49,-5.409 -1.458,-1.252 5.252,2.432 8.29,4.552 1.552,1.083 4.164,3.242 5.805,4.797 l 2.983,2.828 -2.277,-2.788 c -2.683,-3.284 -7.966,-8.276 -11.734,-11.087 -1.473,-1.1 -5.346,-3.655 -8.606,-5.678 -5.626,-3.491 -12.217,-7.85 -12.982,-8.584 -0.194,-0.186 0.356,0.02 1.222,0.451 2.691,1.35 7.048,3.154 12.007,4.971 9.483,3.474 14.168,5.555 17.969,7.983 5.867,3.748 13.428,13.815 14.82,19.731 0.236,1.002 0.656,2.114 0.933,2.469 0.448,0.574 0.478,0.434 0.271,-1.261 -0.23,-1.889 -0.224,-1.904 0.615,-1.649 8.224,2.505 17.686,1.296 30.832,-3.942 5.289,-2.107 14.341,-6.246 18.521,-8.469 4.511,-2.398 11.539,-6.688 11.889,-7.255 0.14,-0.228 -0.215,-0.104 -0.79,0.274 -2.296,1.512 -8.448,5.133 -8.721,5.133 -0.16,0 1.343,-1.226 3.34,-2.725 5.158,-3.872 10.984,-9.832 16.989,-17.383 7.574,-9.525 10.153,-13.555 18.855,-29.457 2.229,-4.075 4.401,-7.964 4.826,-8.643 1.504,-2.403 1.698,-3.04 0.489,-1.612 -0.645,0.763 -2.669,3.065 -4.498,5.116 -3.093,3.467 -5.897,6.84 -14.568,17.519 -4.133,5.091 -9.434,10.932 -11.561,12.739 -1.247,1.061 -0.691,0.187 2.745,-4.31 2.371,-3.102 5.981,-7.965 8.024,-10.807 4.822,-6.709 10.223,-13.245 16.624,-20.118 14.369,-15.427 25.652,-23.918 38.836,-29.225 1.803,-0.727 3.357,-1.399 3.452,-1.494 0.1,-0.1 -0.636,-0.03 -1.625,0.154 -12.881,2.342 -27.451,10.102 -40.009,21.31 -5.152,4.598 -13.102,13.011 -17.658,18.688 -10.997,13.699 -17.421,20.669 -22.935,24.882 -10.06,7.687 -20.778,12.028 -38.726,15.684 -8.683,1.769 -20.097,1.886 -28.125,0.29 -0.732,-0.146 -0.552,0.133 1.058,1.639 3.229,3.019 3.138,2.994 10.76,2.967 7.731,-0.03 11.912,-0.635 20.338,-2.958 12.018,-3.312 23.304,-8.192 31.697,-13.704 5.411,-3.554 8.215,-5.629 15.346,-11.356 3.298,-2.65 6.473,-5.121 7.055,-5.492 1.051,-0.669 1.055,-0.669 0.533,0.03 -1.316,1.753 -9.409,10.523 -12.225,13.248 -7.04,6.813 -11.906,10.325 -19.805,14.296 -2.855,1.435 -5.033,2.608 -4.839,2.607 0.699,0 6.403,-1.7 8.819,-2.619 2.838,-1.078 8.549,-4.188 11.642,-6.339 4.272,-2.97 3.867,-2.174 -0.695,1.367 -5.098,3.958 -11.833,7.601 -19.237,10.405 -2.037,0.771 -3.514,1.407 -3.281,1.413 0.537,0.01 14.201,-3.465 14.615,-3.72 0.169,-0.105 0.308,-0.104 0.308,0 0,0.664 -9.995,4.931 -15.875,6.778 -2.169,0.681 -2.36,0.793 -1.058,0.623 4.769,-0.623 11.164,-2.14 16.107,-3.82 3.074,-1.045 5.627,-1.864 5.674,-1.819 0.205,0.193 -5.423,3.192 -8.68,4.625 -5.14,2.263 -11.013,4.24 -17.864,6.015 -6.291,1.63 -5.744,1.74 1.445,0.29 5.673,-1.143 12.317,-3.06 15.722,-4.535 1.521,-0.66 2.765,-1.133 2.765,-1.052 0,0.376 -10.385,5.292 -14.092,6.671 -8.979,3.341 -16.298,4.78 -24.158,4.749 -6.294,-0.03 -8.68,-0.344 -9.188,-1.23 -1.936,-3.375 -5.736,-8.526 -8.198,-11.113 -4.961,-5.213 -8.913,-7.837 -22.152,-14.705 -8.709,-4.518 -14.05,-7.625 -22.142,-12.879 -7.128,-4.629 -8.419,-5.228 -12.07,-5.603 -4.096,-0.42 -4.668,-0.1 -1.905,1.075 1.238,0.526 3.362,1.632 4.72,2.458 2.586,1.572 8.313,5.777 8.125,5.965 -0.06,0.06 -1.199,-0.559 -2.53,-1.377 -1.331,-0.818 -4.46,-2.482 -6.954,-3.698 -6.678,-3.258 -9.103,-3.517 -19.102,-2.041 -5.093,0.752 -5.746,1.164 -1.864,1.178 4.566,0.02 10.601,0.957 14.388,2.245 5.739,1.951 9.786,4.711 18.211,12.419 1.916,1.754 5.39,4.706 7.718,6.561 6.377,5.08 14.899,12.508 20.259,17.657 9.96,9.568 19.553,16.413 27.895,19.906 2.912,1.219 2.909,1.016 0,-0.789 z m -216.548,-7.697 c 2.936,-0.622 7.303,-2.744 10.138,-4.926 2.104,-1.619 3.653,-3.407 9.185,-10.603 4.851,-6.311 11.593,-12.039 19.187,-16.301 4.594,-2.579 8.788,-4.296 15.417,-6.314 3.007,-0.916 6.976,-2.291 8.819,-3.057 1.843,-0.766 5.733,-2.375 8.643,-3.576 4.927,-2.033 14.874,-7.162 14.539,-7.497 -0.398,-0.398 -11.4,2.27 -17.185,4.168 -20.699,6.79 -36.294,14.086 -45.738,21.398 -6.053,4.686 -9.876,9.087 -12.918,14.869 l -1.577,2.999 -4.015,0.313 c -10.747,0.839 -23.866,-1.779 -33.756,-6.736 -5.109,-2.561 -6.231,-3.338 -2.841,-1.969 2.57,1.038 9.032,2.454 12.475,2.734 2.406,0.195 2.352,0.17 -2.117,-0.999 -7.064,-1.849 -14.048,-4.812 -17.11,-7.261 -0.709,-0.567 -0.221,-0.471 2.485,0.49 5.187,1.841 15.859,4.269 15.859,3.608 0,-0.101 -0.912,-0.371 -2.028,-0.598 -1.116,-0.228 -3.14,-0.799 -4.498,-1.268 -2.74,-0.948 -8.016,-3.347 -7.811,-3.552 0.07,-0.07 1.621,0.207 3.442,0.62 2.644,0.599 4.046,0.715 6.961,0.577 3.756,-0.179 5.275,-0.701 3.368,-1.158 -5.117,-1.226 -6.864,-1.832 -10.546,-3.662 -7.429,-3.693 -15.881,-10.817 -23.541,-19.844 -3,-3.535 -6.212,-8.038 -5.734,-8.038 0.109,0 2.057,1.635 4.33,3.635 9.325,8.204 19.621,14.463 32.055,19.487 12.866,5.199 23.697,7.776 34.35,8.171 l 5.477,0.204 1.734,-1.5 c 0.953,-0.825 2.341,-1.903 3.085,-2.395 0.743,-0.492 1.308,-0.931 1.256,-0.976 -0.05,-0.05 -1.365,0.162 -2.918,0.46 -4.591,0.881 -15.446,0.756 -21.166,-0.244 -15.36,-2.684 -29.594,-7.78 -39.072,-13.99 -4.807,-3.15 -10.812,-9.081 -18.368,-18.144 -3.316,-3.977 -7.091,-8.502 -8.388,-10.054 -5.868,-7.023 -15.004,-16.085 -21.638,-21.464 -9.498,-7.701 -22.166,-14.258 -31.759,-16.44 -5.158,-1.173 -5.931,-1.18 -2.869,-0.02 3.826,1.445 10.25,4.568 13.726,6.673 10.466,6.339 24.328,19.487 38.904,36.899 7.87,9.402 18.561,23.901 15.478,20.991 -1.593,-1.504 -15.439,-16.971 -24.927,-27.846 -7.569,-8.675 -12.233,-13.712 -10.7,-11.558 3.246,4.564 5.423,8.005 11.651,18.413 7.484,12.51 9.22,15.156 13.888,21.167 8.127,10.467 15.017,17.565 21.333,21.978 2.731,1.908 3.183,2.347 1.928,1.874 -0.875,-0.331 -4.053,-2.183 -6.371,-3.713 -1.613,-1.065 -1.088,-0.353 0.705,0.957 4.345,3.174 25.326,12.923 33.955,15.777 6.748,2.232 11.075,2.938 16.899,2.756 l 4.525,-0.141 -1.275,1.017 c -1.66,1.323 -3.297,2.147 -5.661,2.848 -6.09,1.805 -15.411,-1.083 -28.423,-8.808 -2.522,-1.498 -6.411,-3.585 -8.643,-4.639 -12.41,-5.859 -10.748,-4.752 -17.826,-11.868 -6.898,-6.936 -9.58,-10.021 -14.61,-16.803 -3.998,-5.392 -12.234,-17.779 -16.418,-24.695 -3.849,-6.36 -8.06,-13.001 -8.835,-13.934 -0.323,-0.388 -0.252,-0.15 0.156,0.529 1.932,3.214 8.134,13.671 10.355,17.462 5.305,9.053 13.123,21.6 17.998,28.885 2.419,3.616 6.498,8.018 9.569,10.326 2.529,1.901 8.622,5.519 14.496,8.607 2.328,1.225 6.138,3.407 8.467,4.849 8.217,5.091 17.198,9.025 23.812,10.431 4.844,1.029 7.311,1.127 10.632,0.423 z m 232.924,-0.425 c 6.541,-1.231 16.127,-5.275 23.321,-9.836 1.746,-1.107 5.808,-3.483 9.027,-5.28 3.219,-1.797 7.491,-4.279 9.493,-5.515 3.834,-2.367 9.055,-7.005 11.572,-10.276 1.942,-2.526 14.021,-22.263 17.54,-28.661 0.747,-1.358 3.369,-6.041 5.827,-10.407 4.9,-8.703 5.53,-9.874 5.026,-9.348 -0.186,0.194 -3.877,6.279 -8.203,13.524 -8.5,14.235 -10.961,18.038 -16.587,25.634 -5.77,7.79 -9.075,11.657 -14.099,16.497 -5.173,4.984 -6.942,6.161 -14.426,9.597 -2.65,1.217 -6.723,3.357 -9.051,4.757 -9.416,5.659 -16.503,8.404 -25.134,9.735 l -3.088,0.476 2.998,-0.186 c 1.65,-0.103 4.252,-0.422 5.784,-0.711 z m -24.97,-6.786 c -1.062,-1.108 -4.381,-3.05 -4.689,-2.743 -0.164,0.164 5.079,3.736 5.509,3.753 0.08,0 -0.284,-0.451 -0.82,-1.01 z m 107.666,-73.958 c -0.109,-0.109 -0.306,0.09 -0.439,0.435 -0.191,0.503 -0.151,0.543 0.198,0.198 0.241,-0.24 0.349,-0.524 0.241,-0.633 z m -251.394,384.537 c 0,-0.582 0.09,-0.777 0.176,-0.434 0.09,0.343 0.08,0.819 -0.01,1.058 -0.1,0.239 -0.169,-0.04 -0.162,-0.624 z m 178.832,-208.399 c -0.02,-0.724 -0.696,-3.026 -1.496,-5.115 -0.799,-2.088 -1.909,-4.988 -2.468,-6.443 -1.281,-3.34 -1.277,-4.938 0.03,-9.007 0.574,-1.793 1.204,-4.252 1.399,-5.463 0.195,-1.212 0.4,-2.249 0.455,-2.304 0.06,-0.06 0.103,2.704 0.106,6.132 0,5.719 0.116,6.828 1.356,13.456 1.104,5.905 1.288,7.483 1.007,8.643 l -0.344,1.42 z m 14.802,-19.525 c 0.02,-0.411 0.1,-0.494 0.213,-0.213 0.102,0.255 0.09,0.559 -0.03,0.676 -0.117,0.118 -0.2,-0.09 -0.185,-0.463 z m 23.651,-4.129 c -0.02,-1.9 -0.212,-4.972 -0.419,-6.827 -0.35,-3.142 -0.32,-3.548 0.441,-5.895 l 0.817,-2.522 0.09,6.526 c 0.06,4.304 -0.08,7.488 -0.398,9.349 l -0.484,2.822 z m -346.625,-8.806 c -0.123,-2.183 -0.09,-5 0.07,-6.262 0.236,-1.846 0.3,-1.074 0.326,3.969 0.02,3.444 -0.01,6.262 -0.07,6.262 -0.06,0 -0.204,-1.786 -0.327,-3.969 z m 342.405,2.558 c 0,-0.485 0.08,-0.684 0.178,-0.441 0.1,0.242 0.1,0.639 0,0.882 -0.1,0.242 -0.178,0.04 -0.178,-0.441 z m 7.994,-15.875 c -0.166,-4.026 -0.468,-6.735 -0.977,-8.783 -0.816,-3.279 -0.751,-4.208 0.109,-1.559 0.976,3.008 1.318,6.173 1.212,11.224 l -0.104,4.939 z m -350.529,3.351 c 0,-0.582 0.09,-0.777 0.176,-0.434 0.09,0.343 0.08,0.819 -0.01,1.058 -0.1,0.239 -0.17,-0.04 -0.163,-0.624 z m -0.513,-2.998 c -0.382,-2.911 -0.305,-5.196 0.267,-7.938 0.545,-2.608 2.275,-7.722 2.527,-7.47 0.08,0.08 -0.345,2.062 -0.948,4.399 -0.773,2.996 -1.17,5.533 -1.344,8.6 -0.223,3.924 -0.272,4.159 -0.502,2.409 z m 248.447,-96.86 c -5.558,-1.201 -10.895,-3.234 -20.232,-7.709 -4.832,-2.315 -11.758,-6.433 -11.409,-6.783 0.116,-0.115 2.956,0.891 7.3,2.587 1.261,0.492 6.5,2.943 11.641,5.447 5.142,2.503 10.857,5.097 12.7,5.763 3.61,1.304 3.61,1.474 0,0.695 z m -9.525,-9.882 c -3.395,-0.846 -8.304,-1.941 -10.907,-2.433 -2.604,-0.492 -4.826,-0.992 -4.939,-1.112 -0.337,-0.359 5.179,0.229 9.037,0.964 4.21,0.802 10.415,2.533 12.547,3.501 2.118,0.961 1.255,0.823 -5.738,-0.92 z m -130.88,0.927 c 0.975,-0.7 8.246,-2.817 12.7,-3.697 3.833,-0.757 10.246,-1.567 8.29,-1.047 -2.24,0.596 -15.559,3.785 -17.639,4.223 -1.358,0.286 -2.787,0.606 -3.175,0.711 -0.578,0.156 -0.609,0.121 -0.176,-0.19 z" id="path125" /></g></svg>